<svg width="1920" height="1080" viewBox="0 0 1920 1080" fill="none" xmlns="http://www.w3.org/2000/svg">
<rect width="1920" height="1080" fill="#02172A"/>
<path d="M909.583 573.189V575.481V577.773H905V575.481V573.189C905 545.002 927 520.71 955.188 518.419C956.333 518.189 957.479 519.335 957.708 520.481C957.708 521.856 956.792 522.773 955.646 523.002C929.75 525.294 909.583 547.294 909.583 573.189ZM981.542 522.544C980.396 522.085 979.021 522.544 978.562 523.689C978.104 524.835 978.562 526.21 979.708 526.669C998.271 534.689 1010.42 553.023 1010.42 573.189V575.481V577.773H1015V575.481V573.189C1015 551.189 1001.94 531.252 981.542 522.544ZM935.938 552.564C935.479 552.564 935.25 552.794 935.021 553.252C934.792 554.398 934.792 555.085 934.792 556.46C934.792 556.919 935.021 557.148 935.479 557.148C938.688 557.148 988.188 557.148 993.688 557.148C994.604 557.148 994.604 557.148 994.146 556.231C993.688 555.314 993.917 554.627 993.688 553.939C993.458 553.481 993.229 553.252 993 553.023C992.542 552.564 992.083 552.564 991.625 553.023C991.396 553.252 991.167 553.481 990.938 553.71C990.708 553.939 990.479 553.939 990.25 553.71C989.792 552.794 989.104 552.564 988.188 552.564C988.188 552.564 950.375 552.564 935.938 552.564ZM981.771 546.835C981.542 546.148 981.083 545.689 980.396 545.689H947.854C947.396 545.689 947.167 545.919 946.938 546.148C946.708 546.835 946.25 547.294 945.792 547.752C945.562 547.981 945.104 548.439 944.646 548.21C944.188 547.981 944.188 547.294 944.417 546.835C944.417 546.606 944.646 546.606 944.646 546.377C945.104 545.46 945.104 545.46 944.188 545.46H935.25C934.792 545.689 934.792 545.689 934.792 546.148C935.021 547.064 935.25 548.21 935.25 549.127C935.25 550.273 935.25 550.273 936.396 550.273H982.458C982.917 550.273 983.146 550.044 982.917 549.585C982.229 548.669 982 547.752 981.771 546.835ZM956.333 529.648C955.875 529.648 955.417 530.335 955.417 530.564C954.958 532.398 954.5 532.627 953.583 534.46C953.583 534.689 953.354 534.919 953.354 535.148C953.125 535.835 953.125 536.064 953.812 536.064C954.5 536.064 955.188 536.294 955.875 536.294H973.292C973.521 536.294 973.979 536.523 973.979 535.835C973.979 534.231 974.208 530.794 973.979 529.877C973.75 529.419 973.75 529.189 973.292 529.189C971.229 529.189 965.5 529.189 963.438 529.189C962.979 529.189 962.75 529.419 962.75 529.877C962.75 530.564 962.75 531.023 962.75 531.71C962.75 532.398 962.75 532.169 962.75 533.314C962.75 533.773 960.688 533.773 960 533.773C959.312 533.773 959.083 533.544 959.083 533.085C958.396 531.252 958.625 531.71 957.708 530.106C957.25 530.106 956.792 529.648 956.333 529.648ZM954.042 538.814C953.583 538.814 953.354 538.814 953.583 539.273C953.583 540.648 953.583 540.419 953.354 541.794C953.125 543.169 953.125 543.398 954.5 543.398H974.438C975.354 543.398 975.125 542.481 975.125 542.481C975.125 542.481 975.125 541.564 974.896 540.419C974.438 539.044 974.438 539.044 973.292 539.044H954.042V538.814ZM972.833 521.627C972.833 520.71 972.375 520.481 971.688 520.481C970.542 520.481 969.396 520.481 968.25 520.481C967.104 520.481 965.958 520.481 964.583 520.481C963.667 520.481 963.438 520.71 963.208 521.856C963.208 522.544 963.208 523.231 962.75 523.689C962.063 524.377 962.063 525.064 962.521 525.752C963.208 527.127 963.667 527.127 964.354 527.127C966.417 527.356 968.708 527.356 970.771 527.356C972.375 527.356 972.833 526.439 973.292 526.21C973.979 525.294 973.979 524.606 973.521 523.689C973.062 523.002 972.604 522.314 972.833 521.627ZM972.146 518.189C973.979 518.189 973.979 518.189 973.292 516.585C971.688 513.377 970.083 510.398 968.479 507.189C968.479 506.96 968.25 506.731 968.021 506.731C966.188 510.627 964.354 514.294 962.292 517.96C962.979 518.189 963.438 518.189 964.125 518.189C966.875 518.189 969.396 518.189 972.146 518.189ZM937.083 542.71C936.854 543.169 937.083 543.398 937.313 543.398C938.458 543.398 939.375 543.398 940.521 543.398C941.438 543.398 942.354 543.398 943.5 543.398C944.188 543.398 944.188 543.398 943.958 542.481C943.5 541.335 943.042 540.189 942.583 539.044C942.354 538.356 942.125 537.898 941.667 537.21C940.979 536.294 939.833 536.294 939.375 537.439C938.458 539.044 937.771 540.877 937.083 542.71ZM928.146 557.148C928.604 557.148 929.292 557.148 929.979 557.148C930.208 557.148 930.438 556.919 930.208 556.689C929.75 555.544 929.292 554.169 928.375 553.023C927.917 552.335 927.229 552.564 926.771 553.252C926.312 554.398 925.854 555.544 925.625 556.46C925.625 556.689 925.625 556.919 926.083 557.148C926.771 557.148 927.229 557.148 928.146 557.148ZM949.688 543.398C949.917 543.398 950.146 543.398 950.375 543.398C950.833 543.398 950.833 543.169 950.833 542.481C950.375 540.648 950.146 538.814 949.688 537.21C949.688 536.981 949.688 536.752 949.458 536.752C949.229 536.752 949.229 536.981 949.229 537.21C949 538.585 948.771 540.189 948.771 541.564C948.542 543.398 948.542 543.398 949.688 543.398ZM985.438 550.273C986.125 550.273 986.812 550.502 987.5 550.273C987.958 550.273 988.417 550.273 988.875 550.273C989.792 550.273 989.792 550.273 989.563 549.356C989.563 548.898 989.333 548.669 989.333 548.21C989.104 547.752 987.958 542.71 987.729 541.564C987.729 541.335 987.729 541.106 987.5 541.106C987.271 541.106 987.271 541.335 987.271 541.564C987.042 542.481 985.438 548.669 985.208 549.585C984.979 550.044 985.208 550.044 985.438 550.273ZM978.562 543.398C978.792 543.398 979.25 543.398 979.479 543.398C979.938 543.398 980.167 543.169 980.396 542.71C980.625 542.023 980.625 541.335 980.396 540.648C980.167 540.189 979.938 539.273 979.938 539.273C979.938 539.044 978.333 534.689 978.104 534.231C978.104 534.46 976.042 540.189 975.812 540.189C975.583 540.419 975.812 540.877 975.812 541.106C976.5 543.398 976.5 543.398 978.562 543.398ZM969.167 503.981C969.167 503.523 969.167 503.064 969.167 502.606C968.938 501.919 968.708 502.377 968.479 502.377C968.021 502.606 967.333 503.064 966.875 503.294V503.523C967.333 503.752 968.021 504.21 968.479 504.439C968.708 504.439 968.938 504.439 969.167 503.981ZM927.917 550.044C927.917 549.585 927.917 548.898 927.917 548.439C927.917 547.981 927.458 547.981 927.458 547.981C926.771 548.21 926.312 548.439 925.625 548.669V548.898C926.083 549.127 926.771 549.585 927.229 549.814C927.458 550.273 927.688 550.502 927.917 550.044ZM941.667 534.002C941.667 533.544 941.667 532.856 941.667 532.398C941.667 531.939 941.438 532.169 941.208 532.169C940.521 532.398 940.062 532.627 939.375 532.856V533.085C939.833 533.314 940.521 533.773 940.979 534.002C941.208 534.231 941.438 534.46 941.667 534.002ZM957.25 525.064C956.562 525.294 956.104 525.523 955.417 525.752V525.981C955.875 526.21 956.563 526.669 957.021 526.898C957.25 526.898 957.479 527.127 957.708 526.669C957.708 526.21 957.708 525.523 957.708 525.064H957.25ZM987.5 538.585C987.5 538.127 987.5 537.439 987.5 536.981C987.5 536.523 987.271 536.752 987.042 536.752C986.354 536.981 985.896 537.21 985.208 537.439V537.669C985.667 537.898 986.354 538.356 986.813 538.585C987.042 538.814 987.271 539.044 987.5 538.585ZM977.646 531.71C977.875 531.71 978.104 531.939 978.333 531.481C978.333 531.023 978.333 530.335 978.333 529.877C978.333 529.419 978.104 529.648 977.875 529.648C977.188 529.877 976.729 530.106 976.042 530.335V530.564C976.5 531.252 977.188 531.481 977.646 531.71ZM998.271 563.794C999.188 563.794 999.188 563.564 998.729 562.877C998.271 561.96 997.583 561.273 997.125 560.585C996.667 559.898 995.979 559.439 995.062 559.439C992.771 559.439 990.25 559.439 987.958 559.439C978.104 559.439 949.688 559.439 944.875 559.439C937.771 559.439 931.583 559.439 924.479 559.439C924.25 559.439 923.792 559.439 923.563 559.898C922.875 561.044 921.958 561.96 921.271 563.106C920.812 563.794 920.813 563.794 921.729 563.794C924.021 564.023 925.625 564.023 927.917 564.023C935.938 564.023 946.479 564.023 954.729 564.023C956.563 562.648 958.625 561.731 961.146 561.731C963.667 561.731 965.729 562.648 967.562 564.023H993.458C995.062 564.023 996.438 564.023 998.271 563.794ZM997.583 570.21C997.354 569.294 997.125 567.919 997.125 567.002C997.125 566.314 996.896 566.314 996.438 566.314H969.625C970.542 567.689 971 569.294 971.229 570.898H996.896C997.583 570.898 997.813 570.669 997.583 570.21ZM922.875 567.002C922.875 567.919 922.417 569.294 922.417 570.21C922.417 570.898 922.417 570.898 923.104 570.898H951.292C951.521 569.294 951.979 567.689 952.896 566.314H923.563C922.875 566.314 922.646 566.314 922.875 567.002ZM998.5 573.877C998.5 573.419 998.271 573.189 997.812 573.189H971.458V577.773H998.271C998.958 577.773 998.958 577.544 998.729 577.085C998.729 576.169 998.5 574.794 998.5 573.877ZM921.5 573.877C921.271 574.794 921.271 576.169 921.042 577.085C921.042 577.544 921.042 577.773 921.5 577.773H950.833V573.189H922.188C921.729 573.189 921.5 573.419 921.5 573.877Z" fill="white"/>
</svg>
