<svg xmlns="http://www.w3.org/2000/svg" width="113" height="47" viewBox="0 0 113 47" fill="none">
  <path d="M96.6801 20.5076C94.3364 20.5076 92.5785 20.5076 90.5278 20.5076C89.9418 20.5076 89.0629 22.5584 89.9418 22.5584C91.0176 22.5584 91.6293 22.5467 93.4574 22.5584C93.6801 22.5608 94.6293 22.5584 94.6293 23.7303C94.6293 24.3983 94.3364 25.1952 92.8715 25.1952C91.9926 25.1952 91.4067 25.1952 88.7699 25.1952C87.891 25.1952 87.3051 27.5389 87.3051 28.4178C87.3051 29.0038 87.5981 29.0038 87.891 29.0038C88.4957 29.0038 92.8762 27.4428 93.7504 27.5389C94.4465 27.6163 94.9223 28.1811 94.9223 29.0038C94.9223 30.4686 90.0098 32.803 87.0121 32.803C85.8402 32.803 83.7895 31.9756 83.7895 29.5897C83.7895 27.8319 84.9613 25.4881 84.9613 24.9022C84.9613 24.3162 84.6684 24.3162 84.6684 23.7303C84.6684 23.1444 84.9613 22.5584 86.1332 22.5584C86.4262 22.5584 86.7192 21.6795 87.0121 20.2147C87.127 19.6358 86.4262 19.9217 85.2543 19.3358C84.1996 18.8084 84.3848 17.7959 84.9613 17.5334C85.5895 17.2498 91.7043 17.1139 95.0653 16.9311C95.8973 16.8865 96.8254 16.9006 97.559 19.3358C97.7442 19.9522 97.2661 20.5076 96.6801 20.5076Z" fill="white" fill-opacity="0.3"/>
  <path d="M78.8087 32.5194C76.9103 32.5194 75.5861 29.2968 74.4142 26.0741C73.6525 23.9765 73.5353 23.4374 73.2423 23.4374C72.9493 23.4374 72.6564 24.6093 72.6564 26.6601C72.6564 32.2265 71.7775 32.8124 70.8986 32.8124C69.7267 32.8124 69.4337 30.7124 69.4337 29.2968C69.4337 21.6796 71.7775 18.1639 72.6564 18.1639C73.0853 18.1639 73.6525 18.3608 74.1212 19.0429C77.3439 23.7304 78.2228 28.1249 78.8087 28.1249C79.1017 28.1249 79.3947 27.246 79.3947 26.0741C79.3947 20.8007 78.2228 18.7499 77.6369 16.1132C77.4962 15.478 77.9744 15.1546 78.5158 15.5272C79.9197 16.4929 82.6173 19.3358 82.6173 24.9022C82.6173 30.4687 80.5947 32.5194 78.8087 32.5194Z" fill="white" fill-opacity="0.3"/>
  <path d="M67.9691 19.3357C67.9691 20.2146 67.3832 20.8005 66.2113 20.8005C64.4535 20.8005 62.9886 20.2146 60.3519 20.2146C55.6644 20.2146 55.6644 20.8005 55.6644 21.3865C55.6644 22.2677 60.3519 21.9724 63.2816 22.5584C66.2113 23.1443 68.2621 24.0232 68.2621 27.2459C68.2293 29.3506 67.0902 32.8123 60.9379 32.8123C56.5433 32.8123 53.0277 30.7615 53.0277 28.1248C53.0277 27.2131 53.3206 25.1951 56.8363 25.1951C59.473 25.1951 63.8675 26.367 63.8675 27.2459C63.8675 28.1248 62.7589 28.7107 60.9379 28.7107C58.5941 28.7107 57.1293 26.9529 55.3714 26.9529C54.7855 26.9529 54.4925 27.2459 54.4925 27.8318C54.4925 29.5896 58.8871 30.1756 60.9379 30.1756C62.8152 30.1756 65.6254 29.5896 65.6254 27.5388C65.6254 26.367 64.7465 25.1951 59.766 24.6091C58.5543 24.4662 53.0277 24.6091 53.0277 21.3865C53.0277 18.7498 55.4183 16.9919 60.9379 16.9919C66.4574 16.9919 67.9691 18.1638 67.9691 19.3357Z" fill="white" fill-opacity="0.3"/>
  <path d="M49.8051 32.8125C49.1863 32.8125 48.5769 32.543 48.3215 32.1891C47.8785 31.6383 47.7097 31.3688 47.7543 26.6602C47.8644 23.168 48.0473 17.5781 49.5121 17.5781C50.684 17.5781 51.5629 19.043 51.5629 27.5391C51.5629 32.8125 51.2699 32.8125 49.8051 32.8125Z" fill="white" fill-opacity="0.3"/>
  <path d="M56.5428 4.39444C56.5428 4.39444 56.2499 2.35303 52.9381 2.35303C46.8749 2.35303 44.5311 7.03116 44.5311 8.49601C44.5311 10.8398 45.41 11.4257 45.703 12.0116C45.9959 12.5976 45.703 13.1835 45.703 13.7695C45.703 14.3554 45.9959 14.6484 46.5819 14.6484C47.1678 14.6484 47.2405 14.1351 47.4608 13.7695C47.6811 13.4038 48.0467 13.1835 48.0467 13.1835C48.0467 13.1835 48.6327 14.0624 52.1483 14.0624C56.3717 14.0624 60.9374 10.371 60.9374 7.6171C60.9374 3.8085 56.5616 4.4085 56.5428 4.39444ZM46.8749 10.2538C46.5819 9.66789 47.1678 5.56632 51.8553 5.27335C50.3905 6.15225 48.6327 7.32413 46.8749 10.2538ZM49.1038 11.3437C50.6835 7.91007 54.1944 6.04678 55.7835 6.04678C57.1264 6.04678 57.7124 6.73819 57.7124 7.6171C57.7147 9.37492 53.6131 12.5976 49.1038 11.3437Z" fill="white" fill-opacity="0.3"/>
  <path d="M109.57 18.1644C106.348 18.1644 102.246 23.4379 100.488 27.8324C99.3164 26.0746 100.195 23.7309 101.074 22.266C101.766 21.1129 103.711 19.0433 103.711 17.5785C103.711 17.2855 103.711 16.6996 103.125 16.6996C102.539 16.6996 102.014 17.0465 101.227 17.8715C98.1445 21.0941 96.3867 24.1855 96.3867 26.6605C96.3867 30.1762 97.8515 31.0551 99.0234 31.641C97.8515 34.5707 96.6797 40.1371 96.6797 43.9457C96.6797 45.1176 97.8515 46.8754 99.9023 46.8754C100.866 46.8754 101.074 46.5825 101.074 45.4106C101.074 38.0863 102.832 32.8129 102.832 32.8129C105.469 32.8129 112.5 30.4481 112.5 22.266C112.5 19.1137 111.035 18.1644 109.57 18.1644ZM107.932 27.3777C107.388 27.877 105.762 29.0043 104.297 29.2973C104.883 27.2465 106.641 24.3168 108.398 22.266C109.477 21.0074 109.877 21.0941 110.156 21.0941C110.634 21.0941 110.752 21.6801 110.752 21.973C110.752 24.6098 108.783 26.5973 107.932 27.3777Z" fill="white" fill-opacity="0.3"/>
  <path d="M9.96096 0C3.22266 0 0 1.41563 0 3.22266C0 4.08985 0.585939 5.56642 2.92969 5.56642C2.92969 5.56642 4.10157 5.56642 4.10157 4.68751C4.10157 4.10157 3.45235 4.10157 2.92969 4.10157C2.34375 4.10157 2.34375 3.8086 2.34375 3.8086C2.34375 3.22266 3.51563 2.63672 9.96096 2.63672C24.3165 2.63672 40.7227 15.2719 40.7227 23.7305C40.7227 31.3477 31.8774 31.9337 28.418 31.9337C24.9024 31.9337 21.9727 31.3477 21.9727 31.3477C21.9727 31.3477 21.9727 23.9485 21.9727 21.0938C29.004 21.0938 32.4399 22.0899 32.4399 23.4961C32.4399 24.9024 30.4688 24.3165 30.4688 24.9024C30.4688 25.4883 31.7063 25.8469 32.5196 25.7813C33.3329 25.7157 35.1563 25.4368 35.1563 23.1446C35.1563 20.8008 33.3985 17.2852 21.9727 17.2852C21.9727 17.2852 21.9727 13.7696 21.9727 13.1836C21.9727 12.5977 21.6797 9.37502 19.9219 9.37502C18.1641 9.37502 17.8711 12.3914 17.8711 13.1836C17.8711 15.2344 17.8453 17.2852 17.8453 17.2852C13.7696 17.5782 7.03126 19.043 7.03126 23.4375C7.03126 27.5391 13.1836 30.7618 17.8711 33.1055C17.8711 34.5704 17.8711 34.5704 17.8711 35.4493C17.8711 36.3282 18.4571 37.5001 19.9219 37.5001C21.6797 37.5001 21.9727 36.0352 21.9727 34.2774C21.9727 34.2774 24.9024 35.1563 28.711 35.1563C41.8946 35.1563 45.7032 28.418 45.7032 23.4375C45.7032 12.3047 29.5899 0 9.96096 0ZM17.8711 29.8829C17.8711 29.8829 8.78908 26.0743 8.78908 23.4375C8.78908 21.0938 15.8203 21.0938 17.8711 21.0938V29.8829Z" fill="white" fill-opacity="0.3"/>
</svg>