<svg xmlns="http://www.w3.org/2000/svg" width="125" height="50" viewBox="0 0 125 50" fill="none">
  <path d="M0 0H125V50H0V0ZM105.783 11.57V3.87H84.355L80.83 29.595L77.3425 3.87H69.615L70.48 10.735C69.5875 8.9775 66.425 3.87 59.4625 3.87C59.4175 3.8675 51.725 3.87 51.725 3.87L51.695 41.3675L46.0625 3.87L35.9425 3.865L30.115 42.7175L30.1175 3.8725H20.435L16.9425 25.695L13.5425 3.8725H3.855V46.11H11.485V25.75L14.955 46.1075H19.01L22.4325 25.75V46.1075H37.14L38.0325 39.6075H43.955L44.845 46.1075L59.285 46.1175H59.2975V46.1075H59.3075H59.3175V32.3975L61.0875 32.14L64.7525 46.1175H64.7625H72.2125H72.2225L72.22 46.1075H72.2325H72.2425L67.4325 29.725C69.87 27.9225 72.6225 23.345 71.89 18.965V18.9625C71.8975 19.0225 76.43 46.135 76.43 46.135L85.3125 46.1075L91.3825 7.8225V46.1075H105.787V38.51H98.95V28.8225H105.787V21.11H98.95V11.5675L105.783 11.57ZM38.9325 32.91L41.0275 14.8525L43.2025 32.91H38.9325ZM61.11 24.5725C60.5225 24.8575 59.91 25 59.315 25V11.4125C59.325 11.4125 59.3375 11.41 59.3525 11.41C59.95 11.4075 64.405 11.59 64.405 18.1325C64.4025 21.5525 62.8875 23.71 61.11 24.5725ZM121.155 38.505H114.67V3.8625H107.105V46.1H121.158L121.155 38.505Z" fill="white" fill-opacity="0.3"/>
</svg>