<svg xmlns="http://www.w3.org/2000/svg" width="103" height="23" viewBox="0 0 103 23" fill="none">
  <path fill-rule="evenodd" clip-rule="evenodd" d="M45.5368 16.9245C44.0189 15.1887 42.7179 13.4528 41.8505 12.5849C40.7663 13.8868 38.1642 18.0094 37.08 20.1792C37.7305 20.3962 38.5979 20.3962 39.2484 20.3962L39.4653 21.9151H39.0316C38.5979 21.9151 35.9958 21.6981 34.4779 21.6981C33.1768 21.6981 31.8758 21.6981 30.7916 21.9151L31.2253 20.3962C31.8758 20.3962 32.5263 20.1792 33.1768 19.9623C34.4779 19.0943 39.4653 12.5849 40.7663 10.8491C39.6821 9.54717 38.3811 7.81132 37.08 6.07547C35.7789 4.33962 34.4779 2.82075 33.8274 2.16981C33.1768 1.95283 32.5263 1.95283 31.8758 1.73585L31.4421 0.216982C32.96 0.433963 34.9116 0.433964 36.4295 0.433964C38.1642 0.433964 40.1158 0.433963 41.8505 0.216982L41.4168 1.73585C40.7663 1.73585 39.8989 1.95283 39.2484 1.95283C40.1158 3.25472 42.2842 6.29245 43.1516 7.59434C44.2358 6.29245 46.1874 3.4717 47.0547 1.95283H46.6211C46.1874 1.95283 45.7537 1.73585 45.32 1.73585L45.1032 0.216982C46.6211 0.433963 48.1389 0.433964 49.6568 0.433964C50.7411 0.433964 52.0421 0.433963 53.1263 0.216982L52.9095 1.73585C52.2589 1.95283 51.6084 1.95283 50.7411 2.16981V2.38679C49.6568 3.25472 48.7895 4.33962 47.9221 5.42453C46.6211 6.9434 45.1032 8.46227 44.6695 9.33019C47.9221 13.6698 50.9579 18.2264 54.4274 22.566L52.0421 23C49.44 21.2642 47.4884 19.0943 45.5368 16.9245ZM83.701 8.89623V10.6321C83.701 13.4528 83.701 18.4434 83.4842 19.9623C82.4 20.1792 81.5326 20.1792 80.4484 20.3962L80.2316 21.9151C82.1832 21.6981 84.1347 21.6981 85.8695 21.6981C87.6042 21.6981 89.5558 21.6981 91.5074 21.9151L91.2905 20.3962C90.2063 20.3962 89.3389 20.1792 88.2547 19.9623C88.2547 18.2264 88.0379 14.3208 88.0379 12.5849V12.1509C88.6884 12.1509 89.3389 12.1509 90.2063 11.934C92.1579 14.1038 98.2295 21.2642 100.398 22.1321L103 21.6981C100.398 18.8774 96.7116 13.6698 94.5432 10.1981C96.7116 8.89623 98.88 6.50943 98.88 4.5566C98.88 2.82076 97.7958 1.51887 96.0611 0.867924C93.8926 -8.4065e-07 90.2063 0 87.3874 0H80.2316L80.4484 1.51887C81.5326 1.51887 82.6168 1.73585 83.4842 1.73585C83.701 3.4717 83.701 8.0283 83.701 8.89623ZM88.0379 10.6321V10.1981C88.0379 8.24528 88.0379 3.90566 88.2547 2.16981C92.8084 2.38679 94.1095 4.33962 94.1095 5.85849C94.1095 8.46227 92.1579 9.76415 91.0737 10.1981C89.9895 10.4151 88.9053 10.6321 88.0379 10.6321ZM68.9558 20.3962L68.5221 21.9151C70.2568 21.6981 72.2084 21.6981 73.9432 21.6981C75.6779 21.6981 77.8463 21.6981 79.581 21.9151L79.3642 20.3962C78.4968 20.1792 77.6295 20.1792 76.7621 19.9623C75.461 17.3585 73.7263 12.5849 72.8589 10.4151C71.7747 7.59434 70.4737 3.68868 69.8232 1.95283C70.4737 1.73585 71.1242 1.73585 71.7747 1.73585L71.9916 0.216982C70.04 0.433963 68.0884 0.433964 66.1368 0.433964C64.6189 0.433964 63.1011 0.433963 61.5832 0.216982V1.73585C62.2337 1.73585 63.1011 1.95283 63.7516 1.95283C62.6674 4.77358 57.8968 17.5755 56.8126 19.9623C55.9453 20.1792 55.0779 20.1792 54.2105 20.3962L54.4274 21.9151C55.7284 21.6981 57.0295 21.6981 58.3305 21.6981C60.0653 21.6981 61.8 21.6981 63.5347 21.9151L63.3179 20.3962C62.4505 20.3962 61.8 20.1792 60.9326 19.9623C61.3663 17.7925 62.4505 13.6698 62.8842 12.5849C64.1853 12.3679 67.6547 12.3679 68.9558 12.1509C70.04 14.7547 70.9074 17.3585 71.7747 19.9623C70.6905 20.1792 69.8232 20.3962 68.9558 20.3962ZM68.3053 10.4151H63.3179C63.7516 9.11321 65.0526 5.85849 65.92 3.4717C66.5705 5.42453 67.6547 8.67925 68.3053 10.4151ZM25.3705 11.066V9.33019C25.3705 6.07547 25.3705 3.25472 25.3705 2.16981C26.4547 1.95283 27.3221 1.95283 28.4063 1.73585L28.84 0.216982C27.1053 0.433963 25.3705 0.433964 23.8526 0.433964C21.9011 0.433964 19.5158 0.433963 17.5642 0.216982L17.9979 1.73585C19.0821 1.73585 19.9495 1.95283 21.0337 2.16981C21.0337 3.68868 21.2505 8.24528 21.2505 9.11321V10.8491C21.2505 13.4528 21.2505 18.2264 21.0337 19.9623C19.9495 20.1792 19.0821 20.1792 17.9979 20.3962L17.3474 21.9151C19.0821 21.9151 20.8168 21.6981 22.3347 21.6981C24.2863 21.6981 26.6716 21.6981 28.6232 21.9151L28.1895 20.3962C27.1053 20.3962 26.2379 20.1792 25.1537 19.9623C25.3705 18.8774 25.3705 14.5377 25.3705 11.066ZM7.80632 10.4151V9.11321C7.80632 6.9434 7.80632 3.4717 7.80632 1.95283C8.89053 1.95283 10.1916 2.16981 11.0589 2.60378C12.36 3.25472 13.2274 4.5566 13.2274 6.29245C13.2274 9.54717 11.2758 11.066 8.67368 11.717V13.2358C13.0105 12.5849 17.9979 10.4151 17.9979 5.20755C17.9979 4.33962 17.5642 2.38679 14.9621 1.30189C13.4442 0.650944 10.6253 0.433964 7.58947 0.433964H0.433684L0.650526 1.95283C1.73474 1.95283 2.81895 2.16981 3.68632 2.38679C3.46947 3.4717 3.46947 8.24528 3.46947 8.89623V9.98113C3.46947 12.5849 3.46947 18.0094 3.25263 19.7453C2.16842 19.9623 1.30105 19.9623 0.216842 20.1792L0 21.9151C1.95158 21.6981 3.90316 21.6981 5.85474 21.6981C7.80632 21.6981 9.97474 21.6981 11.9263 21.9151L11.4926 20.3962C10.1916 20.1792 9.10737 20.1792 7.80632 19.9623C7.80632 18.4434 7.80632 12.5849 7.80632 10.4151Z" fill="white" fill-opacity="0.3"/>
</svg>