<svg xmlns="http://www.w3.org/2000/svg" width="100" height="50" viewBox="0 0 100 50" fill="none">
  <path d="M15.8713 2.0732e-05C13.0435 2.0732e-05 10.8696 2.17393 10.8696 5.2225C10.8696 6.52176 11.3026 6.95484 11.5234 7.39641C12.1263 8.49186 14.9117 13.0435 14.9117 13.0435C15.056 13.2558 15.0815 13.4086 15.124 13.6974C15.3448 14.5635 14.6909 15.2174 13.8247 15.2174H0V21.7391H19.1321C21.9599 21.7391 24.3461 19.5652 24.3461 16.5167C24.3461 15.2174 23.913 14.7843 23.7008 14.3428L20.0747 8.69567C19.9474 8.53432 19.854 8.26258 19.854 8.0418C19.854 7.17563 20.5078 6.52176 21.374 6.52176H30.4348V21.7391H39.1304V6.52176H47.8261V2.0732e-05H15.8713ZM52.8278 2.0732e-05L45.822 21.7391H52.8278L54.3478 17.3913H61.2007L62.7123 21.7391H69.5652L62.3216 2.0732e-05H52.8278ZM71.7391 2.0732e-05V21.7391H78.2608V14.9796C79.6875 16.3383 83.0842 19.5653 84.7826 21.0853C84.9949 21.3061 85.6488 21.7391 86.5149 21.7391H100V15.2174H90.4297C89.9372 15.2174 89.589 15.073 89.3003 14.8692C89.1559 14.7334 89.0625 14.6484 88.9521 14.5465C91.6101 13.3577 93.4783 10.6997 93.4783 7.60869C93.4783 3.42222 90.056 0 85.8696 0L71.7391 2.0732e-05ZM78.2608 6.52176H84.7826C85.3855 6.52176 85.8695 7.0058 85.8695 7.60871C85.8695 8.21163 85.3855 8.69567 84.7826 8.69567H78.2608V6.52176ZM57.7531 7.39641L59.9439 13.0435H55.8679L57.7531 7.39641ZM0.866173 28.2609L8.11821 50H13.2643L16.678 40.107L20.1002 50H25.2123L32.4643 28.2609H23.9131L21.8071 34.5703L19.7096 28.2609H12.1773L9.88454 34.6467L7.75309 28.2609H0.866173ZM37.6104 28.2609L30.6046 50H37.6104L39.1304 45.6522H45.9833L47.4949 50H54.3478L47.1042 28.2609H37.6104ZM56.5217 28.2609V50H63.0435V43.232C64.4701 44.5822 67.8753 47.8261 69.5652 49.3461C69.786 49.5669 70.4399 50 71.306 50H91.5166C94.3444 50 96.7391 48.0384 96.7391 44.7775C96.7391 43.4783 96.306 43.0452 96.0852 42.6036L92.4592 37.1688C92.3913 37.0245 92.2469 36.7442 92.2469 36.5235C92.2469 35.6573 92.8923 34.7826 93.5462 34.7826H100V28.2609H87.6104C84.7826 28.2609 82.3964 30.6556 82.3964 33.6957C82.3964 35.0034 82.821 35.4365 83.0418 35.8696C83.6532 36.7018 86.9565 41.3044 86.9565 41.3044C87.0499 41.5252 87.1688 41.7375 87.1688 41.9582C87.1688 42.8244 86.5234 43.4783 85.8695 43.4783H75.2123C74.8387 43.4783 74.5499 43.3849 74.3037 43.2575C74.1168 43.0537 73.964 42.8923 73.8366 42.7565C76.4351 41.5422 78.2609 38.9182 78.2609 35.8696C78.2609 31.6831 74.8387 28.2609 70.6522 28.2609L56.5217 28.2609ZM63.0435 34.7826H69.5652C70.1681 34.7826 70.6522 35.2667 70.6522 35.8696C70.6522 36.4725 70.1681 36.9565 69.5652 36.9565H63.0435V34.7826ZM42.5357 35.6573L44.7266 41.3043H40.6505L42.5357 35.6573Z" fill="white" fill-opacity="0.3"/>
</svg>