<svg xmlns="http://www.w3.org/2000/svg" width="103" height="56" viewBox="0 0 103 56" fill="none">
  <path d="M46.7595 37.9485C46.8153 37.9571 46.8281 37.9571 46.8839 37.9657C47.811 38.0902 48.7251 38.2577 49.4204 38.5712C50.0685 38.8589 50.4462 39.2196 50.7938 39.8638C51.3217 40.8429 51.356 42.2085 50.8797 43.2477C50.5234 44.0206 49.7466 44.6648 49.0341 45.0083C48.2959 45.3691 47.5663 45.5365 46.7294 45.6353C45.2702 45.7942 43.6908 45.4936 42.3732 44.858C41.5964 44.4758 40.6436 43.8231 40.1672 42.9814C39.8152 42.3631 39.8281 41.56 40.253 40.9717C40.9354 40.0356 42.3989 39.8294 43.5019 39.8681C44.3431 39.9024 45.8539 40.1601 46.6522 40.4435C46.8753 40.5251 47.6908 40.8429 47.8324 40.9889C47.9311 41.092 47.9955 41.238 47.9526 41.3754C47.7723 41.9336 46.4161 42.2256 46.0256 42.2858C44.9783 42.4446 44.4333 42.0496 43.2444 41.5772C42.9483 41.4613 42.5534 41.3324 42.253 41.3067C41.7122 41.2551 41.0599 41.4054 40.9569 41.998C40.9054 42.3029 41.2616 42.5864 41.5363 42.7066C42.1758 42.9814 42.6951 43.0802 43.3217 43.0888C45.1801 43.1189 47.2659 42.814 48.7852 41.7361C48.9912 41.5858 49.1972 41.3711 49.2015 41.0962C49.2101 40.5423 48.2402 40.203 48.2402 40.203C47.2187 39.7779 45.326 39.5675 44.3517 39.4902C43.3303 39.4 41.7208 39.2712 41.3346 39.2111C40.9354 39.1552 40.5062 39.0736 40.1586 38.919C39.8109 38.7645 39.4762 38.4123 39.3732 38.0258C39.1972 37.3259 39.4204 36.4713 39.8109 35.9131C40.8281 34.453 43.2058 33.899 44.9783 33.68C46.6994 33.4653 49.4762 33.4696 51.1672 34.3671C51.429 34.5088 51.5621 34.6376 51.5063 34.9168C51.3947 35.4407 51.0041 35.7756 50.5277 35.9259C50.0256 36.0848 48.9912 36.1492 48.5406 36.175C46.5062 36.2909 44.0427 36.2308 42.1071 36.759C41.9569 36.802 41.6908 36.875 41.6092 36.9694C41.3045 37.3001 42.1715 37.3946 42.3603 37.4289C42.4161 37.4418 42.4247 37.4461 42.4848 37.4504L46.7595 37.9485ZM34.6478 28.8661C34.6478 28.8661 34.9783 28.368 35.2573 27.9901C35.7637 27.303 36.6779 26.3497 37.3646 25.7614C37.5749 25.581 37.8238 25.3792 37.8238 25.3792C37.8238 25.3792 37.4333 25.4178 37.2144 25.4651C36.6908 25.5681 35.9268 26.0749 35.5448 26.4055C34.9139 26.9466 34.2186 27.8269 34.532 28.6085C34.5749 28.7201 34.6478 28.8661 34.6478 28.8661ZM38.1586 29.8066C39.1543 29.7379 40.0899 29.4502 40.9612 28.9692C41.8152 28.4925 43.0685 27.5607 42.9397 26.4656C42.9011 26.1092 42.6693 25.843 42.3775 25.7184C41.9955 25.5553 41.7981 25.581 41.3131 25.7227C40.9612 25.8258 40.8024 25.8902 40.4676 26.0792C39.4891 26.6503 38.1028 27.8656 37.3474 28.8361C37.1714 29.0637 36.9955 29.3213 36.8581 29.4974C36.7723 29.6048 36.7036 29.7035 36.7122 29.7336C36.738 29.8452 37.768 29.8324 38.1586 29.8066ZM35.6178 31.6746C35.5148 31.782 35.4075 32.0482 35.2916 32.2371C35.2315 32.3402 35.1199 32.469 35.047 32.5206C34.7852 32.7095 34.5663 32.7224 34.3174 32.4991C33.9654 32.1899 33.7637 31.7047 33.7465 31.2366C33.738 31.0305 33.7723 30.8072 33.7337 30.6354C33.6693 30.3434 33.3774 30.0471 33.2229 29.7679C33.0384 29.4416 32.8882 28.8704 32.871 28.5011C32.8066 27.3503 33.4118 26.2939 34.2015 25.4565C34.9955 24.6105 36.0298 23.9105 37.1586 23.4339C38.223 22.983 39.7852 22.6781 40.9569 23.086C41.3388 23.2149 41.8667 23.5412 42.1371 23.8805C42.1929 23.9492 42.2401 24.0265 42.2959 24.0651C42.3474 24.0995 42.4848 24.1124 42.5921 24.1296C42.9655 24.194 43.5019 24.4774 43.7208 24.6663C44.1629 25.0485 44.4032 25.4092 44.5148 25.9374C44.738 26.9981 44.1286 28.1662 43.429 28.8747C42.2358 30.0943 41.0599 30.9532 39.532 31.5501C38.8624 31.812 37.8195 32.0568 37.0599 31.9881C36.8238 31.9666 36.5792 31.9065 36.3517 31.8893C36.2358 31.8807 35.8066 31.7691 35.7594 31.739C35.7036 31.6961 35.6307 31.6574 35.6178 31.6746ZM36.9783 34.0279C37.0255 34.0365 37.0985 34.0579 37.1586 34.0794C37.6951 34.2812 37.9139 34.7794 38.047 35.3204C38.3517 36.583 38.4805 39.3785 38.532 40.4736C38.5706 41.2981 38.5878 42.1054 38.6221 42.917C38.6521 43.6041 38.7079 44.5188 38.562 45.1629C38.5105 45.3948 38.356 45.6654 38.1328 45.8028C37.8796 45.966 37.3002 45.9788 36.9826 45.9101C36.2015 45.7469 35.944 45.2445 35.8324 44.4715C35.5663 42.6207 35.695 38.9921 35.8496 37.4633C35.9011 36.9566 36.0899 35.3376 36.356 34.6591C36.4547 34.4272 36.6435 33.9634 36.9783 34.0279ZM13.1585 37.1069C13.1585 37.1069 11.9911 37.1885 11.1928 37.2786C10.1714 37.3903 8.25289 37.7209 7.14988 38.116C6.81941 38.2363 6.14559 38.5154 6.0855 38.8589C6.02541 39.2111 6.2443 39.4902 6.48894 39.7779C6.63057 39.9454 7.42885 40.7141 7.65203 40.8987C8.59195 41.6846 10.4975 42.8955 11.901 43.4796C12.3817 43.6771 13.1799 43.9648 13.1799 43.9648C13.1799 43.9648 13.1199 41.6931 13.1327 39.4558C13.1327 38.2749 13.1585 37.1069 13.1585 37.1069ZM34.5277 38.0087C34.5963 38.6184 34.4375 39.7736 34.4118 39.9239C34.3603 40.276 34.0985 41.0834 34.0556 41.1821C33.841 41.676 33.6307 42.0753 33.4075 42.479C33.0255 43.1661 32.1156 44.2568 31.5792 44.7249C29.5749 46.4598 26.4675 47.4475 23.8023 47.7738C21.9954 47.9929 19.9182 47.9585 18.004 47.6064C17.3431 47.4861 16.3645 47.2585 16.3645 47.2585C16.3645 47.2585 16.3688 47.6493 16.3345 47.9284C16.3173 48.053 16.2229 48.3879 16.1714 48.4953C16.034 48.783 15.8023 48.9333 15.4718 48.9934C15.0684 49.0664 14.6435 49.0922 14.2744 48.9333C13.6649 48.6757 13.446 48.1088 13.3387 47.4518C13.2529 46.9279 13.1628 46.0132 13.1628 46.0132C13.1628 46.0132 12.7078 45.7985 12.3259 45.6095C11.1585 45.0341 10.0512 44.3384 9.08122 43.6213C8.81083 43.4195 7.66061 42.4532 7.4031 42.2128C6.69065 41.5343 6.04687 40.8601 5.5576 39.9926C5.17563 39.3141 5.06833 38.7172 5.35588 38.0001C5.75503 36.9995 7.18422 36.248 8.16705 35.8186C8.88809 35.5008 11.1241 34.7708 12.0512 34.6334C12.489 34.5689 13.1714 34.4487 13.2143 34.4229C13.2314 34.4101 13.2443 34.3972 13.2572 34.3843C13.2744 34.3542 13.313 33.3665 13.3044 33.0058C13.2958 32.6494 13.5662 30.3133 13.6563 29.8195C13.7036 29.5532 13.9053 28.5226 14.1113 28.2521C14.2443 28.0717 14.4847 28.0846 14.6778 28.2048C15.7422 28.8661 16.0684 31.1679 16.1456 32.3359C16.1928 33.0488 16.2186 34.1223 16.2186 34.1223C16.2186 34.1223 17.4418 34.088 18.1928 34.1095C18.9225 34.1266 19.7293 34.2426 20.4847 34.3628C21.4547 34.5174 23.3474 34.9297 24.4332 35.4836C25.3259 35.9388 26.1628 36.6989 26.4332 37.5105C26.6864 38.2534 26.6478 38.7645 26.2658 39.4344C25.8366 40.1902 25.0212 40.7527 24.1929 40.7956C23.9482 40.8085 23.0212 40.6883 22.7336 40.465C22.622 40.3791 22.6263 40.2202 22.7079 40.1086C22.7379 40.0656 23.1714 39.838 23.4289 39.7006C23.5577 39.6319 23.665 39.5546 23.7637 39.4644C23.974 39.2755 24.1671 39.0693 24.1456 38.8289C24.1156 38.5154 23.7851 38.3221 23.4675 38.1976C21.9868 37.6093 19.0255 37.1197 17.5963 37.0339C17.0383 36.9995 16.24 36.9737 16.24 36.9737L16.4074 44.8709C16.4074 44.8709 17.0641 44.9955 17.5834 45.0813C17.8795 45.1286 19.1413 45.2402 19.4761 45.2488C22.0255 45.3175 24.8753 45.0856 27.2143 43.982C28.2487 43.501 29.1886 42.8998 29.9053 42.0839C30.8452 41.0061 31.3388 39.5288 31.2101 37.9829C31.0684 36.2995 29.8839 34.2984 28.9354 33.0788C26.4332 29.8624 22.1456 27.2128 18.3774 25.6626C14.5276 24.078 10.7207 23.1676 6.63486 23.0173C5.58335 22.9787 3.28292 23.0302 2.12411 23.3523C1.95673 23.3995 1.78935 23.4554 1.63913 23.4897C1.51896 23.5198 1.32583 23.6014 1.27433 23.6443C1.24428 23.6658 1.21424 23.7001 1.21424 23.7001C1.21424 23.7001 1.2872 23.7388 1.35587 23.7688C1.48033 23.8247 1.99536 23.8547 2.26575 23.902C2.50609 23.9492 2.75502 24.0737 2.85373 24.2498C2.94815 24.4173 2.96103 24.5504 2.84515 24.6878C2.58334 25.0099 1.59192 24.9541 1.15415 24.8853C0.699216 24.8123 0.136982 24.6749 0.0339777 24.2799C-0.0861944 23.8161 0.13269 23.3609 0.373035 22.9357C0.853723 22.0941 1.54042 21.656 2.54472 21.3812C3.97391 20.9861 5.7722 20.7156 7.12413 20.6641C10.1756 20.5481 13.0641 21.0806 16.0169 21.9824C17.7079 22.4934 19.9225 23.3523 21.5448 24.1338C22.7079 24.6964 24.5405 25.727 25.5705 26.4012C25.8967 26.6159 27.7937 28.0116 28.0899 28.2606C28.7036 28.7631 29.5105 29.4888 30.0942 30.0685C31.2229 31.1893 32.6264 32.9028 33.3088 34.264C33.4719 34.5904 33.6006 34.9125 33.8109 35.2904C33.8839 35.4192 34.1972 36.1922 34.2487 36.4198C34.3002 36.6431 34.3731 36.9651 34.386 36.978C34.3946 37.0897 34.5362 37.751 34.5277 38.0087ZM72.8797 36.2609C71.4505 36.5915 67.6952 36.7719 67.6952 36.7719L67.2231 38.2577C67.2231 38.2577 69.0986 38.0988 70.4677 38.2406C70.4677 38.2406 70.9098 38.189 70.9613 38.743C70.9784 39.2583 70.9183 39.8123 70.9183 39.8123C70.9183 39.8123 70.8883 40.1472 70.4162 40.2331C69.9012 40.319 66.369 40.4564 66.369 40.4564L65.7982 42.3931C65.7982 42.3931 65.5836 42.8397 66.06 42.7109C66.502 42.5907 70.2016 41.8993 70.6866 41.998C71.2016 42.1269 71.7767 42.814 71.6093 43.4452C71.4119 44.2225 67.7209 46.58 65.472 46.4169C65.472 46.4169 64.2917 46.4942 63.2917 44.8967C62.3604 43.3765 63.6436 40.495 63.6436 40.495C63.6436 40.495 63.0557 39.1509 63.4806 38.6957C63.4806 38.6957 63.7338 38.4639 64.472 38.4123L65.3776 36.54C65.3776 36.54 64.3475 36.613 63.7338 35.8529C63.163 35.1315 63.1157 34.8008 63.5535 34.6033C64.0213 34.3714 68.3175 33.5898 71.2703 33.6886C71.2703 33.6886 72.296 33.5898 73.1887 35.372C73.1802 35.3677 73.6093 36.0891 72.8797 36.2609ZM61.7638 43.4667C61.3861 44.3599 60.3861 45.3089 59.1415 44.7163C57.914 44.1237 55.9612 40.1214 55.9612 40.1214C55.9612 40.1214 55.2187 38.6313 55.0771 38.67C55.0771 38.67 54.9183 38.378 54.8196 40.0098C54.7166 41.633 54.841 44.7979 54.193 45.2961C53.5792 45.7942 52.8367 45.5967 52.4505 45.0126C52.0985 44.4372 51.9569 43.0716 52.1457 40.6711C52.3689 38.2663 52.9269 35.7069 53.6436 34.9125C54.3561 34.1223 54.9269 34.6978 55.1501 34.9039C55.1501 34.9039 56.1028 35.767 57.6737 38.305L57.9526 38.773C57.9526 38.773 59.3818 41.1693 59.5277 41.165C59.5277 41.165 59.6436 41.2766 59.7466 41.195C59.8968 41.1521 59.8368 40.3834 59.8368 40.3834C59.8368 40.3834 59.5406 37.7725 58.2359 33.3494C58.2359 33.3494 58.0385 32.7997 58.1715 32.2801C58.3046 31.7562 58.8282 32.001 58.8282 32.001C58.8282 32.001 60.8453 33.0187 61.8282 36.3038C62.8024 39.6018 62.1501 42.5692 61.7638 43.4667ZM83.4935 41.4999C82.575 43.106 79.9785 46.4641 76.5321 45.6697C75.3948 48.4309 74.4377 51.2264 73.8883 55.4091C73.8883 55.4091 73.7681 56.2207 73.0943 55.9416C72.4248 55.7054 71.3218 54.5932 71.0986 53.0558C70.8583 51.0332 71.7596 47.615 73.5965 43.6943C73.06 42.8225 72.6952 41.5772 73.0085 39.7994C73.0085 39.7994 73.472 36.5057 76.7767 33.534C76.7767 33.534 77.1716 33.1905 77.4033 33.2978C77.6566 33.4052 77.5407 34.4745 77.339 34.9984C77.1287 35.518 75.6566 38.0688 75.6566 38.0688C75.6566 38.0688 74.7381 39.7908 74.9956 41.1521C76.7295 38.481 80.6737 33.1003 83.1201 34.7965C83.9398 35.3849 84.3218 36.6646 84.3218 38.043C84.3218 39.2454 84.0343 40.5337 83.4935 41.4999ZM82.781 37.27C82.781 37.27 82.6437 36.2094 81.6094 37.3774C80.7167 38.3651 79.1072 40.2116 77.8154 42.7238C79.1759 42.5692 80.4849 41.8349 80.8798 41.457C81.5192 40.8858 83.0214 39.3356 82.781 37.27ZM102.485 37.0296H96.1674C96.0429 34.8824 95.7811 32.7868 95.3734 30.6311C95.3304 30.4078 95.1373 30.2446 94.9098 30.2446H93.4549C93.3261 30.2446 93.206 30.3004 93.1244 30.3992C93.0429 30.5023 93.0086 30.6268 93.0343 30.7556C93.4463 32.8426 93.7124 34.8953 93.8412 37.0296H87.7639C87.4806 37.0296 87.2489 37.2572 87.2489 37.5406V38.8546C87.2489 39.1381 87.4806 39.3699 87.7639 39.3699H93.9313C93.9356 39.6963 93.9399 39.984 93.9399 40.2589C93.9399 42.1526 93.8583 43.7158 93.6652 45.4764C93.648 45.6138 93.6953 45.747 93.7854 45.85C93.8755 45.9488 94.0043 46.0089 94.1373 46.0089H95.4893C95.7511 46.0089 95.9699 45.8114 96 45.5494C96.1845 43.7759 96.2618 42.1956 96.2618 40.2632C96.2618 39.9926 96.2575 39.7006 96.2532 39.3742H102.485C102.768 39.3742 103 39.1423 103 38.8589V37.5449C103 37.2615 102.768 37.0296 102.485 37.0296ZM17.9911 19.4144C17.901 19.5476 17.8795 19.7107 17.931 19.861C17.9868 20.0156 18.1027 20.1316 18.2529 20.1831L19.386 20.5653C19.4546 20.5868 19.5233 20.5997 19.5877 20.5997C19.798 20.5997 19.9954 20.4966 20.1113 20.3205C23.8238 14.8668 28.8452 10.3234 34.635 7.18862C40.6135 3.95074 47.3861 2.23732 54.2273 2.23732C62.4891 2.23732 70.4548 4.67647 77.2746 9.28853C83.927 13.7889 89.0944 20.0629 92.2146 27.4361C92.309 27.6552 92.5236 27.8012 92.7639 27.8012H94.1159C94.2704 27.8012 94.4163 27.7239 94.5064 27.5907C94.5965 27.4619 94.6137 27.2944 94.5536 27.1484C91.3347 19.2169 85.8884 12.4577 78.8068 7.60087C71.5578 2.6281 63.0557 0 54.2273 0C39.6264 0 26.0813 7.25733 17.9911 19.4144Z" fill="white"/>
</svg>