<svg width="24" height="24" viewBox="0 0 24 24" fill="none" xmlns="http://www.w3.org/2000/svg">
<path d="M17.9501 11.4666L6.70189 4.59256C6.60715 4.53466 6.49869 4.50305 6.38768 4.50096C6.27667 4.49889 6.1671 4.52642 6.07026 4.58073C5.97341 4.63505 5.89278 4.71417 5.83667 4.80999C5.78056 4.9058 5.75098 5.01482 5.75098 5.12586V18.8741C5.75098 18.9851 5.78056 19.0941 5.83667 19.19C5.89278 19.2857 5.97341 19.3649 6.07026 19.4192C6.1671 19.4735 6.27667 19.5011 6.38768 19.499C6.49869 19.4969 6.60715 19.4653 6.70189 19.4074L17.9501 12.5332C18.0414 12.4774 18.1169 12.3991 18.1693 12.3056C18.2216 12.2123 18.2491 12.1071 18.2491 12C18.2491 11.8929 18.2216 11.7876 18.1693 11.6942C18.1169 11.6009 18.0414 11.5225 17.9501 11.4666Z" stroke="#333333" stroke-width="2" stroke-linecap="round" stroke-linejoin="round"/>
</svg>
