<svg width="14" height="14" viewBox="0 0 14 14" fill="none" xmlns="http://www.w3.org/2000/svg">
<g clip-path="url(#clip0_493_9968)">
<path d="M7.27899 13.44C3.72758 13.44 0.837891 10.5514 0.837891 7C0.837891 3.44859 3.72758 0.559998 7.27899 0.559998C8.88789 0.559998 10.4279 1.15609 11.6168 2.2389L11.8334 2.43687L9.7093 4.56093L9.51243 4.3925C8.88899 3.85875 8.09602 3.56453 7.27899 3.56453C5.38461 3.56453 3.84243 5.10562 3.84243 7C3.84243 8.89437 5.38461 10.4355 7.27899 10.4355C8.64508 10.4355 9.72461 9.73765 10.2332 8.54875H6.99899V5.64922L13.3132 5.65797L13.3602 5.88C13.6895 7.44297 13.4259 9.74203 12.0915 11.387C10.9868 12.7487 9.36805 13.44 7.27899 13.44Z" fill="white"/>
</g>
<defs>
<clipPath id="clip0_493_9968">
<rect width="14" height="14" fill="white"/>
</clipPath>
</defs>
</svg>
