<svg xmlns="http://www.w3.org/2000/svg" width="30" height="30" viewBox="0 0 30 30" fill="none">
  <path d="M2.5 5C2.5 4.66848 2.6317 4.35054 2.86611 4.11611C3.10054 3.8817 3.41848 3.75 3.75 3.75H26.25C26.5815 3.75 26.8995 3.8817 27.1339 4.11611C27.3682 4.35054 27.5 4.66848 27.5 5C27.5 5.33152 27.3682 5.64946 27.1339 5.88389C26.8995 6.1183 26.5815 6.25 26.25 6.25H3.75C3.41848 6.25 3.10054 6.1183 2.86611 5.88389C2.6317 5.64946 2.5 5.33152 2.5 5ZM3.75 16.25H26.25C26.5815 16.25 26.8995 16.1182 27.1339 15.8839C27.3682 15.6495 27.5 15.3315 27.5 15C27.5 14.6685 27.3682 14.3505 27.1339 14.1161C26.8995 13.8818 26.5815 13.75 26.25 13.75H3.75C3.41848 13.75 3.10054 13.8818 2.86611 14.1161C2.6317 14.3505 2.5 14.6685 2.5 15C2.5 15.3315 2.6317 15.6495 2.86611 15.8839C3.10054 16.1182 3.41848 16.25 3.75 16.25ZM3.75 26.25H26.25C26.5815 26.25 26.8995 26.1182 27.1339 25.8839C27.3682 25.6495 27.5 25.3315 27.5 25C27.5 24.6685 27.3682 24.3505 27.1339 24.1161C26.8995 23.8818 26.5815 23.75 26.25 23.75H3.75C3.41848 23.75 3.10054 23.8818 2.86611 24.1161C2.6317 24.3505 2.5 24.6685 2.5 25C2.5 25.3315 2.6317 25.6495 2.86611 25.8839C3.10054 26.1182 3.41848 26.25 3.75 26.25Z" fill="#888888"/>
</svg>