<svg width="24" height="24" viewBox="0 0 24 24" fill="none" xmlns="http://www.w3.org/2000/svg">
<path d="M10.3333 5.33341C10.3333 5.00378 10.431 4.68155 10.6142 4.40746C10.7973 4.13338 11.0576 3.91976 11.3621 3.79361C11.6667 3.66747 12.0018 3.63446 12.3251 3.69877C12.6483 3.76308 12.9453 3.92181 13.1784 4.15491C13.4115 4.38799 13.5703 4.68496 13.6346 5.00826C13.6988 5.33156 13.6658 5.66668 13.5398 5.97122C13.4136 6.27576 13.1999 6.53606 12.9258 6.7192C12.6518 6.90233 12.3296 7.00008 11.9999 7.00008C11.5579 7.00008 11.134 6.82449 10.8214 6.51192C10.5088 6.19936 10.3333 5.77544 10.3333 5.33341ZM11.9999 13.6667C12.3296 13.6667 12.6518 13.569 12.9258 13.3858C13.1999 13.2027 13.4136 12.9424 13.5398 12.6379C13.6658 12.3333 13.6988 11.9982 13.6346 11.6749C13.5703 11.3517 13.4115 11.0547 13.1784 10.8216C12.9453 10.5885 12.6483 10.4297 12.3251 10.3654C12.0018 10.3011 11.6667 10.3342 11.3621 10.4602C11.0576 10.5864 10.7973 10.8001 10.6142 11.0742C10.431 11.3482 10.3333 11.6704 10.3333 12.0001C10.3333 12.4421 10.5088 12.866 10.8214 13.1786C11.134 13.4912 11.5579 13.6667 11.9999 13.6667ZM11.9999 20.3334C12.3296 20.3334 12.6518 20.2357 12.9258 20.0525C13.1999 19.8694 13.4136 19.6091 13.5398 19.3046C13.6658 19 13.6988 18.6649 13.6346 18.3416C13.5703 18.0183 13.4115 17.7213 13.1784 17.4882C12.9453 17.2552 12.6483 17.0964 12.3251 17.0321C12.0018 16.9678 11.6667 17.0008 11.3621 17.1269C11.0576 17.2531 10.7973 17.4667 10.6142 17.7408C10.431 18.0149 10.3333 18.3371 10.3333 18.6667C10.3333 19.1087 10.5088 19.5327 10.8214 19.8452C11.134 20.1578 11.5579 20.3334 11.9999 20.3334Z" fill="white"/>
</svg>
