<svg width="24" height="24" viewBox="0 0 24 24" fill="none" xmlns="http://www.w3.org/2000/svg">
<path d="M12.5774 20.2714L20.3938 12.3647C22.3144 10.4219 22.5977 7.22581 20.7803 5.18413C20.325 4.67124 19.7712 4.25756 19.1526 3.96833C18.5342 3.67909 17.8638 3.52036 17.1827 3.50183C16.5015 3.48331 15.8237 3.60536 15.1907 3.86055C14.5578 4.11575 13.9828 4.49872 13.501 4.98612L12.0318 6.47222L10.7634 5.18911C8.84283 3.24636 5.68323 2.95973 3.66488 4.79824C3.15786 5.25875 2.7489 5.81894 2.46298 6.44462C2.17704 7.0703 2.02013 7.74835 2.00181 8.43739C1.9835 9.12644 2.10416 9.81203 2.35643 10.4523C2.60871 11.0926 2.98731 11.6742 3.46913 12.1616L11.4862 20.2714C11.6308 20.4178 11.8272 20.5 12.0318 20.5C12.2365 20.5 12.4328 20.4178 12.5774 20.2714Z" fill="white" stroke="white" stroke-width="2" stroke-linecap="round" stroke-linejoin="round"/>
</svg>
