<svg xmlns="http://www.w3.org/2000/svg" width="19" height="19" viewBox="0 0 19 19" fill="none">
<path d="M13.0267 11.0145C13.1115 11.0837 13.1818 11.1688 13.2338 11.2652C13.2856 11.3616 13.318 11.4672 13.3291 11.5761C13.3402 11.6849 13.3297 11.7949 13.2983 11.8997C13.2668 12.0046 13.215 12.1022 13.1458 12.187C12.6793 12.8001 12.0775 13.2971 11.3872 13.6392C10.697 13.9814 9.93708 14.1594 9.16667 14.1594C8.39625 14.1594 7.63633 13.9814 6.94607 13.6392C6.25583 13.2971 5.65398 12.8001 5.1875 12.187C5.04782 12.0157 4.9819 11.796 5.00425 11.5761C5.0266 11.3562 5.13538 11.1542 5.30667 11.0145C5.47795 10.8748 5.69771 10.8089 5.9176 10.8312C6.13748 10.8536 6.33948 10.9624 6.47917 11.1337C6.78879 11.5557 7.19343 11.8988 7.66033 12.1353C8.12725 12.3718 8.64325 12.4951 9.16667 12.4951C9.69008 12.4951 10.2061 12.3718 10.673 12.1353C11.1399 11.8988 11.5445 11.5557 11.8542 11.1337C11.9233 11.0488 12.0085 10.9785 12.1048 10.9266C12.2013 10.8747 12.3068 10.8423 12.4158 10.8312C12.5246 10.8202 12.6346 10.8307 12.7394 10.8621C12.8443 10.8936 12.9418 10.9453 13.0267 11.0145ZM6.66667 9.16032C6.88768 9.16032 7.09964 9.07257 7.25593 8.91624C7.4122 8.75999 7.5 8.54799 7.5 8.32699V7.49366C7.5 7.27265 7.4122 7.06069 7.25593 6.90441C7.09964 6.74813 6.88768 6.66033 6.66667 6.66033C6.44565 6.66033 6.23369 6.74813 6.07741 6.90441C5.92113 7.06069 5.83333 7.27265 5.83333 7.49366V8.32699C5.83333 8.54799 5.92113 8.75999 6.07741 8.91624C6.23369 9.07257 6.44565 9.16032 6.66667 9.16032ZM11.6667 9.16032C11.8877 9.16032 12.0997 9.07257 12.2559 8.91624C12.4122 8.75999 12.5 8.54799 12.5 8.32699V7.49366C12.5 7.27265 12.4122 7.06069 12.2559 6.90441C12.0997 6.74813 11.8877 6.66033 11.6667 6.66033C11.4457 6.66033 11.2337 6.74813 11.0774 6.90441C10.9212 7.06069 10.8333 7.27265 10.8333 7.49366V8.32699C10.8333 8.54799 10.9212 8.75999 11.0774 8.91624C11.2337 9.07257 11.4457 9.16032 11.6667 9.16032ZM18.3333 9.16032C18.3363 10.5481 18.0241 11.9184 17.4203 13.168C16.8165 14.4175 15.9368 15.5137 14.8478 16.3737C13.7587 17.2338 12.4884 17.8354 11.133 18.1331C9.7775 18.4307 8.37208 18.4167 7.02283 18.0922C5.67354 17.7677 4.41556 17.141 3.34375 16.2594C2.27193 15.3778 1.41428 14.2644 0.835442 13.0032C0.256608 11.7418 -0.0282884 10.3656 0.00224163 8.97816C0.0327666 7.59066 0.377917 6.22828 1.01167 4.99366H0.833333C0.612317 4.99366 0.400358 4.90586 0.244075 4.74959C0.0878 4.59331 0 4.38135 0 4.16033C0 3.93931 0.0878 3.72736 0.244075 3.57107C0.400358 3.4148 0.612317 3.327 0.833333 3.327H2.10083C3.30262 1.87287 4.92378 0.824939 6.74313 0.326181C8.5625 -0.172579 10.4914 -0.0978703 12.2668 0.540114C14.042 1.17809 15.5773 2.34827 16.663 3.891C17.7488 5.43372 18.332 7.27386 18.3333 9.16032ZM4.46333 3.327H13.87C12.5396 2.24878 10.8792 1.66041 9.16667 1.66041C7.45421 1.66041 5.79373 2.24878 4.46333 3.327ZM16.6667 9.16032C16.668 7.67616 16.2264 6.22536 15.3983 4.99366H2.935C2.283 5.96726 1.86818 7.08007 1.72382 8.24291C1.57944 9.40574 1.70954 10.5862 2.10367 11.6897C2.4978 12.7932 3.14499 13.7889 3.99337 14.5972C4.84174 15.4054 5.86769 16.0036 6.98896 16.3438C8.11025 16.6841 9.29558 16.7568 10.4501 16.5563C11.6045 16.3558 12.6959 15.8876 13.6368 15.1892C14.5777 14.4908 15.3418 13.5817 15.868 12.5347C16.3942 11.4877 16.6677 10.3321 16.6667 9.16032Z" fill="white"/>
</svg>