<svg xmlns="http://www.w3.org/2000/svg" width="15" height="17" viewBox="0 0 15 17" fill="none">
  <path d="M13.1991 7.96579L1.95092 1.09171C1.85617 1.03381 1.74772 1.00219 1.6367 1.00011C1.52569 0.998034 1.41613 1.02557 1.31928 1.07988C1.22243 1.13419 1.14181 1.21332 1.08569 1.30913C1.02958 1.40494 1 1.51397 1 1.625V15.3732C1 15.4843 1.02958 15.5933 1.08569 15.6891C1.14181 15.7849 1.22243 15.864 1.31928 15.9184C1.41613 15.9726 1.52569 16.0002 1.6367 15.9981C1.74772 15.996 1.85617 15.9645 1.95092 15.9065L13.1991 9.03238C13.2904 8.97654 13.3659 8.89821 13.4183 8.80479C13.4707 8.71146 13.4982 8.60621 13.4982 8.49913C13.4982 8.39204 13.4707 8.28679 13.4183 8.19338C13.3659 8.10004 13.2904 8.02163 13.1991 7.96579Z" stroke="#333333" stroke-width="2" stroke-linecap="round" stroke-linejoin="round"/>
</svg>