<svg width="24" height="24" viewBox="0 0 24 24" fill="none" xmlns="http://www.w3.org/2000/svg">
<path d="M17.9501 11.4668L6.70189 4.59269C6.60715 4.53479 6.49869 4.50317 6.38768 4.50109C6.27667 4.49901 6.1671 4.52654 6.07026 4.58085C5.97341 4.63517 5.89278 4.71429 5.83667 4.81011C5.78056 4.90592 5.75098 5.01494 5.75098 5.12598V18.8742C5.75098 18.9853 5.78056 19.0943 5.83667 19.1901C5.89278 19.2859 5.97341 19.365 6.07026 19.4194C6.1671 19.4736 6.27667 19.5012 6.38768 19.4991C6.49869 19.497 6.60715 19.4654 6.70189 19.4075L17.9501 12.5334C18.0414 12.4775 18.1169 12.3992 18.1693 12.3058C18.2216 12.2124 18.2491 12.1072 18.2491 12.0001C18.2491 11.893 18.2216 11.7878 18.1693 11.6944C18.1169 11.601 18.0414 11.5226 17.9501 11.4668Z" stroke="#FAFAFA" stroke-width="2" stroke-linecap="round" stroke-linejoin="round"/>
</svg>
