<svg width="18" height="18" viewBox="0 0 18 18" fill="none" xmlns="http://www.w3.org/2000/svg">
<path d="M2.69857 8.82473C3.67338 6.29378 6.12813 4.5 9 4.5V3C5.48731 3 2.48917 5.195 1.29881 8.28555L2.69857 8.82473ZM9 4.5C11.8718 4.5 14.3266 6.29379 15.3013 8.82473L16.7011 8.28555C15.5107 5.19501 12.5126 3 9 3V4.5ZM15.3013 9.17527C14.3266 11.7062 11.8718 13.5 9 13.5V15C12.5126 15 15.5107 12.805 16.7011 9.71445L15.3013 9.17527ZM9 13.5C6.12813 13.5 3.67338 11.7062 2.69857 9.17527L1.29881 9.71445C2.48917 12.805 5.48731 15 9 15V13.5ZM15.3013 8.82473C15.3448 8.93738 15.3448 9.06262 15.3013 9.17527L16.7011 9.71445C16.8782 9.2547 16.8782 8.7453 16.7011 8.28555L15.3013 8.82473ZM1.29881 8.28555C1.12175 8.7453 1.12175 9.2547 1.29881 9.71445L2.69857 9.17527C2.65516 9.06262 2.65516 8.93738 2.69857 8.82473L1.29881 8.28555Z" fill="#BBBBBB"/>
<path d="M9 11.25C10.2426 11.25 11.25 10.2426 11.25 9C11.25 7.75736 10.2426 6.75 9 6.75C7.75736 6.75 6.75 7.75736 6.75 9C6.75 10.2426 7.75736 11.25 9 11.25Z" stroke="#BBBBBB" stroke-width="2" stroke-linecap="round" stroke-linejoin="round"/>
</svg>
