<svg xmlns="http://www.w3.org/2000/svg" width="18" height="18" viewBox="0 0 18 18" fill="none">
  <path d="M17.7043 16.2848L14.3054 12.8958C15.402 11.4988 15.997 9.77355 15.9948 7.99742C15.9948 6.41568 15.5258 4.86946 14.6471 3.55429C13.7683 2.23913 12.5193 1.21408 11.0579 0.608773C9.59661 0.00346823 7.98853 -0.154911 6.4372 0.15367C4.88585 0.46225 3.46085 1.22394 2.34239 2.34239C1.22394 3.46085 0.46225 4.88585 0.15367 6.4372C-0.154911 7.98853 0.00346823 9.59661 0.608773 11.0579C1.21408 12.5193 2.23913 13.7683 3.55429 14.6471C4.86946 15.5258 6.41568 15.9948 7.99742 15.9948C9.77355 15.997 11.4988 15.402 12.8958 14.3054L16.2848 17.7043C16.3777 17.798 16.4883 17.8723 16.61 17.9231C16.7319 17.9739 16.8626 18 16.9945 18C17.1265 18 17.2571 17.9739 17.379 17.9231C17.5008 17.8723 17.6113 17.798 17.7043 17.7043C17.798 17.6113 17.8723 17.5008 17.9231 17.379C17.9739 17.2571 18 17.1265 18 16.9945C18 16.8626 17.9739 16.7319 17.9231 16.61C17.8723 16.4883 17.798 16.3777 17.7043 16.2848ZM1.99936 7.99742C1.99936 6.81112 2.35114 5.65146 3.01022 4.66508C3.66929 3.6787 4.60607 2.90991 5.70206 2.45594C6.79807 2.00195 8.00412 1.88317 9.16755 2.11461C10.3311 2.34604 11.3998 2.91731 12.2387 3.75615C13.0776 4.595 13.6488 5.66375 13.8802 6.82726C14.1117 7.99073 13.9929 9.19674 13.5389 10.2928C13.085 11.3888 12.3161 12.3255 11.3297 12.9846C10.3434 13.6437 9.18374 13.9955 7.99742 13.9955C6.40664 13.9955 4.88101 13.3636 3.75615 12.2387C2.63129 11.1138 1.99936 9.58821 1.99936 7.99742Z" fill="#888"/>
</svg>


