<svg xmlns="http://www.w3.org/2000/svg" width="27" height="28" viewBox="0 0 27 28" fill="none">
  <path d="M13.1259 18.75C14.1147 18.75 15.0815 18.4568 15.9037 17.9074C16.726 17.358 17.3669 16.577 17.7452 15.6634C18.1237 14.7498 18.2227 13.7445 18.0297 12.7745C17.8369 11.8046 17.3606 10.9137 16.6614 10.2145C15.9621 9.5152 15.0712 9.039 14.1014 8.84608C13.1314 8.65315 12.1261 8.75216 11.2125 9.1306C10.2988 9.50904 9.51792 10.1499 8.96851 10.9722C8.41911 11.7944 8.12586 12.7611 8.12586 13.75C8.12586 15.0761 8.65265 16.3479 9.59032 17.2855C10.528 18.2232 11.7997 18.75 13.1259 18.75ZM13.1259 11.25C13.6204 11.25 14.1036 11.3966 14.5147 11.6714C14.9259 11.946 15.2464 12.3365 15.4356 12.7933C15.6247 13.2501 15.6742 13.7527 15.5779 14.2377C15.4814 14.7226 15.2432 15.1681 14.8936 15.5177C14.544 15.8674 14.0985 16.1055 13.6136 16.202C13.1286 16.2984 12.626 16.2489 12.1691 16.0597C11.7124 15.8705 11.3219 15.55 11.0472 15.1389C10.7725 14.7277 10.6259 14.2445 10.6259 13.75C10.6259 13.087 10.8892 12.4511 11.3581 11.9823C11.827 11.5134 12.4629 11.25 13.1259 11.25ZM2.50086 14.8462L1.25086 15.57C0.966446 15.734 0.717146 15.9525 0.517171 16.2129C0.317196 16.4734 0.170483 16.7706 0.0853956 17.0877C0.000308072 17.4049 -0.0214669 17.7356 0.0212955 18.0611C0.0640455 18.3866 0.170521 18.7006 0.334608 18.985L2.19586 22.2075C2.35981 22.4924 2.57832 22.7421 2.83888 22.9424C3.09945 23.1428 3.39695 23.2896 3.71436 23.3749C4.03178 23.4601 4.3629 23.4819 4.68875 23.439C5.0146 23.3961 5.3288 23.2894 5.61336 23.125L6.87586 22.395C7.06853 22.2863 7.28648 22.2303 7.50771 22.2326C7.72893 22.2351 7.94561 22.2959 8.13586 22.4088C8.32374 22.5175 8.47978 22.6737 8.58837 22.8617C8.69696 23.0497 8.75428 23.2629 8.75461 23.48V25C8.75461 25.663 9.018 26.2989 9.48685 26.7677C9.95568 27.2366 10.5916 27.5 11.2546 27.5H15.0046C15.6676 27.5 16.3035 27.2366 16.7724 26.7677C17.2412 26.2989 17.5046 25.663 17.5046 25V23.4775C17.508 23.2594 17.5677 23.0459 17.6782 22.8577C17.7889 22.6698 17.9462 22.5135 18.1351 22.4045C18.324 22.2954 18.538 22.2373 18.7561 22.2355C18.9742 22.2339 19.1891 22.2889 19.3796 22.395L20.6409 23.1225C21.2151 23.454 21.8975 23.5439 22.5379 23.3722C23.1782 23.2006 23.7244 22.7816 24.0559 22.2075L25.9159 18.985C26.08 18.7006 26.1865 18.3866 26.2292 18.0611C26.272 17.7356 26.2501 17.4049 26.1651 17.0877C26.08 16.7706 25.9332 16.4734 25.7334 16.2129C25.5334 15.9525 25.284 15.734 24.9996 15.57L23.7496 14.8462C23.5557 14.7334 23.3956 14.5706 23.2857 14.3751C23.1759 14.1795 23.1202 13.958 23.1246 13.7338C23.1251 13.5148 23.183 13.2998 23.2927 13.1101C23.4024 12.9206 23.56 12.7633 23.7496 12.6538L24.9996 11.93C25.284 11.766 25.5334 11.5475 25.7334 11.2871C25.9332 11.0267 26.08 10.7294 26.1651 10.4123C26.2501 10.0952 26.272 9.76439 26.2292 9.43885C26.1865 9.11331 26.08 8.79939 25.9159 8.515L24.0534 5.2925C23.8894 5.00799 23.671 4.75855 23.4106 4.55846C23.1502 4.35836 22.8531 4.21153 22.536 4.12633C22.2189 4.04111 21.888 4.01922 21.5624 4.0619C21.2369 4.10456 20.9229 4.21096 20.6384 4.375L19.3759 5.10375C19.1852 5.21035 18.9702 5.2656 18.7519 5.26406C18.5335 5.26252 18.3192 5.20425 18.1302 5.09498C17.9411 4.9857 17.7837 4.82915 17.6734 4.6407C17.5631 4.45225 17.5036 4.23836 17.5009 4.02V2.5C17.5009 1.83696 17.2375 1.20108 16.7686 0.732238C16.2997 0.263388 15.6639 0 15.0009 0H11.2509C10.5878 0 9.95193 0.263388 9.4831 0.732238C9.01426 1.20108 8.75086 1.83696 8.75086 2.5V4.1175C8.75082 4.3051 8.70136 4.48937 8.60743 4.65176C8.51351 4.81415 8.37845 4.94893 8.21586 5.0425L8.02336 5.15375C7.86067 5.24624 7.67675 5.29486 7.48961 5.29486C7.30247 5.29486 7.11855 5.24624 6.95586 5.15375L5.61336 4.375C5.329 4.21066 5.01503 4.10396 4.68941 4.06101C4.3638 4.01805 4.03291 4.03967 3.71565 4.12465C3.3984 4.20962 3.10098 4.35628 2.84043 4.55624C2.57987 4.75619 2.36127 5.00552 2.19711 5.29L0.337108 8.51625C0.00589557 9.09019 -0.0839043 9.77214 0.0874332 10.4122C0.258771 11.0524 0.677233 11.5982 1.25086 11.93L2.50086 12.6525C2.69456 12.7659 2.85456 12.9289 2.96441 13.1246C3.07425 13.3204 3.12998 13.5419 3.12586 13.7662C3.12618 13.9854 3.06853 14.2007 2.95877 14.3904C2.84901 14.5801 2.69102 14.7374 2.50086 14.8462ZM3.75086 10.4875L2.50086 9.765L4.36336 6.5425L5.70586 7.3175C6.24785 7.62896 6.86201 7.79286 7.48711 7.79286C8.11221 7.79286 8.72638 7.62896 9.26836 7.3175L9.46086 7.2075C10.0037 6.89426 10.4547 6.44399 10.7689 5.90171C11.083 5.35944 11.2491 4.74419 11.2509 4.1175V2.5H15.0009V4.02C15.0035 4.67729 15.1784 5.32241 15.508 5.89105C15.8377 6.45969 16.3106 6.93197 16.8797 7.2608C17.4489 7.58962 18.0944 7.76353 18.7516 7.76514C19.4089 7.76675 20.0551 7.59602 20.6259 7.27L21.8846 6.5425L23.7509 9.765L22.5009 10.4875C21.9317 10.8208 21.4596 11.2972 21.1316 11.8695C20.8036 12.4417 20.631 13.0898 20.631 13.7494C20.631 14.409 20.8036 15.057 21.1316 15.6292C21.4596 16.2015 21.9317 16.678 22.5009 17.0112L23.7509 17.735L21.8909 20.9575L20.6259 20.23C20.0551 19.904 19.4089 19.7333 18.7516 19.7349C18.0944 19.7365 17.4489 19.9104 16.8797 20.2393C16.3106 20.568 15.8377 21.0403 15.508 21.609C15.1784 22.1776 15.0035 22.8228 15.0009 23.48V25H11.2509V23.48C11.249 22.8224 11.0746 22.1769 10.7451 21.6077C10.4156 21.0386 9.94254 20.566 9.37317 20.2371C8.80378 19.9081 8.15804 19.7342 7.50046 19.733C6.84287 19.7319 6.19648 19.9031 5.62586 20.23L4.36711 20.9575L2.50086 17.735L3.75086 17.0112C4.32003 16.678 4.79208 16.2015 5.12012 15.6292C5.44815 15.057 5.62073 14.409 5.62073 13.7494C5.62073 13.0898 5.44815 12.4417 5.12012 11.8695C4.79208 11.2972 4.32003 10.8208 3.75086 10.4875Z" fill="#fff"/>
</svg>