<svg width="24" height="24" viewBox="0 0 24 24" fill="none" xmlns="http://www.w3.org/2000/svg">
<path d="M5.33325 7.14706H18.6666M10.3333 15.9706V10.6765M13.6666 15.9706V10.6765M15.3333 19.5H8.66659C7.74611 19.5 6.99992 18.7099 6.99992 17.7353V8.02941C6.99992 7.5421 7.37302 7.14706 7.83325 7.14706H16.1666C16.6268 7.14706 16.9999 7.5421 16.9999 8.02941V17.7353C16.9999 18.7099 16.2538 19.5 15.3333 19.5ZM10.3333 7.14706H13.6666C14.1268 7.14706 14.4999 6.75202 14.4999 6.26471V5.38235C14.4999 4.89504 14.1268 4.5 13.6666 4.5H10.3333C9.87302 4.5 9.49992 4.89504 9.49992 5.38235V6.26471C9.49992 6.75202 9.87302 7.14706 10.3333 7.14706Z" stroke="white" stroke-width="2" stroke-linecap="round" stroke-linejoin="round"/>
</svg>
