<svg width="32" height="32" viewBox="0 0 32 32" fill="none" xmlns="http://www.w3.org/2000/svg">
<path fill-rule="evenodd" clip-rule="evenodd" d="M16 5.03711C9.94547 5.03711 5.03711 9.97093 5.03711 16.0575C5.03711 22.1447 9.94547 27.0786 16 27.0786C22.0546 27.0786 26.9629 22.144 26.9629 16.0575C26.9629 9.97093 22.0546 5.03711 16 5.03711ZM10.6153 19.2509V18.3382C10.1542 18.864 9.62911 19.2138 8.85456 19.2095C7.9731 19.2052 7.1292 18.852 6.50754 18.2271C5.88588 17.6021 5.53708 16.7564 5.53747 15.8749C5.53747 14.0335 7.02256 12.5404 8.85384 12.5404C10.6866 12.5404 12.28 14.0218 12.28 15.8633L12.2822 19.2393L10.6153 19.2509ZM16.0829 19.3026C14.2502 19.3026 12.6575 17.8218 12.6575 15.9797L12.6553 10.3687H14.3193L14.3215 13.5047C14.7833 12.9797 15.3084 12.6291 16.0829 12.6335C16.9644 12.6379 17.8082 12.9913 18.4297 13.6164C19.0513 14.2414 19.3999 15.0873 19.3993 15.9687C19.3993 17.8102 17.9142 19.3026 16.0829 19.3026ZM23.2153 19.2247C21.3833 19.2247 19.8982 17.7317 19.8982 15.8902C19.8982 14.0487 21.3833 12.5557 23.2153 12.5557C24.8146 12.5557 26.1535 13.7287 26.4677 15.2429L24.8 15.2364C24.6705 14.9321 24.4538 14.673 24.1772 14.4918C23.9006 14.3106 23.5765 14.2154 23.2458 14.2182C23.0241 14.2187 22.8047 14.2628 22.6001 14.3482C22.3955 14.4335 22.2097 14.5583 22.0533 14.7155C21.8969 14.8726 21.7731 15.0591 21.6888 15.2641C21.6046 15.4692 21.5615 15.6889 21.5622 15.9106C21.5615 16.1323 21.6046 16.352 21.6888 16.5571C21.7731 16.7622 21.8969 16.9487 22.0533 17.1059C22.2096 17.2631 22.3954 17.388 22.6 17.4734C22.8047 17.5588 23.0241 17.6031 23.2458 17.6037C23.9433 17.6037 24.5513 17.1978 24.8073 16.5906L26.4749 16.5826C26.3196 17.3312 25.9102 18.0032 25.3162 18.4846C24.7221 18.966 23.9799 19.2279 23.2153 19.2247Z" fill="#888888"/>
<path fill-rule="evenodd" clip-rule="evenodd" d="M16.0401 14.187C15.8185 14.1876 15.5991 14.2318 15.3945 14.3172C15.1899 14.4025 15.0042 14.5273 14.8478 14.6845C14.6915 14.8417 14.5676 15.0281 14.4833 15.2331C14.399 15.4381 14.3559 15.6577 14.3565 15.8794C14.3555 16.327 14.5323 16.7567 14.848 17.074C15.1637 17.3914 15.5925 17.5704 16.0401 17.5717C16.4878 17.5704 16.9165 17.3914 17.2322 17.074C17.5479 16.7567 17.7247 16.327 17.7238 15.8794C17.7243 15.6577 17.6813 15.4381 17.597 15.2331C17.5127 15.0281 17.3888 14.8417 17.2325 14.6845C17.0761 14.5273 16.8904 14.4025 16.6858 14.3172C16.4812 14.2318 16.2618 14.1876 16.0401 14.187ZM8.87505 14.187C8.65338 14.1876 8.43399 14.2318 8.22941 14.3172C8.02483 14.4025 7.83907 14.5273 7.68273 14.6845C7.52639 14.8417 7.40253 15.0281 7.31823 15.2331C7.23393 15.4381 7.19084 15.6577 7.19141 15.8794C7.19045 16.327 7.36724 16.7567 7.68294 17.074C7.99864 17.3914 8.42742 17.5704 8.87505 17.5717C9.32267 17.5704 9.75145 17.3914 10.0672 17.074C10.3829 16.7567 10.5597 16.327 10.5587 15.8794C10.5593 15.6577 10.5162 15.4381 10.4319 15.2331C10.3476 15.0281 10.2237 14.8417 10.0674 14.6845C9.91103 14.5273 9.72527 14.4025 9.52069 14.3172C9.31611 14.2318 9.09672 14.1876 8.87505 14.187Z" fill="#888888"/>
</svg>
