<svg width="63" height="32" viewBox="0 0 63 32" fill="none" xmlns="http://www.w3.org/2000/svg">
<path fill-rule="evenodd" clip-rule="evenodd" d="M7.70609 21.3236H15.0822V9.49091H7.70536L7.70609 21.3236ZM6.21167 22.8145H16.5818V8H6.21094L6.21167 22.8145ZM23.4707 14.6473H22.829C21.9866 13.4604 21.1515 12.2807 20.3163 10.9484H20.3098V14.6465H19.6006V9.49018H20.2431C21.0855 10.6684 21.9206 11.8393 22.747 13.1651H22.7616V9.48945H23.4707V14.6473ZM25.4955 9.48945L23.7081 14.6465H24.4765L24.9263 13.2393H26.4867L26.8925 14.6465H27.8837L26.2354 9.49018L25.4955 9.48945ZM25.1564 12.6058C25.3622 11.928 25.5695 11.3018 25.7541 10.5055H25.7688C25.9761 11.3018 26.1607 11.928 26.3526 12.6058H25.1564ZM28.7173 14.6473V10.1818H27.357V9.48945H30.9633V10.1818H29.603V14.6473H28.7173ZM31.2512 14.6473H32.1318V9.48945H31.2505L31.2512 14.6473ZM34.8657 14.7345C36.2173 14.7345 37.059 13.5345 37.059 11.9935C37.059 10.5498 36.1293 9.40073 34.8657 9.40073C33.602 9.40073 32.6687 10.5498 32.6687 11.9935C32.6687 13.5338 33.5119 14.7345 34.8657 14.7345ZM34.8657 13.9978C33.9405 13.9978 33.6159 12.9811 33.6159 11.9935C33.6159 11.0436 33.9851 10.1375 34.8657 10.1375C35.7448 10.1375 36.1125 11.0436 36.1125 11.9935C36.1125 12.9811 35.7887 13.9978 34.8657 13.9978ZM41.4704 14.6473H40.828C39.9855 13.4604 39.1497 12.2807 38.3153 10.9484H38.308V14.6465H37.6003V9.49018H38.242C39.0845 10.6684 39.9196 11.8393 40.7445 13.1651H40.7606V9.48945H41.4712V14.6465M43.4959 9.48945L41.7078 14.6465H42.477L42.926 13.2393H44.4856L44.8922 14.6465H45.8826L44.2344 9.49018L43.4959 9.48945ZM43.1546 12.6058C43.3626 11.928 43.5685 11.3018 43.7538 10.5055H43.7685C43.9758 11.3018 44.1596 11.928 44.3516 12.6058H43.1546ZM46.1398 9.48945H47.0203V13.9542H48.7711V14.6465H46.1398V9.48945ZM22.9257 18.96V21.0887C22.4525 21.2735 21.9573 21.4058 21.4562 21.4058C19.9332 21.4058 18.9728 20.2262 18.9728 18.7091C18.9728 17.3011 19.9332 16.0713 21.4855 16.0713C21.9646 16.0713 22.4452 16.2495 22.7411 16.4698L22.4525 17.0807C22.1664 16.9107 21.8408 16.8172 21.5075 16.8095C20.5618 16.8095 19.9178 17.5535 19.9178 18.7251C19.9178 19.9469 20.6577 20.6684 21.4188 20.6684C21.654 20.6684 21.8547 20.6407 22.0401 20.544V18.96H22.9257ZM26.097 16.8538H24.6172V18.2676H26.0655V18.96H24.6172V20.624H26.3614V21.3178H23.7301V16.16H26.097V16.8538ZM28.8309 21.4058C30.1824 21.4058 31.0241 20.2051 31.0241 18.6647C31.0241 17.2211 30.0938 16.0713 28.8309 16.0713C27.5657 16.0713 26.6354 17.2211 26.6354 18.6647C26.6354 20.2051 27.4764 21.4058 28.8309 21.4058ZM28.8309 20.6684C27.9064 20.6684 27.5804 19.6531 27.5804 18.6647C27.5804 17.7156 27.9503 16.8102 28.8309 16.8102C29.7099 16.8102 30.0784 17.7156 30.0784 18.6647C30.0784 19.6531 29.7524 20.6684 28.8309 20.6684ZM35.2796 18.96V21.0887C34.8056 21.2735 34.3126 21.4058 33.8093 21.4058C32.2878 21.4058 31.326 20.2262 31.326 18.7091C31.326 17.3011 32.2878 16.0713 33.8394 16.0713C34.3199 16.0713 34.799 16.2495 35.0942 16.4698L34.8056 17.0807C34.5202 16.9105 34.195 16.817 33.8621 16.8095C32.9149 16.8095 32.2724 17.5535 32.2724 18.7251C32.2724 19.9469 33.0116 20.6684 33.7727 20.6684C34.0101 20.6684 34.2078 20.6407 34.3939 20.544V18.96H35.2796ZM39.2266 21.3178L38.1827 19.1818C38.7519 18.8807 39.0786 18.2676 39.0786 17.6487C39.0786 16.6451 38.464 16.16 37.4736 16.16H36.092V21.3178H36.9813V19.3724H37.3798L38.2127 21.3178H39.2266ZM36.9813 16.8538H37.3718C37.8948 16.8538 38.1908 17.1549 38.1908 17.6858C38.1908 18.3775 37.771 18.6865 37.3491 18.7091C37.2604 18.7178 37.0531 18.7251 36.9813 18.7316V16.8538ZM41.0287 16.16L39.2398 21.3178H40.009L40.4595 19.9098H42.0198L42.4235 21.3178H43.4161L41.7678 16.16H41.0287ZM40.6888 19.2771C40.8954 18.5978 41.1019 17.9724 41.288 17.1767H41.3027C41.5093 17.9724 41.6939 18.5978 41.8858 19.2771H40.6888ZM44.953 18.7091C44.8607 18.7171 44.6439 18.7236 44.5823 18.7309V16.8545H44.9808C45.498 16.8545 45.794 17.1549 45.794 17.6858C45.794 18.3775 45.375 18.6865 44.953 18.7091ZM45.0775 16.16H43.6959V21.3178H44.5823V19.3724H44.9808C46.0379 19.3724 46.6811 18.5178 46.6811 17.6487C46.6811 16.6451 46.0687 16.16 45.0775 16.16ZM50.7893 21.3178H49.9029V18.8356H48.0613V21.3178H47.1844V16.16H48.0613V18.1418H49.9029V16.1753H50.7893V21.3178ZM51.6383 21.3178H52.5196V16.16H51.6383V21.3178ZM56.5076 17.0967C56.293 16.9636 55.9399 16.8095 55.5993 16.8095C54.696 16.8095 54.0404 17.5535 54.0404 18.7251C54.0404 19.9469 54.7634 20.6684 55.6213 20.6684C55.9612 20.6684 56.2784 20.5578 56.5076 20.4102L56.7523 21.0516C56.4036 21.2741 55.9998 21.3967 55.5854 21.4058C54.0631 21.4058 53.102 20.2262 53.102 18.7091C53.102 17.3011 54.0543 16.0713 55.5985 16.0713C56.0579 16.0713 56.4849 16.264 56.7897 16.4698L56.5076 17.0967Z" fill="#888888"/>
</svg>
