<svg width="51" height="32" viewBox="0 0 51 32" fill="none" xmlns="http://www.w3.org/2000/svg">
<path d="M39.0999 16.3667C38.7829 16.3689 38.4695 16.43 38.1746 16.5456C37.7721 16.6854 37.4178 16.9339 37.1522 17.2626C36.8867 17.5914 36.7208 17.9872 36.6734 18.4046C36.6239 18.9587 36.8064 19.5122 37.1021 19.9791C37.193 20.1115 37.2943 20.2366 37.4066 20.3529C37.6261 20.5973 37.8523 20.8344 38.0844 21.062C38.1125 21.0976 38.1583 21.1289 38.1435 21.1856C38.128 21.2424 38.0496 21.2584 37.9942 21.2584H34.2468C34.0916 21.2584 33.8979 21.2256 33.8137 21.0707C33.7952 21.0373 33.824 21.0038 33.8506 20.9849C34.2527 20.7456 34.6526 20.4642 34.898 20.0576C35.1131 19.6962 35.2232 19.2824 35.2158 18.8635C35.2183 18.6212 35.1887 18.3797 35.1279 18.1449C34.9944 17.6995 34.7285 17.3036 34.3643 17.0082C33.9615 16.6854 33.4795 16.4724 32.9666 16.3907C32.7444 16.3652 32.5206 16.3554 32.297 16.3616H27.3101V23.9347H30.3457V21.8031L31.9599 23.3784C32.3147 23.7253 32.8151 23.8773 33.3 23.9326C35.3141 23.9377 37.3283 23.9326 39.3424 23.9326C39.8853 23.9318 40.4112 23.7463 40.831 23.4075C41.1651 23.1297 41.4142 22.7653 41.548 22.3551C41.6788 21.9382 41.7022 21.4958 41.6159 21.0678C41.5411 20.6858 41.3672 20.3293 41.1111 20.0329C40.7977 19.6649 40.4563 19.3231 40.1259 18.9718C40.0948 18.9376 40.0446 18.8984 40.0756 18.8467C40.1066 18.7958 40.1791 18.8155 40.216 18.8155H43.9146V16.3602L39.1007 16.3675L39.0999 16.3667ZM32.2526 19.4082C32.1122 19.4904 31.94 19.4664 31.7848 19.4693H30.3782V18.5071H31.9622C32.1928 18.5071 32.4515 18.654 32.4773 18.8991C32.5022 18.9968 32.4933 19.0998 32.4521 19.192C32.4109 19.2842 32.3397 19.3602 32.2497 19.4082H32.2526ZM24.2959 16.3667H20.0282L17.728 23.9384H20.5906L20.9314 22.8446H23.5368L23.8783 23.9384H26.6552L24.2959 16.3667ZM21.5722 20.7878L22.2345 18.6656L22.8967 20.7878H21.5722ZM7.08008 16.3667H10.18L10.7802 18.4191L11.3796 16.3667H14.5564L15.195 18.4191L15.8336 16.3667H18.7303L18.6416 16.7035L16.4153 23.9413H13.8113L12.9096 21.0409L12.0079 23.9413H9.43716L7.08008 16.3667ZM40.3032 12.9893C40.131 12.9791 39.9374 12.9893 39.7888 12.8904C39.7459 12.8562 39.6802 12.7806 39.7415 12.7304C40.0593 12.5267 40.386 12.3209 40.6344 12.0293C40.9199 11.6852 41.0896 11.2623 41.12 10.8191C41.1557 10.4462 41.1103 10.0701 40.9869 9.71583C40.807 9.25746 40.4884 8.86449 40.0741 8.59001C39.7279 8.36023 39.3371 8.20348 38.9263 8.12965C38.6912 8.07656 38.448 8.0911 38.2093 8.08965H33.2128V15.6751H36.2476V13.5362C36.2476 13.5362 37.5234 14.7784 37.8567 15.0969C38.1672 15.3907 38.5877 15.5602 38.9979 15.6351C39.2308 15.6686 39.4658 15.6816 39.7009 15.6744H43.9146V12.9893H40.3032ZM38.3298 10.9806C38.2862 11.045 38.2273 11.098 38.1581 11.1349C38.0889 11.1718 38.0116 11.1915 37.9329 11.1922H36.2898V10.2315H37.8759C38.0829 10.2256 38.2729 10.3406 38.3616 10.5253C38.3881 10.5993 38.399 10.6779 38.3936 10.7562C38.3881 10.8345 38.3664 10.9108 38.3298 10.9806ZM30.356 8.08965H26.0927L23.7926 15.6736H26.6552L26.9967 14.5776H29.6014L29.9429 15.6736H32.7176L30.356 8.08965ZM27.6338 12.5173L28.2953 10.3907L28.9576 12.5173H27.6338ZM13.0863 8.37619C13.441 8.21256 13.8239 8.08965 14.2179 8.09038H24.8717V10.5602L21.553 10.5638V15.6744H18.8234V10.5515H15.277C15.2068 10.5515 15.2246 10.6438 15.263 10.6838C15.5719 10.998 15.9134 11.382 16.2165 11.7035C16.4227 11.9246 16.5801 12.1849 16.6806 12.4686C16.8037 12.8242 16.849 13.2014 16.8137 13.5755C16.7828 13.8944 16.686 14.2038 16.5291 14.4846C16.3581 14.7967 16.1141 15.0643 15.8172 15.2654C15.5203 15.4665 15.1791 15.5952 14.8217 15.6409C14.6236 15.6627 14.226 15.6729 14.0257 15.6729H7.08082V12.9893H13.1602C13.2089 12.9893 13.2769 12.9893 13.2962 12.9333C13.325 12.8598 13.2489 12.8111 13.2075 12.7624C12.951 12.4591 12.6568 12.1835 12.3944 11.8896C12.1062 11.5682 11.9702 11.2111 11.8815 10.8256C11.7966 10.4804 11.8017 10.1197 11.8963 9.77692C11.984 9.47444 12.1354 9.19347 12.3405 8.95218C12.5456 8.7109 12.7992 8.51467 13.0863 8.37619Z" fill="#888888"/>
</svg>
