<svg width="57" height="32" viewBox="0 0 57 32" fill="none" xmlns="http://www.w3.org/2000/svg">
<mask id="mask0_908_477" style="mask-type:alpha" maskUnits="userSpaceOnUse" x="2" y="5" width="21" height="18">
<path d="M2.1377 5.8667H22.8616V22.5736H2.1377V5.8667Z" fill="#F9F9F9"/>
</mask>
<g mask="url(#mask0_908_477)">
<path fill-rule="evenodd" clip-rule="evenodd" d="M3.23393 8.38837C2.61643 8.40655 2.14947 8.13819 2.13777 7.76146C2.12974 7.48655 2.73408 6.62837 3.10239 6.48946C3.35451 6.39491 4.58221 5.93091 6.62762 5.87055C7.38617 5.848 8.67378 5.94037 9.76044 6.1011C16.0889 7.03419 22.7316 11.8378 22.8595 16.0982C22.9457 18.9971 20.4304 21.7164 15.5196 21.8618C14.3087 21.8981 13.0988 21.761 11.9272 21.4546C11.9038 22.1666 11.9564 22.5433 10.9428 22.5731C10.3231 22.592 10.0812 21.5913 9.98989 20.7782C7.0259 19.4691 5.23989 17.3418 5.21431 16.5026C5.17704 15.2516 7.4607 14.2095 10.1309 13.7971C10.1689 12.7622 10.345 10.1266 10.8939 10.1098C11.1138 10.104 11.5713 10.6131 11.7437 11.3927C11.9001 12.1004 11.9162 13.3913 11.9184 13.6211L12.1201 13.6138C15.8675 13.5033 18.1131 14.6691 18.154 16.0502C18.1862 17.1215 17.2333 17.6698 16.7342 17.6844C16.235 17.6989 15.6497 17.4167 15.6453 17.2626C15.6358 16.968 16.7108 16.8989 16.6969 16.4226C16.675 15.7033 13.6956 15.3884 11.8599 15.3767C11.8577 15.9964 11.8497 16.744 11.8643 17.2466C11.8789 17.7295 11.9089 18.9767 11.9242 20.0175C12.7573 20.192 13.6145 20.2873 14.4556 20.2626C16.4345 20.2044 20.9551 19.4858 20.8542 16.1047C20.7132 11.3818 11.3323 7.04291 6.30754 7.19201C4.32862 7.25019 3.14112 7.4611 3.14697 7.65528C3.15062 7.78401 4.11085 7.83346 4.11816 8.08873C4.12547 8.34328 3.57301 8.37819 3.23393 8.38837ZM10.1105 15.4487C8.2324 15.5884 5.82962 15.9353 5.85008 16.5906C5.86981 17.2756 7.64047 18.592 9.96577 19.4487C10.0739 18.0473 10.1003 16.5615 10.1105 15.4487Z" fill="#888888"/>
</g>
<path fill-rule="evenodd" clip-rule="evenodd" d="M24.3125 13.5985C24.6552 13.5891 25.1455 14.3622 25.1616 14.8443C25.1762 15.3272 25.2997 17.8516 25.3355 18.5789C25.3721 19.3062 25.3465 20.0029 25.2961 20.3251C25.2449 20.6472 25.1207 20.8065 24.5317 20.8225C23.9434 20.8392 23.6694 20.5098 23.619 20.0225C23.5693 19.5352 23.5254 18.1534 23.551 17.4603C23.5766 16.768 23.6117 15.4429 23.7074 14.6131C23.8038 13.784 24.0399 13.6058 24.3125 13.5985ZM22.8348 10.6254C22.7879 10.538 22.764 10.4402 22.7654 10.3411C22.7566 10.0342 23.2791 8.85888 24.5923 8.76288C24.2576 8.99561 23.92 9.29379 23.5839 9.67488C23.2696 10.0342 23.019 10.3498 22.8348 10.6254ZM23.9807 11.2589C24.2511 10.8712 25.6578 8.96215 27.1062 8.91851C27.5315 8.90542 27.6433 9.17233 27.6521 9.46688C27.666 9.92579 26.846 11.2676 24.9994 11.3236C24.6585 11.3353 24.3173 11.3136 23.9807 11.2589ZM27.305 7.93306C27.2151 7.70542 26.914 7.24579 25.839 7.27851C23.4962 7.34833 21.6948 9.10833 21.735 10.4945C21.7482 10.9454 21.963 11.3396 22.278 11.6632C22.1954 11.8902 22.1874 12.0414 22.1903 12.128C22.1976 12.3687 22.5542 13.0043 22.829 12.9963C23.0606 12.9891 23.2192 12.7687 23.4428 12.4116C23.825 12.5614 24.205 12.6371 24.5076 12.6283C26.7094 12.5622 28.7073 10.4683 28.6686 9.13015C28.6503 8.51342 28.2564 7.91779 27.305 7.93306ZM30.2068 13.3025C31.5259 13.2632 33.1789 13.4356 33.1913 13.8611C33.1986 14.1098 33.0693 14.6291 32.3655 14.7011C31.5354 14.7862 27.3473 14.9651 27.3627 15.4865C27.3707 15.7622 28.6291 15.8232 29.7837 15.8938C30.969 15.9665 32.8741 16.0109 32.9311 17.9462C32.9757 19.4734 32.4028 19.7963 32.1441 19.9178C31.8167 20.0727 30.7162 20.4945 29.8721 20.5192C27.3291 20.5956 26.2804 19.1229 26.2585 18.3738C26.2388 17.7083 26.9169 17.1185 28.0584 17.0843C29.1984 17.0502 30.9661 17.4654 30.98 17.9382C30.991 18.3214 30.212 18.5185 29.867 18.5294C28.3105 18.576 28.3865 17.9382 27.4891 17.9651C26.9776 17.9796 26.2614 19.0749 28.822 18.9978C31.1042 18.9302 31.7963 18.1716 31.7838 17.7643C31.7678 17.2254 30.1301 16.9622 29.183 16.9134C28.236 16.8632 26.8153 16.8698 26.3294 16.5607C25.8449 16.2516 25.9128 15.552 26.0809 14.9731C26.4317 13.7636 28.8871 13.3425 30.2068 13.3025ZM34.9174 13.9156C35.8016 13.8887 37.6548 17.9062 37.9669 17.8967C38.2796 17.888 38.0473 16.9585 37.85 15.9323C37.4035 13.6109 36.7078 12.4138 37.3618 12.3942C37.8441 12.3796 39.4299 13.9171 39.5176 16.8931C39.5592 18.2749 39.3648 20.0836 38.1152 20.1207C36.9314 20.1563 35.5816 16.408 35.2747 16.4167C35.1096 16.4218 35.0957 18.7389 35.0518 19.4378C35.008 20.1367 34.7646 20.5105 34.3759 20.5214C33.7869 20.5396 33.5282 19.9738 33.4953 18.8574C33.4617 17.7418 33.8271 13.9483 34.9174 13.9156ZM43.6457 16.2865C44.0798 16.2742 44.4634 16.2051 44.4254 16.7454C44.3867 17.2865 44.3626 17.504 43.9102 17.5163L41.59 17.5825C41.5133 17.8298 41.3145 18.4676 41.2254 18.7367C41.1136 19.0742 41.4665 19 41.9211 18.8749C42.3763 18.7512 43.6113 18.528 44.1185 18.5134C44.6264 18.4989 45.0049 19.2742 44.7133 19.5403C44.4218 19.8072 42.8521 21.0771 41.2137 21.1243C40.5107 21.144 39.5563 20.5556 39.5241 19.5011C39.5066 18.9425 39.7405 18.1927 39.9648 17.6109C39.91 17.5782 39.8683 17.5018 39.8362 17.3338C39.7631 16.9542 39.5848 16.5374 40.2432 16.4654C40.3089 16.4587 40.3747 16.4529 40.4405 16.448L40.9842 15.3738C40.7919 15.3517 40.6037 15.3027 40.4252 15.2283C40.0255 15.0465 39.7142 14.5745 39.7076 14.3636C39.693 13.9011 43.2328 13.624 44.052 13.6007C44.9326 13.576 45.1825 13.7389 45.4638 14.1243C45.7445 14.5091 45.8512 14.7811 45.8541 14.8865C45.8577 14.992 45.7554 15.2531 44.6922 15.2836C44.1477 15.2989 43.2679 15.3869 42.4238 15.4167L42.0563 16.3556C42.8776 16.3171 43.6457 16.2865 43.6457 16.2865ZM48.6332 18.9091C49.7557 16.7258 50.9132 15.4814 51.321 15.4691C52.0261 15.448 51.4291 18.624 48.6332 18.9091ZM46.1457 19.4712C45.2263 21.2749 44.6074 23.1876 44.6505 24.6269C44.6987 26.2487 45.6999 26.8531 46.0039 26.8443C46.3086 26.8349 46.3232 26.3556 46.378 25.9978C46.6549 24.1722 47.1422 22.3844 47.8301 20.6698C48.0712 20.7302 48.3102 20.7585 48.5309 20.752C50.3951 20.6967 52.556 18.4807 52.4858 16.1214C52.4485 14.8756 51.9699 13.992 51.1668 14.016C49.9931 14.0502 48.3051 15.816 46.9502 18.032C46.8289 17.1323 47.5422 15.7483 48.1494 14.7803C48.5762 14.1003 48.5016 13.2923 48.3248 13.2967C48.0763 13.3047 45.6707 15.3302 45.754 18.1083C45.77 18.6487 45.9111 19.1011 46.1457 19.4712Z" fill="#888888"/>
</svg>
