<svg width="56" height="32" viewBox="0 0 56 32" fill="none" xmlns="http://www.w3.org/2000/svg">
<path fill-rule="evenodd" clip-rule="evenodd" d="M30.4732 21.2446H26.9096L27.7197 14.8068H37.7816C37.7088 15.494 37.7088 17.1828 34.783 17.1217H30.9866L30.4732 21.2446ZM38.2186 14.8068H41.8186L41.0186 21.2446H37.3932L38.2186 14.8068ZM45.2026 14.8068H48.8026L48.0026 21.2446H44.3772L45.2026 14.8068ZM15.2063 21.2446H5.92773L6.69137 14.8075H16.0201L15.727 17.1224H9.9641L9.77501 18.3151H15.5823L15.2063 21.246M16.1692 13.6853H6.81937L7.18301 10.7559H16.535L16.1692 13.6853ZM19.8463 10.7559H35.4266C37.7088 10.7559 38.0906 11.8948 37.9096 13.6853H16.7081C16.9626 11.5333 17.8914 10.7559 19.8463 10.7559ZM22.711 21.2446H15.7597L16.1277 18.3151H23.2186L23.3641 17.1217H18.4608C17.735 17.1653 16.3052 17.1944 16.5779 14.8068H25.3634C26.0732 14.8068 27.1088 15.2046 26.927 16.5428L26.6048 18.8046C26.3066 20.6104 25.1386 21.2446 22.711 21.2446ZM48.927 13.6853H38.3641L38.7088 10.7559H46.8368C48.8732 10.7559 49.1089 11.8948 48.927 13.6853Z" fill="#888888"/>
</svg>
