<svg width="57" height="32" viewBox="0 0 57 32" fill="none" xmlns="http://www.w3.org/2000/svg">
<path d="M49.6673 7.55566V24.4437H7.3623V7.55639H49.6665L49.6673 7.55566ZM11.9501 8.85603H8.66015V23.1346H11.2566V16.2524L12.4346 23.136H13.8084L14.9696 16.2524V23.136H19.9578L20.2633 20.9397H22.2715L22.5769 23.136H27.4731V18.5004L28.073 18.4124L29.3153 23.1375H31.8489L30.2178 17.6C31.0129 17.0124 31.9081 15.5549 31.751 14.1258L31.7276 13.9615C31.7276 13.9709 32.1405 16.4342 32.5388 18.8066L32.6206 19.2953L33.1614 22.512L33.2016 22.752L33.2673 23.1469L36.2788 23.1375L38.3382 10.1949V23.1375H43.2248V20.5724H40.9068V17.2931H43.2248V14.6851H40.9068V11.4618H43.2248V8.85821H35.961L34.7647 17.5557L33.5845 8.85748H30.9588L31.2519 11.1797C30.9464 10.5848 29.878 8.85676 27.5169 8.85676H24.8971L24.8869 21.5338L22.9774 8.85676H19.5457L17.5712 21.9913V8.85748H14.2878L13.104 16.2349L11.9501 8.85603ZM46.2378 8.85457H43.6728V23.1338H48.4374V20.5731H46.2378V8.85457ZM21.2674 12.5768L22.0055 18.6829H20.5578L21.2674 12.5768ZM29.194 13.6786C29.1955 14.8349 28.681 15.5644 28.0782 15.8568V15.8626C27.8882 15.9557 27.6784 16.0044 27.4672 16.0058V11.4073H27.4804C27.6835 11.4073 29.194 11.4669 29.194 13.6786Z" fill="#888888"/>
</svg>
