<svg width="57" height="32" viewBox="0 0 57 32" fill="none" xmlns="http://www.w3.org/2000/svg">
<path d="M32.9753 21.2147H36.1469V8.11865H32.9753V21.2147ZM27.4069 17.4808C27.4069 17.9412 27.0196 18.3274 26.5585 18.3274H24.7147C24.2536 18.3274 23.8663 17.9412 23.8663 17.4808V12.2023H20.6948V17.7383C20.6948 20.0008 22.1512 21.1965 24.2902 21.1965H27.3886C29.3617 21.1965 30.5602 19.7805 30.5602 17.7383V12.2023H27.3886C27.4069 12.2023 27.4069 17.315 27.4069 17.4808ZM45.2377 12.2023V17.4808C45.2377 17.9412 44.8503 18.3274 44.39 18.3274H42.5455C42.0851 18.3274 41.6978 17.9412 41.6978 17.4808V12.2023H38.5263V17.7383C38.5263 20.0008 39.982 21.1965 42.1217 21.1965H45.2194C47.1925 21.1965 48.3909 19.7805 48.3909 17.7383V12.2023H45.2377ZM14.8493 12.2023H12.8207C12.1017 12.2023 11.7516 12.3863 11.7516 12.3863V8.11865H8.58008V21.1965H11.7326V15.9361C11.7326 15.4757 12.1199 15.0896 12.581 15.0896H14.4248C14.8859 15.0896 15.2732 15.4757 15.2732 15.9361V21.2147H18.4447V15.5128C18.4447 13.1216 16.8407 12.2023 14.8493 12.2023Z" fill="#888888"/>
</svg>
