<svg width="252" height="116" viewBox="0 0 252 116" fill="none" xmlns="http://www.w3.org/2000/svg">
<g filter="url(#filter0_d_449_5366)">
<path d="M139.908 48.5942C139.863 47.0491 138.388 44.5733 137.359 44.6068C136.541 44.6328 135.832 45.1987 135.542 47.8533C135.252 50.5077 135.148 54.752 135.074 56.9672C134.996 59.1824 135.129 63.609 135.278 65.169C135.427 66.7287 136.252 67.7825 138.02 67.7303C139.789 67.6781 140.16 67.1681 140.312 66.1368C140.465 65.1057 140.539 62.8756 140.431 60.5488C140.324 58.2219 139.956 50.1429 139.908 48.5942Z" fill="white"/>
<path d="M91.1288 20.7476C87.6698 20.2338 83.5716 19.9397 81.1602 20.0104C74.6509 20.204 70.7457 21.6895 69.9434 21.9948C68.7692 22.4415 66.8484 25.1891 66.8743 26.0677C66.9115 27.274 68.3939 28.134 70.3631 28.0744C71.4406 28.0409 73.1979 27.9292 73.1758 27.1139C73.1496 26.2986 70.0956 26.1385 70.0845 25.7252C70.0659 25.1072 73.8445 24.4296 80.1423 24.2435C96.1297 23.7669 125.972 37.6611 126.422 52.7876C126.741 63.6142 112.359 65.9149 106.065 66.1012C103.39 66.1793 100.659 65.8776 98.0098 65.3156C97.9615 61.9834 97.8649 57.9886 97.8203 56.4435C97.772 54.8354 97.7979 52.4414 97.8055 50.4572C103.646 50.4942 113.124 51.5031 113.191 53.804C113.236 55.3305 109.817 55.5501 109.843 56.4957C109.858 56.9873 111.72 57.8956 113.31 57.8472C114.9 57.7988 117.928 56.0452 117.828 52.6164C117.698 48.1936 110.553 44.4557 98.6302 44.8129L97.9874 44.8354C97.9801 44.0982 97.9318 39.9656 97.4301 37.6984C96.8802 35.2039 95.4275 33.5733 94.7253 33.592C92.979 33.6439 92.418 42.084 92.299 45.3975C83.8019 46.7193 76.5383 50.0586 76.657 54.0609C76.7388 56.7488 82.4196 63.562 91.8532 67.7542C92.143 70.3601 92.9121 73.562 94.8851 73.5023C98.1102 73.4055 97.9391 72.1995 98.0171 69.921C101.502 70.8366 105.329 71.3469 109.446 71.2238C125.069 70.7585 133.072 62.0505 132.797 52.7689C132.393 39.1243 111.259 23.7409 91.1251 20.7513L91.1288 20.7476ZM91.7827 63.495C84.3853 60.7474 78.7525 56.533 78.6858 54.3402C78.6227 52.2441 86.2689 51.131 92.2434 50.6841C92.2099 54.247 92.1244 59.0051 91.7827 63.495Z" fill="white"/>
<path d="M152.051 30.3156C151.991 28.3275 150.706 26.4027 147.596 26.4511C147.303 25.7177 146.318 24.2359 142.807 24.3402C135.157 24.5673 129.271 30.2448 129.402 34.72C129.446 36.1756 130.144 37.4487 131.174 38.4914C130.906 39.221 130.88 39.7123 130.888 39.9917C130.91 40.7699 132.077 42.8212 132.976 42.795C133.734 42.7728 134.25 42.0616 134.982 40.9075C136.23 41.3916 137.471 41.6371 138.46 41.6074C145.653 41.3916 152.181 34.6381 152.051 30.3156ZM135.443 32.0765C134.414 33.2344 133.596 34.2546 132.994 35.1443C132.887 34.9618 132.783 34.6751 132.768 34.2246C132.738 33.2344 134.443 29.4407 138.735 29.128C137.642 29.88 136.535 30.8405 135.443 32.073V32.0765ZM146.946 29.6343C148.335 29.5934 148.7 30.4532 148.729 31.4064C148.774 32.8883 146.095 37.2181 140.061 37.3968C138.738 37.4376 137.624 37.3371 136.732 37.1883C137.616 35.9336 142.209 29.7758 146.942 29.6343H146.946Z" fill="white"/>
<path d="M156.026 44.1906C151.812 44.3172 143.973 45.6538 142.851 49.492C142.316 51.3275 142.096 53.5465 143.646 54.5294C145.195 55.5121 149.732 55.4899 152.756 55.6462C155.78 55.8026 161.008 56.6365 161.06 58.349C161.097 59.641 158.89 62.046 151.604 62.2656C143.427 62.5076 145.715 59.0342 147.35 58.9858C150.215 58.9001 149.969 60.9255 154.941 60.7765C156.04 60.7429 158.53 60.1175 158.493 58.9001C158.448 57.3998 152.808 56.0819 149.163 56.1898C145.522 56.2977 143.352 58.1705 143.416 60.2813C143.486 62.6566 146.834 67.3328 154.956 67.0908C157.649 67.0126 161.164 65.6722 162.212 65.1809C163.037 64.7937 164.865 63.7699 164.724 58.9225C164.541 52.7832 158.459 52.6417 154.673 52.4111C150.988 52.1875 146.971 51.9941 146.945 51.1191C146.897 49.466 160.269 48.8965 162.918 48.6283C165.166 48.4012 165.578 46.7519 165.556 45.9626C165.515 44.6149 160.239 44.0678 156.026 44.1906Z" fill="white"/>
<path d="M178.278 40.8812C176.171 40.9444 178.412 44.7978 179.85 52.2697C180.485 55.572 181.232 58.5654 180.228 58.5952C179.222 58.6249 173.258 45.695 170.409 45.7769C166.898 45.8811 165.723 58.0925 165.828 61.6851C165.935 65.2778 166.768 67.0985 168.662 67.0425C169.914 67.0054 170.695 65.8029 170.836 63.5542C170.977 61.3055 171.022 53.8446 171.553 53.8297C172.541 53.8 176.885 65.8662 180.7 65.7545C184.724 65.6353 185.349 59.8125 185.215 55.3635C184.932 45.7842 179.827 40.8363 178.271 40.8812H178.278Z" fill="white"/>
<path d="M200.816 59.997C199.24 60.0454 195.406 60.7677 193.994 61.1698C192.582 61.5719 191.486 61.8139 191.836 60.7193C192.114 59.848 192.727 57.778 192.965 56.9738L200.166 56.758C201.57 56.7169 201.644 56.0095 201.763 54.2562C201.882 52.5026 200.693 52.726 199.345 52.767C199.345 52.767 196.959 52.8638 194.41 52.9904L195.551 49.9448C198.17 49.848 200.901 49.5614 202.592 49.513C205.895 49.4161 206.211 48.5673 206.2 48.225C206.188 47.8824 205.858 47 204.988 45.7491C204.115 44.502 203.339 43.9733 200.608 44.0515C198.066 44.1258 187.076 45.0231 187.121 46.5271C187.139 47.2123 188.109 48.7387 189.35 49.3345C189.807 49.554 190.398 49.703 191.081 49.8034L189.395 53.2881C189.153 53.3068 188.949 53.3292 188.785 53.3476C186.742 53.5785 187.295 54.9338 187.522 56.1623C187.622 56.7058 187.752 56.9554 187.919 57.0633C187.225 58.9508 186.496 61.382 186.552 63.1951C186.652 66.6164 189.617 68.5263 191.798 68.4594C196.885 68.3067 201.756 64.1854 202.659 63.3217C203.561 62.458 202.388 59.9448 200.812 59.9894L200.816 59.997Z" fill="white"/>
<path d="M227.131 52.3613C227.012 48.3368 225.474 45.4812 222.899 45.5556C219.131 45.6673 213.718 51.3746 209.367 58.5339C208.977 55.6262 211.266 51.155 213.216 48.0239C214.588 45.8274 214.346 43.2139 213.777 43.2325C212.979 43.2547 205.265 49.8035 205.529 58.7835C205.581 60.5258 206.035 61.9927 206.789 63.1877C203.839 69.018 201.855 75.1982 201.992 79.8519C202.148 85.0938 205.358 87.0484 206.335 87.0186C207.313 86.9889 207.361 85.44 207.536 84.2821C208.528 77.7371 210.24 71.9368 212.195 67.0635C212.968 67.2571 213.733 67.3501 214.443 67.3277C220.424 67.1489 227.357 59.986 227.131 52.3613ZM214.769 61.3708C218.37 54.312 222.085 50.2913 223.393 50.2502C225.659 50.1834 223.742 60.4476 214.769 61.3708Z" fill="white"/>
<path d="M72.8856 47.5641C72.4732 47.1955 71.9902 47.0055 71.4477 47.0055C71.0761 47.0055 70.7196 47.106 70.3926 47.3072C70.0582 47.5119 69.8018 47.8321 69.6346 48.2528L63.9278 60.9854C63.8868 61.0748 63.8126 61.2385 63.7383 61.395C63.69 61.2385 63.6379 61.0822 63.6045 60.9965C63.56 60.8775 63.3964 60.5386 63.3964 60.5386L57.8529 48.2117C57.4814 47.4113 56.8572 47.0055 55.999 47.0055C54.9401 46.9795 53.74 47.8394 53.7772 48.9564C53.7772 49.2469 53.8366 49.4924 53.9518 49.742L61.4793 65.7657C61.0073 66.7672 60.5391 67.7686 60.0674 68.7702C59.3169 70.371 58.5664 71.9683 57.8122 73.5691C57.4813 74.269 57.1397 74.9355 57.147 75.6913C57.1284 76.7559 57.9088 77.6569 59.0085 77.631C60.2717 77.631 60.9183 76.138 60.9183 76.138L73.3389 49.7382C73.4541 49.4813 73.5135 49.202 73.5135 48.9154C73.5135 48.3943 73.3017 47.9362 72.882 47.5603L72.8856 47.5641Z" fill="white"/>
<path d="M50.2645 39.9018C49.8632 39.4849 49.3429 39.2764 48.7188 39.2764C47.8382 39.2764 47.1249 39.7864 46.5973 40.7877L37.8029 57.6418C37.8029 57.6418 37.6431 57.9284 37.5985 58.0328C37.5539 58.1369 37.4796 58.3046 37.435 58.4087C37.3905 58.3081 37.3124 58.1369 37.2716 58.0328C37.2307 57.9322 37.0672 57.6418 37.0672 57.6418L28.269 40.7877C27.7414 39.7826 27.0244 39.2764 26.1475 39.2764C25.5233 39.2764 25.0032 39.4884 24.6019 39.9018C24.2043 40.315 24 40.8548 24 41.5027V65.6165C24 66.2381 24.1821 66.7481 24.5387 67.1354C24.8991 67.5264 25.3896 67.7237 25.9878 67.7237C26.5859 67.7237 27.1061 67.5301 27.4554 67.154C27.8009 66.7817 27.9755 66.2606 27.9755 65.6127V48.4944L27.9681 48.1369L28.1539 48.5836L35.347 62.0871C35.8745 63.0624 36.5768 63.5576 37.4313 63.5576C38.2859 63.5576 38.9881 63.0624 39.5157 62.0871L46.7088 48.5836L46.8946 48.1369L46.8871 48.4944V65.6127C46.8871 66.2606 47.0617 66.7781 47.4073 67.154C47.7564 67.5337 48.2508 67.7237 48.875 67.7237C49.4992 67.7237 49.9636 67.5264 50.3239 67.1354C50.6806 66.7481 50.8625 66.2381 50.8625 65.6165V41.5027C50.8625 40.8548 50.662 40.315 50.2607 39.9018H50.2645Z" fill="white"/>
</g>
<defs>
<filter id="filter0_d_449_5366" x="0" y="0" width="251.136" height="115.019" filterUnits="userSpaceOnUse" color-interpolation-filters="sRGB">
<feFlood flood-opacity="0" result="BackgroundImageFix"/>
<feColorMatrix in="SourceAlpha" type="matrix" values="0 0 0 0 0 0 0 0 0 0 0 0 0 0 0 0 0 0 127 0" result="hardAlpha"/>
<feOffset dy="4"/>
<feGaussianBlur stdDeviation="12"/>
<feComposite in2="hardAlpha" operator="out"/>
<feColorMatrix type="matrix" values="0 0 0 0 1 0 0 0 0 1 0 0 0 0 1 0 0 0 0.4 0"/>
<feBlend mode="normal" in2="BackgroundImageFix" result="effect1_dropShadow_449_5366"/>
<feBlend mode="normal" in="SourceGraphic" in2="effect1_dropShadow_449_5366" result="shape"/>
</filter>
</defs>
</svg>
