<svg width="336" height="168" viewBox="0 0 336 168" fill="none" xmlns="http://www.w3.org/2000/svg">
<g filter="url(#filter0_d_1390_9956)">
<path d="M123.875 100.849C123.994 100.867 124.021 100.867 124.14 100.886C126.121 101.151 128.073 101.508 129.558 102.176C130.942 102.789 131.749 103.557 132.492 104.93C133.619 107.016 133.693 109.925 132.675 112.139C131.914 113.786 130.255 115.158 128.733 115.89C127.156 116.659 125.598 117.015 123.81 117.226C120.694 117.564 117.32 116.924 114.506 115.57C112.847 114.756 110.811 113.365 109.794 111.572C109.042 110.254 109.07 108.543 109.977 107.29C111.435 105.296 114.561 104.856 116.917 104.939C118.714 105.012 121.94 105.561 123.645 106.165C124.122 106.339 125.864 107.016 126.166 107.327C126.377 107.546 126.515 107.857 126.423 108.15C126.038 109.339 123.141 109.962 122.307 110.09C120.07 110.428 118.906 109.586 116.367 108.58C115.734 108.333 114.891 108.059 114.249 108.004C113.094 107.894 111.701 108.214 111.481 109.477C111.371 110.126 112.132 110.73 112.718 110.986C114.084 111.572 115.193 111.782 116.532 111.8C120.501 111.864 124.956 111.215 128.201 108.919C128.641 108.598 129.081 108.141 129.091 107.555C129.109 106.375 127.037 105.652 127.037 105.652C124.855 104.747 120.813 104.298 118.732 104.134C116.55 103.941 113.112 103.667 112.287 103.539C111.435 103.42 110.518 103.246 109.776 102.917C109.033 102.587 108.318 101.837 108.098 101.014C107.722 99.5226 108.199 97.7019 109.033 96.5126C111.206 93.4019 116.284 92.2217 120.07 91.7551C123.746 91.2977 129.677 91.3068 133.289 93.2189C133.848 93.5209 134.133 93.7953 134.013 94.39C133.775 95.5062 132.941 96.2198 131.923 96.54C130.851 96.8785 128.641 97.0158 127.679 97.0706C123.334 97.3177 118.072 97.1896 113.937 98.3149C113.617 98.4064 113.048 98.5619 112.874 98.7632C112.223 99.4677 114.075 99.6689 114.478 99.7421C114.597 99.7696 114.616 99.7787 114.744 99.7879L123.875 100.849ZM98.0051 81.4992C98.0051 81.4992 98.7109 80.4379 99.3068 79.6328C100.389 78.1689 102.341 76.1379 103.808 74.8845C104.257 74.5002 104.789 74.0702 104.789 74.0702C104.789 74.0702 103.955 74.1526 103.487 74.2532C102.369 74.4728 100.737 75.5523 99.921 76.2568C98.5734 77.4096 97.0884 79.2851 97.7576 80.9502C97.8492 81.1881 98.0051 81.4992 98.0051 81.4992ZM105.504 83.5028C107.631 83.3564 109.629 82.7434 111.49 81.7187C113.314 80.7032 115.991 78.7179 115.716 76.3849C115.633 75.6255 115.138 75.0583 114.515 74.793C113.699 74.4453 113.277 74.5002 112.242 74.8021C111.49 75.0217 111.151 75.1589 110.436 75.5615C108.346 76.7783 105.385 79.3675 103.771 81.4351C103.395 81.92 103.019 82.4689 102.726 82.8441C102.543 83.0728 102.396 83.2832 102.414 83.3472C102.469 83.5851 104.67 83.5577 105.504 83.5028ZM100.077 87.4826C99.8568 87.7113 99.6277 88.2785 99.3801 88.6811C99.2518 88.9006 99.0135 89.1751 98.8576 89.2849C98.2984 89.6875 97.8309 89.7149 97.2992 89.2392C96.5475 88.5804 96.1167 87.5466 96.08 86.5494C96.0617 86.1102 96.135 85.6345 96.0525 85.2685C95.915 84.6464 95.2916 84.0151 94.9616 83.4204C94.5674 82.7251 94.2466 81.5083 94.2099 80.7215C94.0724 78.2696 95.365 76.0189 97.0517 74.2349C98.7476 72.4326 100.957 70.9413 103.368 69.9257C105.641 68.9651 108.978 68.3155 111.481 69.1847C112.297 69.4592 113.424 70.1545 114.002 70.8772C114.121 71.0236 114.222 71.1883 114.341 71.2706C114.451 71.3438 114.744 71.3713 114.973 71.4079C115.771 71.5451 116.917 72.1489 117.384 72.5515C118.328 73.3658 118.842 74.1343 119.08 75.2596C119.557 77.5194 118.255 80.0079 116.761 81.5175C114.212 84.1158 111.701 85.9455 108.437 87.2172C107.007 87.7753 104.78 88.2968 103.157 88.1504C102.653 88.1047 102.13 87.9766 101.644 87.94C101.397 87.9217 100.48 87.6838 100.379 87.6198C100.26 87.5283 100.104 87.446 100.077 87.4826ZM102.983 92.4962C103.084 92.5145 103.239 92.5602 103.368 92.606C104.514 93.036 104.981 94.0972 105.265 95.25C105.916 97.9398 106.191 103.896 106.301 106.229C106.384 107.985 106.42 109.705 106.494 111.434C106.558 112.898 106.677 114.847 106.365 116.219C106.255 116.713 105.925 117.29 105.449 117.583C104.908 117.93 103.67 117.958 102.992 117.811C101.324 117.464 100.774 116.393 100.535 114.746C99.9668 110.803 100.242 103.072 100.572 99.8153C100.682 98.7358 101.085 95.2866 101.654 93.8411C101.864 93.347 102.268 92.3589 102.983 92.4962ZM52.1055 99.056C52.1055 99.056 49.6121 99.2298 47.907 99.4219C45.7252 99.6598 41.6275 100.364 39.2716 101.206C38.5657 101.462 37.1265 102.057 36.9982 102.789C36.8698 103.539 37.3373 104.134 37.8599 104.747C38.1624 105.103 39.8675 106.741 40.3441 107.134C42.3517 108.809 46.4219 111.389 49.4196 112.633C50.4463 113.054 52.1513 113.667 52.1513 113.667C52.1513 113.667 52.023 108.827 52.0505 104.06C52.0505 101.544 52.1055 99.056 52.1055 99.056ZM97.7484 100.977C97.8951 102.276 97.5559 104.737 97.5009 105.058C97.3909 105.808 96.8317 107.528 96.74 107.738C96.2817 108.79 95.8325 109.641 95.3558 110.501C94.5399 111.965 92.5965 114.289 91.4506 115.286C87.1696 118.982 80.5326 121.087 74.8399 121.782C70.9805 122.249 66.5437 122.175 62.4551 121.425C61.0434 121.169 58.9533 120.684 58.9533 120.684C58.9533 120.684 58.9625 121.517 58.8891 122.111C58.8525 122.377 58.6508 123.09 58.5408 123.319C58.2475 123.932 57.7524 124.252 57.0466 124.38C56.1849 124.536 55.2773 124.591 54.4889 124.252C53.1872 123.703 52.7197 122.496 52.4905 121.096C52.3072 119.98 52.1147 118.031 52.1147 118.031C52.1147 118.031 51.143 117.573 50.3271 117.171C47.8336 115.945 45.4685 114.463 43.3968 112.935C42.8193 112.505 40.3625 110.446 39.8125 109.934C38.2907 108.489 36.9157 107.052 35.8706 105.204C35.0547 103.759 34.8256 102.487 35.4398 100.959C36.2923 98.8272 39.3449 97.2262 41.4442 96.3113C42.9843 95.6343 47.7603 94.0789 49.7404 93.7862C50.6754 93.6489 52.133 93.3928 52.2247 93.3379C52.2613 93.3104 52.2888 93.283 52.3163 93.2555C52.353 93.1915 52.4355 91.0872 52.4172 90.3187C52.3989 89.5594 52.9764 84.5824 53.1689 83.5302C53.2697 82.963 53.7006 80.7672 54.1406 80.1909C54.4248 79.8066 54.9381 79.834 55.3507 80.0902C57.6241 81.4992 58.3208 86.403 58.4858 88.8915C58.5866 90.4102 58.6416 92.6975 58.6416 92.6975C58.6416 92.6975 61.2542 92.6243 62.8585 92.67C64.4169 92.7066 66.1403 92.9536 67.7537 93.2098C69.8255 93.5392 73.8682 94.4174 76.1874 95.5977C78.0942 96.5675 79.8818 98.1868 80.4593 99.916C81.0001 101.499 80.9176 102.587 80.1018 104.015C79.1851 105.625 77.4433 106.823 75.6741 106.915C75.1515 106.942 73.1715 106.686 72.5573 106.21C72.3189 106.027 72.3281 105.689 72.5023 105.451C72.5664 105.36 73.4923 104.875 74.0423 104.582C74.3173 104.436 74.5465 104.271 74.7574 104.079C75.2066 103.676 75.6191 103.237 75.5732 102.725C75.5091 102.057 74.8032 101.645 74.1248 101.38C70.9622 100.126 64.6369 99.0834 61.5843 98.9004C60.3925 98.8272 58.6875 98.7723 58.6875 98.7723L59.045 115.597C59.045 115.597 60.4475 115.863 61.5568 116.046C62.1893 116.146 64.8844 116.384 65.5994 116.402C71.0447 116.549 77.1316 116.055 82.1277 113.703C84.337 112.679 86.3446 111.398 87.8755 109.66C89.883 107.363 90.9373 104.216 90.6622 100.922C90.3597 97.336 87.8296 93.0726 85.8037 90.4743C80.4593 83.6217 71.3014 77.9768 63.2527 74.674C55.0298 71.2981 46.8986 69.3585 38.1715 69.0383C35.9256 68.956 31.0121 69.0657 28.5369 69.7519C28.1794 69.8526 27.8219 69.9715 27.5011 70.0447C27.2444 70.1087 26.8319 70.2826 26.7219 70.374C26.6577 70.4198 26.5935 70.493 26.5935 70.493C26.5935 70.493 26.7494 70.5753 26.896 70.6394C27.1619 70.7583 28.2619 70.8223 28.8395 70.923C29.3528 71.0236 29.8845 71.2889 30.0953 71.6641C30.297 72.0209 30.3245 72.3045 30.077 72.5972C29.5178 73.2834 27.4002 73.1645 26.4652 73.0181C25.4935 72.8626 24.2926 72.5698 24.0726 71.7281C23.8159 70.74 24.2834 69.7702 24.7968 68.8645C25.8235 67.0713 27.2902 66.1381 29.4353 65.5526C32.488 64.7109 36.329 64.1345 39.2166 64.0247C45.7344 63.7777 51.9038 64.9121 58.2108 66.8334C61.8226 67.9221 66.5528 69.7519 70.018 71.417C72.5023 72.6155 76.4166 74.8113 78.6167 76.2477C79.3134 76.7051 83.3652 79.6785 83.9978 80.2092C85.3087 81.2796 87.0321 82.8258 88.2788 84.0609C90.6898 86.4487 93.6874 90.0992 95.145 92.9994C95.4933 93.6947 95.7683 94.3809 96.2175 95.186C96.3733 95.4604 97.0425 97.1072 97.1525 97.5921C97.2625 98.0679 97.4184 98.7541 97.4459 98.7815C97.4642 99.0194 97.7667 100.428 97.7484 100.977ZM179.665 97.2536C176.613 97.9581 168.592 98.3423 168.592 98.3423L167.583 101.508C167.583 101.508 171.589 101.169 174.514 101.471C174.514 101.471 175.458 101.362 175.568 102.542C175.604 103.64 175.476 104.82 175.476 104.82C175.476 104.82 175.412 105.533 174.404 105.716C173.303 105.899 165.759 106.192 165.759 106.192L164.54 110.318C164.54 110.318 164.081 111.27 165.099 110.995C166.043 110.739 173.945 109.266 174.981 109.477C176.081 109.751 177.31 111.215 176.952 112.56C176.53 114.216 168.647 119.239 163.843 118.891C163.843 118.891 161.322 119.056 159.186 115.652C157.197 112.413 159.938 106.274 159.938 106.274C159.938 106.274 158.682 103.411 159.59 102.441C159.59 102.441 160.13 101.947 161.707 101.837L163.641 97.8483C163.641 97.8483 161.441 98.0038 160.13 96.3845C158.911 94.8475 158.81 94.143 159.745 93.7221C160.745 93.2281 169.921 91.563 176.228 91.7734C176.228 91.7734 178.419 91.563 180.325 95.3598C180.307 95.3507 181.224 96.8877 179.665 97.2536ZM155.923 112.606C155.116 114.509 152.98 116.53 150.322 115.268C147.7 114.005 143.529 105.479 143.529 105.479C143.529 105.479 141.943 102.304 141.64 102.386C141.64 102.386 141.301 101.764 141.09 105.241C140.87 108.699 141.136 115.442 139.752 116.503C138.441 117.564 136.855 117.143 136.03 115.899C135.278 114.673 134.976 111.764 135.379 106.65C135.856 101.526 137.048 96.0734 138.579 94.3809C140.1 92.6975 141.32 93.9234 141.796 94.3626C141.796 94.3626 143.831 96.2015 147.186 101.609L147.782 102.606C147.782 102.606 150.835 107.711 151.147 107.702C151.147 107.702 151.394 107.94 151.614 107.766C151.935 107.674 151.807 106.037 151.807 106.037C151.807 106.037 151.174 100.474 148.387 91.0506C148.387 91.0506 147.966 89.8796 148.25 88.7726C148.534 87.6564 149.652 88.1779 149.652 88.1779C149.652 88.1779 153.961 90.3462 156.06 97.3451C158.141 104.372 156.748 110.693 155.923 112.606ZM202.336 108.415C200.374 111.837 194.828 118.992 187.467 117.299C185.037 123.182 182.993 129.138 181.82 138.049C181.82 138.049 181.563 139.778 180.124 139.183C178.694 138.68 176.338 136.31 175.861 133.035C175.348 128.726 177.273 121.443 181.196 113.09C180.05 111.233 179.271 108.58 179.94 104.792C179.94 104.792 180.93 97.7751 187.989 91.4441C187.989 91.4441 188.833 90.7121 189.328 90.9409C189.868 91.1696 189.621 93.4477 189.19 94.5638C188.741 95.6709 185.597 101.105 185.597 101.105C185.597 101.105 183.635 104.774 184.185 107.674C187.888 101.984 196.313 90.52 201.538 94.1338C203.289 95.3872 204.105 98.1136 204.105 101.05C204.105 103.612 203.491 106.357 202.336 108.415ZM200.814 99.4036C200.814 99.4036 200.521 97.1438 198.311 99.6324C196.405 101.737 192.967 105.671 190.208 111.023C193.114 110.693 195.91 109.129 196.753 108.324C198.119 107.107 201.327 103.804 200.814 99.4036ZM242.9 98.8913H229.406C229.14 94.3168 228.581 89.8521 227.71 85.2594C227.618 84.7836 227.206 84.436 226.72 84.436H223.612C223.337 84.436 223.081 84.5549 222.907 84.7653C222.732 84.9849 222.659 85.2502 222.714 85.5247C223.594 89.9711 224.162 94.3443 224.437 98.8913H211.457C210.852 98.8913 210.357 99.3762 210.357 99.98V102.78C210.357 103.383 210.852 103.877 211.457 103.877H224.63C224.639 104.573 224.648 105.186 224.648 105.771C224.648 109.806 224.474 113.136 224.062 116.887C224.025 117.18 224.126 117.464 224.318 117.683C224.511 117.894 224.786 118.022 225.07 118.022H227.958C228.517 118.022 228.984 117.601 229.048 117.043C229.443 113.264 229.608 109.897 229.608 105.78C229.608 105.204 229.599 104.582 229.589 103.887H242.9C243.505 103.887 244 103.393 244 102.789V99.9892C244 99.3853 243.505 98.8913 242.9 98.8913ZM62.4276 61.3623C62.2351 61.646 62.1893 61.9936 62.2993 62.3138C62.4185 62.6432 62.666 62.8902 62.9868 63L65.4069 63.8143C65.5536 63.86 65.7003 63.8875 65.8378 63.8875C66.287 63.8875 66.7087 63.6679 66.9562 63.2928C74.8857 51.6736 85.6112 41.994 97.9776 35.3153C110.747 28.417 125.213 24.7666 139.825 24.7666C157.472 24.7666 174.486 29.9632 189.053 39.7892C203.262 49.3772 214.299 62.7438 220.963 78.4526C221.165 78.9192 221.623 79.2302 222.137 79.2302H225.024C225.354 79.2302 225.666 79.0655 225.858 78.7819C226.051 78.5075 226.088 78.1506 225.959 77.8396C219.084 60.9415 207.451 46.5411 192.325 36.1936C176.842 25.5991 158.682 20 139.825 20C108.639 20 79.7076 35.4617 62.4276 61.3623Z" fill="white"/>
</g>
<g filter="url(#filter1_d_1390_9956)">
<path d="M311.753 67.2058C311.548 66.919 311.235 66.7278 310.886 66.6754L305.631 65.8828L303.154 60.998C302.995 60.6834 302.713 60.446 302.379 60.3411C302.045 60.2363 301.681 60.2702 301.372 60.4398L298.429 62.0372L297.593 55.6136C297.547 55.262 297.363 54.9444 297.081 54.7346C296.8 54.5219 296.447 54.4324 296.098 54.4879L290.846 55.302L287.037 51.3793C286.544 50.8736 285.662 50.8736 285.172 51.3793L281.43 55.2341L277.691 51.3793C277.201 50.8736 276.316 50.8736 275.823 51.3793L272.016 55.302L266.765 54.4879C266.419 54.4324 266.063 54.5219 265.782 54.7346C265.5 54.9474 265.316 55.2651 265.27 55.6136L264.44 61.9694L261.626 60.4398C261.317 60.2733 260.952 60.2363 260.619 60.3411C260.282 60.446 260.003 60.6834 259.844 60.998L257.366 65.8828L252.111 66.6754C251.765 66.7278 251.453 66.919 251.248 67.2058C251.043 67.4926 250.96 67.8504 251.018 68.1988L252.157 74.8322C252.225 75.2269 252.467 75.5662 252.816 75.7604L259.384 79.3994L254.861 80.8858C254.528 80.9969 254.252 81.2374 254.096 81.552C253.94 81.8696 253.918 82.2366 254.035 82.5697L256.252 88.9225C256.383 89.2987 256.677 89.5947 257.051 89.7273L268.195 93.65L254.665 117.43C254.399 117.898 254.445 118.487 254.782 118.907C255.119 119.326 255.679 119.496 256.19 119.336L264.122 116.807L265.971 124.976C266.091 125.504 266.519 125.904 267.052 125.985C267.117 125.994 267.181 126 267.245 126C267.708 126 268.142 125.753 268.375 125.34L281.5 102.269L294.622 125.34C294.857 125.753 295.292 126 295.755 126C295.819 126 295.883 125.994 295.948 125.985C296.48 125.904 296.909 125.503 297.029 124.976L298.875 116.807L306.81 119.336C307.321 119.499 307.881 119.329 308.218 118.907C308.555 118.484 308.601 117.898 308.335 117.43L294.808 93.6532L305.952 89.7305C306.329 89.5979 306.623 89.3018 306.751 88.9256L308.969 82.5728C309.085 82.2398 309.063 81.8728 308.907 81.5551C308.751 81.2375 308.475 80.9969 308.142 80.889L303.619 79.4026L310.184 75.7636C310.53 75.5724 310.775 75.2301 310.843 74.8353L311.982 68.202C312.04 67.8504 311.958 67.4926 311.753 67.2058ZM301.644 81.5181L306.063 82.9706L304.498 87.4607L293.492 91.334L292.239 91.775L292.031 91.849L292.187 91.6856L293.128 90.6957L298.11 85.4654C298.385 85.1786 298.514 84.7808 298.462 84.3861L298.205 82.4031L298.024 81.0031L297.84 79.603L297.592 77.7065C297.546 77.3642 297.369 77.0558 297.096 76.8461L299.362 76.069L300.079 78.3603L300.48 79.637L300.802 80.6609C300.826 80.7441 300.866 80.8243 300.909 80.8983C301.068 81.1882 301.325 81.4133 301.644 81.5181ZM298.312 113.874C297.966 113.763 297.586 113.803 297.271 113.988C296.955 114.17 296.729 114.478 296.646 114.836L295.225 121.112L283.003 99.6262L282.25 98.3032L281.5 96.9802L281.022 96.1414H287.379C287.398 96.1414 287.416 96.1321 287.435 96.129C287.462 96.1321 287.49 96.1414 287.517 96.1414C287.661 96.1414 287.808 96.1167 287.949 96.0673L292.304 94.5347L304.406 115.816L298.312 113.874ZM267.775 121.112L266.354 114.836C266.271 114.478 266.048 114.17 265.729 113.988C265.53 113.874 265.307 113.812 265.08 113.812C264.948 113.812 264.814 113.831 264.685 113.874L258.594 115.817L270.699 94.538L275.054 96.0707C275.195 96.1201 275.338 96.1447 275.485 96.1447H278.018L279.999 99.6295L267.775 121.112ZM259.387 67.6803L261.565 63.3906L265.396 65.4722L265.809 65.6974L266.372 67.5168L267.297 70.5113L268.188 73.3916L268.694 75.023L267.567 74.6375L264.881 73.7154L263.221 73.148C262.891 73.0339 262.526 73.0585 262.211 73.2189C261.898 73.3792 261.663 73.6599 261.555 73.996L260.591 77.0675L254.625 73.7616L253.823 69.0742L258.423 68.3803C258.833 68.3186 259.194 68.0596 259.387 67.6803ZM267.686 57.2877L272.283 58.0001C272.696 58.0648 273.122 57.923 273.416 57.6208L276.76 54.1761L280.502 58.0309C280.992 58.5366 281.877 58.5366 282.37 58.0309L286.109 54.1761L289.456 57.6208C289.75 57.923 290.173 58.0648 290.586 58.0001L295.179 57.2877L295.795 62.0061L292.727 65.2256L290.849 65.5155L287.04 61.5928C286.547 61.087 285.665 61.087 285.175 61.5928L281.433 65.4476L277.691 61.5928C277.201 61.087 276.316 61.087 275.823 61.5928L272.016 65.5155L270.139 65.2256L267.071 62.0061L267.686 57.2877ZM295.565 82.3629L295.746 83.7629L295.792 84.1021L291.771 88.3209L290.828 89.3108L289.888 90.2977L288.393 91.8643L287.254 93.0608L286.822 93.5141H276.037L275.724 93.1873L274.582 91.9877L273.057 90.3841L272.114 89.3972L271.174 88.4073L267.07 84.0992L267.122 83.689L267.303 82.289L267.487 80.8889L267.683 79.3778L270.111 79.754L270.721 79.8496L270.779 79.8589L271.416 79.9576L272.276 80.0902C272.304 80.0933 272.331 80.0902 272.359 80.0933C272.488 80.1056 272.613 80.0964 272.736 80.0686C272.739 80.0686 272.742 80.0686 272.745 80.0655C272.993 80.0131 273.226 79.8959 273.409 79.7078L273.811 79.2946L276.753 76.2631L280.496 80.118C280.985 80.6237 281.87 80.6237 282.363 80.118L286.103 76.2631L289.045 79.2946L289.447 79.7078C289.63 79.8959 289.866 80.0131 290.117 80.0655C290.163 80.0748 290.206 80.0871 290.252 80.0933C290.359 80.1025 290.469 80.1025 290.58 80.0871L290.641 80.0779L291.572 79.9329L292.138 79.8435L292.227 79.8281L292.876 79.7263L293.81 79.5814L295.17 79.3686L295.375 80.9506L295.565 82.3629ZM290.846 77.3947L287.56 74.0117L287.037 73.472C286.544 72.9663 285.662 72.9663 285.172 73.472L284.611 74.0487L281.429 77.3268L278.248 74.0487L277.687 73.472C277.197 72.9663 276.312 72.9663 275.819 73.472L275.296 74.0117L272.114 77.2898L269.287 68.1367L269.168 67.7358L270.99 68.0195L272.279 68.22C272.497 68.2539 272.72 68.2261 272.922 68.1521C273.103 68.0843 273.271 67.9825 273.412 67.8407L276.756 64.396L280.498 68.2508C280.988 68.7565 281.873 68.7565 282.366 68.2508L286.105 64.396L289.453 67.8407C289.59 67.9825 289.759 68.0874 289.939 68.1521C290.145 68.2261 290.362 68.2539 290.583 68.22L291.872 68.0195L293.838 67.7142L293.773 67.9208L290.846 77.3947ZM262.088 80.9011C262.131 80.824 262.167 80.7469 262.195 80.6636L262.516 79.6398L262.918 78.363L263.637 76.0718L265.808 76.818C265.799 76.8242 265.79 76.8242 265.781 76.8304C265.499 77.0432 265.315 77.3608 265.269 77.7093L265.031 79.535L264.85 80.935L264.666 82.335L264.4 84.3889C264.348 84.7837 264.476 85.1815 264.752 85.4683L269.823 90.7911L270.763 91.7779L269.511 91.3369L258.502 87.4574L256.937 82.9703L261.359 81.5179C261.674 81.413 261.932 81.1879 262.088 80.9011ZM308.377 73.765L302.415 77.0709L301.451 73.9994C301.343 73.6632 301.108 73.3826 300.795 73.2222C300.483 73.0619 300.118 73.0341 299.785 73.1513L297.923 73.7897L295.234 74.7118L294.312 75.0263L294.885 73.1822L295.611 70.8292L296.535 67.8317L297.194 65.7007L297.491 65.5404L301.435 63.3971L303.612 67.6868C303.802 68.0661 304.164 68.3251 304.58 68.3899L309.18 69.0838L308.377 73.765Z" fill="#FF6F61"/>
</g>
<defs>
<filter id="filter0_d_1390_9956" x="0" y="0" width="268" height="167.308" filterUnits="userSpaceOnUse" color-interpolation-filters="sRGB">
<feFlood flood-opacity="0" result="BackgroundImageFix"/>
<feColorMatrix in="SourceAlpha" type="matrix" values="0 0 0 0 0 0 0 0 0 0 0 0 0 0 0 0 0 0 127 0" result="hardAlpha"/>
<feOffset dy="4"/>
<feGaussianBlur stdDeviation="12"/>
<feComposite in2="hardAlpha" operator="out"/>
<feColorMatrix type="matrix" values="0 0 0 0 1 0 0 0 0 1 0 0 0 0 1 0 0 0 0.4 0"/>
<feBlend mode="normal" in2="BackgroundImageFix" result="effect1_dropShadow_1390_9956"/>
<feBlend mode="normal" in="SourceGraphic" in2="effect1_dropShadow_1390_9956" result="shape"/>
</filter>
<filter id="filter1_d_1390_9956" x="227" y="31" width="109" height="123" filterUnits="userSpaceOnUse" color-interpolation-filters="sRGB">
<feFlood flood-opacity="0" result="BackgroundImageFix"/>
<feColorMatrix in="SourceAlpha" type="matrix" values="0 0 0 0 0 0 0 0 0 0 0 0 0 0 0 0 0 0 127 0" result="hardAlpha"/>
<feOffset dy="4"/>
<feGaussianBlur stdDeviation="12"/>
<feComposite in2="hardAlpha" operator="out"/>
<feColorMatrix type="matrix" values="0 0 0 0 1 0 0 0 0 1 0 0 0 0 1 0 0 0 0.4 0"/>
<feBlend mode="normal" in2="BackgroundImageFix" result="effect1_dropShadow_1390_9956"/>
<feBlend mode="normal" in="SourceGraphic" in2="effect1_dropShadow_1390_9956" result="shape"/>
</filter>
</defs>
</svg>
