<svg width="268" height="168" viewBox="0 0 268 168" fill="none" xmlns="http://www.w3.org/2000/svg">
<g filter="url(#filter0_d_1251_8670)">
<path d="M123.875 100.849C123.994 100.867 124.021 100.867 124.14 100.886C126.121 101.151 128.073 101.508 129.558 102.176C130.942 102.789 131.749 103.557 132.492 104.93C133.619 107.016 133.693 109.925 132.675 112.139C131.914 113.786 130.255 115.158 128.733 115.89C127.156 116.659 125.598 117.015 123.81 117.226C120.694 117.564 117.32 116.924 114.506 115.57C112.847 114.756 110.811 113.365 109.794 111.572C109.042 110.254 109.07 108.543 109.977 107.29C111.435 105.296 114.561 104.856 116.917 104.939C118.714 105.012 121.94 105.561 123.645 106.165C124.122 106.339 125.864 107.016 126.166 107.327C126.377 107.546 126.515 107.857 126.423 108.15C126.038 109.339 123.141 109.962 122.307 110.09C120.07 110.428 118.906 109.586 116.367 108.58C115.734 108.333 114.891 108.059 114.249 108.004C113.094 107.894 111.701 108.214 111.481 109.477C111.371 110.126 112.132 110.73 112.718 110.986C114.084 111.572 115.193 111.782 116.532 111.8C120.501 111.864 124.956 111.215 128.201 108.919C128.641 108.598 129.081 108.141 129.091 107.555C129.109 106.375 127.037 105.652 127.037 105.652C124.855 104.747 120.813 104.298 118.732 104.134C116.55 103.941 113.112 103.667 112.287 103.539C111.435 103.42 110.518 103.246 109.776 102.917C109.033 102.587 108.318 101.837 108.098 101.014C107.722 99.5226 108.199 97.7019 109.033 96.5126C111.206 93.4019 116.284 92.2217 120.07 91.7551C123.746 91.2977 129.677 91.3068 133.289 93.2189C133.848 93.5209 134.133 93.7953 134.013 94.39C133.775 95.5062 132.941 96.2198 131.923 96.54C130.851 96.8785 128.641 97.0158 127.679 97.0706C123.334 97.3177 118.072 97.1896 113.937 98.3149C113.617 98.4064 113.048 98.5619 112.874 98.7632C112.223 99.4677 114.075 99.6689 114.478 99.7421C114.597 99.7696 114.616 99.7787 114.744 99.7879L123.875 100.849ZM98.0051 81.4992C98.0051 81.4992 98.7109 80.4379 99.3068 79.6328C100.389 78.1689 102.341 76.1379 103.808 74.8845C104.257 74.5002 104.789 74.0702 104.789 74.0702C104.789 74.0702 103.955 74.1526 103.487 74.2532C102.369 74.4728 100.737 75.5523 99.921 76.2568C98.5734 77.4096 97.0884 79.2851 97.7576 80.9502C97.8492 81.1881 98.0051 81.4992 98.0051 81.4992ZM105.504 83.5028C107.631 83.3564 109.629 82.7434 111.49 81.7187C113.314 80.7032 115.991 78.7179 115.716 76.3849C115.633 75.6255 115.138 75.0583 114.515 74.793C113.699 74.4453 113.277 74.5002 112.242 74.8021C111.49 75.0217 111.151 75.1589 110.436 75.5615C108.346 76.7783 105.385 79.3675 103.771 81.4351C103.395 81.92 103.019 82.4689 102.726 82.8441C102.543 83.0728 102.396 83.2832 102.414 83.3472C102.469 83.5851 104.67 83.5577 105.504 83.5028ZM100.077 87.4826C99.8568 87.7113 99.6277 88.2785 99.3801 88.6811C99.2518 88.9006 99.0135 89.1751 98.8576 89.2849C98.2984 89.6875 97.8309 89.7149 97.2992 89.2392C96.5475 88.5804 96.1167 87.5466 96.08 86.5494C96.0617 86.1102 96.135 85.6345 96.0525 85.2685C95.915 84.6464 95.2916 84.0151 94.9616 83.4204C94.5674 82.7251 94.2466 81.5083 94.2099 80.7215C94.0724 78.2696 95.365 76.0189 97.0517 74.2349C98.7476 72.4326 100.957 70.9413 103.368 69.9257C105.641 68.9651 108.978 68.3155 111.481 69.1847C112.297 69.4592 113.424 70.1545 114.002 70.8772C114.121 71.0236 114.222 71.1883 114.341 71.2706C114.451 71.3438 114.744 71.3713 114.973 71.4079C115.771 71.5451 116.917 72.1489 117.384 72.5515C118.328 73.3658 118.842 74.1343 119.08 75.2596C119.557 77.5194 118.255 80.0079 116.761 81.5175C114.212 84.1158 111.701 85.9455 108.437 87.2172C107.007 87.7753 104.78 88.2968 103.157 88.1504C102.653 88.1047 102.13 87.9766 101.644 87.94C101.397 87.9217 100.48 87.6838 100.379 87.6198C100.26 87.5283 100.104 87.446 100.077 87.4826ZM102.983 92.4962C103.084 92.5145 103.239 92.5602 103.368 92.606C104.514 93.036 104.981 94.0972 105.265 95.25C105.916 97.9398 106.191 103.896 106.301 106.229C106.384 107.985 106.42 109.705 106.494 111.434C106.558 112.898 106.677 114.847 106.365 116.219C106.255 116.713 105.925 117.29 105.449 117.583C104.908 117.93 103.67 117.958 102.992 117.811C101.324 117.464 100.774 116.393 100.535 114.746C99.9668 110.803 100.242 103.072 100.572 99.8153C100.682 98.7358 101.085 95.2866 101.654 93.8411C101.864 93.347 102.268 92.3589 102.983 92.4962ZM52.1055 99.056C52.1055 99.056 49.6121 99.2298 47.907 99.4219C45.7252 99.6598 41.6275 100.364 39.2716 101.206C38.5657 101.462 37.1265 102.057 36.9982 102.789C36.8698 103.539 37.3373 104.134 37.8599 104.747C38.1624 105.103 39.8675 106.741 40.3441 107.134C42.3517 108.809 46.4219 111.389 49.4196 112.633C50.4463 113.054 52.1513 113.667 52.1513 113.667C52.1513 113.667 52.023 108.827 52.0505 104.06C52.0505 101.544 52.1055 99.056 52.1055 99.056ZM97.7484 100.977C97.8951 102.276 97.5559 104.737 97.5009 105.058C97.3909 105.808 96.8317 107.528 96.74 107.738C96.2817 108.79 95.8325 109.641 95.3558 110.501C94.5399 111.965 92.5965 114.289 91.4506 115.286C87.1696 118.982 80.5326 121.087 74.8399 121.782C70.9805 122.249 66.5437 122.175 62.4551 121.425C61.0434 121.169 58.9533 120.684 58.9533 120.684C58.9533 120.684 58.9625 121.517 58.8891 122.111C58.8525 122.377 58.6508 123.09 58.5408 123.319C58.2475 123.932 57.7524 124.252 57.0466 124.38C56.1849 124.536 55.2773 124.591 54.4889 124.252C53.1872 123.703 52.7197 122.496 52.4905 121.096C52.3072 119.98 52.1147 118.031 52.1147 118.031C52.1147 118.031 51.143 117.573 50.3271 117.171C47.8336 115.945 45.4685 114.463 43.3968 112.935C42.8193 112.505 40.3625 110.446 39.8125 109.934C38.2907 108.489 36.9157 107.052 35.8706 105.204C35.0547 103.759 34.8256 102.487 35.4398 100.959C36.2923 98.8272 39.3449 97.2262 41.4442 96.3113C42.9843 95.6343 47.7603 94.0789 49.7404 93.7862C50.6754 93.6489 52.133 93.3928 52.2247 93.3379C52.2613 93.3104 52.2888 93.283 52.3163 93.2555C52.353 93.1915 52.4355 91.0872 52.4172 90.3187C52.3989 89.5594 52.9764 84.5824 53.1689 83.5302C53.2697 82.963 53.7006 80.7672 54.1406 80.1909C54.4248 79.8066 54.9381 79.834 55.3507 80.0902C57.6241 81.4992 58.3208 86.403 58.4858 88.8915C58.5866 90.4102 58.6416 92.6975 58.6416 92.6975C58.6416 92.6975 61.2542 92.6243 62.8585 92.67C64.4169 92.7066 66.1403 92.9536 67.7537 93.2098C69.8255 93.5392 73.8682 94.4174 76.1874 95.5977C78.0942 96.5675 79.8818 98.1868 80.4593 99.916C81.0001 101.499 80.9176 102.587 80.1018 104.015C79.1851 105.625 77.4433 106.823 75.6741 106.915C75.1515 106.942 73.1715 106.686 72.5573 106.21C72.3189 106.027 72.3281 105.689 72.5023 105.451C72.5664 105.36 73.4923 104.875 74.0423 104.582C74.3173 104.436 74.5465 104.271 74.7574 104.079C75.2066 103.676 75.6191 103.237 75.5732 102.725C75.5091 102.057 74.8032 101.645 74.1248 101.38C70.9622 100.126 64.6369 99.0834 61.5843 98.9004C60.3925 98.8272 58.6875 98.7723 58.6875 98.7723L59.045 115.597C59.045 115.597 60.4475 115.863 61.5568 116.046C62.1893 116.146 64.8844 116.384 65.5994 116.402C71.0447 116.549 77.1316 116.055 82.1277 113.703C84.337 112.679 86.3446 111.398 87.8755 109.66C89.883 107.363 90.9373 104.216 90.6622 100.922C90.3597 97.336 87.8296 93.0726 85.8037 90.4743C80.4593 83.6217 71.3014 77.9768 63.2527 74.674C55.0298 71.2981 46.8986 69.3585 38.1715 69.0383C35.9256 68.956 31.0121 69.0657 28.5369 69.7519C28.1794 69.8526 27.8219 69.9715 27.5011 70.0447C27.2444 70.1087 26.8319 70.2826 26.7219 70.374C26.6577 70.4198 26.5935 70.493 26.5935 70.493C26.5935 70.493 26.7494 70.5753 26.896 70.6394C27.1619 70.7583 28.2619 70.8223 28.8395 70.923C29.3528 71.0236 29.8845 71.2889 30.0953 71.6641C30.297 72.0209 30.3245 72.3045 30.077 72.5972C29.5178 73.2834 27.4002 73.1645 26.4652 73.0181C25.4935 72.8626 24.2926 72.5698 24.0726 71.7281C23.8159 70.74 24.2834 69.7702 24.7968 68.8645C25.8235 67.0713 27.2902 66.1381 29.4353 65.5526C32.488 64.7109 36.329 64.1345 39.2166 64.0247C45.7344 63.7777 51.9038 64.9121 58.2108 66.8334C61.8226 67.9221 66.5528 69.7519 70.018 71.417C72.5023 72.6155 76.4166 74.8113 78.6167 76.2477C79.3134 76.7051 83.3652 79.6785 83.9978 80.2092C85.3087 81.2796 87.0321 82.8258 88.2788 84.0609C90.6898 86.4487 93.6874 90.0992 95.145 92.9994C95.4933 93.6947 95.7683 94.3809 96.2175 95.186C96.3733 95.4604 97.0425 97.1072 97.1525 97.5921C97.2625 98.0679 97.4184 98.7541 97.4459 98.7815C97.4642 99.0194 97.7667 100.428 97.7484 100.977ZM179.665 97.2536C176.613 97.9581 168.592 98.3423 168.592 98.3423L167.583 101.508C167.583 101.508 171.589 101.169 174.514 101.471C174.514 101.471 175.458 101.362 175.568 102.542C175.604 103.64 175.476 104.82 175.476 104.82C175.476 104.82 175.412 105.533 174.404 105.716C173.303 105.899 165.759 106.192 165.759 106.192L164.54 110.318C164.54 110.318 164.081 111.27 165.099 110.995C166.043 110.739 173.945 109.266 174.981 109.477C176.081 109.751 177.31 111.215 176.952 112.56C176.53 114.216 168.647 119.239 163.843 118.891C163.843 118.891 161.322 119.056 159.186 115.652C157.197 112.413 159.938 106.274 159.938 106.274C159.938 106.274 158.682 103.411 159.59 102.441C159.59 102.441 160.13 101.947 161.707 101.837L163.641 97.8483C163.641 97.8483 161.441 98.0038 160.13 96.3845C158.911 94.8475 158.81 94.143 159.745 93.7221C160.745 93.2281 169.921 91.563 176.228 91.7734C176.228 91.7734 178.419 91.563 180.325 95.3598C180.307 95.3507 181.224 96.8877 179.665 97.2536ZM155.923 112.606C155.116 114.509 152.98 116.53 150.322 115.268C147.7 114.005 143.529 105.479 143.529 105.479C143.529 105.479 141.943 102.304 141.64 102.386C141.64 102.386 141.301 101.764 141.09 105.241C140.87 108.699 141.136 115.442 139.752 116.503C138.441 117.564 136.855 117.143 136.03 115.899C135.278 114.673 134.976 111.764 135.379 106.65C135.856 101.526 137.048 96.0734 138.579 94.3809C140.1 92.6975 141.32 93.9234 141.796 94.3626C141.796 94.3626 143.831 96.2015 147.186 101.609L147.782 102.606C147.782 102.606 150.835 107.711 151.147 107.702C151.147 107.702 151.394 107.94 151.614 107.766C151.935 107.674 151.807 106.037 151.807 106.037C151.807 106.037 151.174 100.474 148.387 91.0506C148.387 91.0506 147.966 89.8796 148.25 88.7726C148.534 87.6564 149.652 88.1779 149.652 88.1779C149.652 88.1779 153.961 90.3462 156.06 97.3451C158.141 104.372 156.748 110.693 155.923 112.606ZM202.336 108.415C200.374 111.837 194.828 118.992 187.467 117.299C185.037 123.182 182.993 129.138 181.82 138.049C181.82 138.049 181.563 139.778 180.124 139.183C178.694 138.68 176.338 136.31 175.861 133.035C175.348 128.726 177.273 121.443 181.196 113.09C180.05 111.233 179.271 108.58 179.94 104.792C179.94 104.792 180.93 97.7751 187.989 91.4441C187.989 91.4441 188.833 90.7121 189.328 90.9409C189.868 91.1696 189.621 93.4477 189.19 94.5638C188.741 95.6709 185.597 101.105 185.597 101.105C185.597 101.105 183.635 104.774 184.185 107.674C187.888 101.984 196.313 90.52 201.538 94.1338C203.289 95.3872 204.105 98.1136 204.105 101.05C204.105 103.612 203.491 106.357 202.336 108.415ZM200.814 99.4036C200.814 99.4036 200.521 97.1438 198.311 99.6324C196.405 101.737 192.967 105.671 190.208 111.023C193.114 110.693 195.91 109.129 196.753 108.324C198.119 107.107 201.327 103.804 200.814 99.4036ZM242.9 98.8913H229.406C229.14 94.3168 228.581 89.8521 227.71 85.2594C227.618 84.7836 227.206 84.436 226.72 84.436H223.612C223.337 84.436 223.081 84.5549 222.907 84.7653C222.732 84.9849 222.659 85.2502 222.714 85.5247C223.594 89.9711 224.162 94.3443 224.437 98.8913H211.457C210.852 98.8913 210.357 99.3762 210.357 99.98V102.78C210.357 103.383 210.852 103.877 211.457 103.877H224.63C224.639 104.573 224.648 105.186 224.648 105.771C224.648 109.806 224.474 113.136 224.062 116.887C224.025 117.18 224.126 117.464 224.318 117.683C224.511 117.894 224.786 118.022 225.07 118.022H227.958C228.517 118.022 228.984 117.601 229.048 117.043C229.443 113.264 229.608 109.897 229.608 105.78C229.608 105.204 229.599 104.582 229.589 103.887H242.9C243.505 103.887 244 103.393 244 102.789V99.9892C244 99.3853 243.505 98.8913 242.9 98.8913ZM62.4276 61.3623C62.2351 61.646 62.1893 61.9936 62.2993 62.3138C62.4185 62.6432 62.666 62.8902 62.9868 63L65.4069 63.8143C65.5536 63.86 65.7003 63.8875 65.8378 63.8875C66.287 63.8875 66.7087 63.6679 66.9562 63.2928C74.8857 51.6736 85.6112 41.994 97.9776 35.3153C110.747 28.417 125.213 24.7666 139.825 24.7666C157.472 24.7666 174.486 29.9632 189.053 39.7892C203.262 49.3772 214.299 62.7438 220.963 78.4526C221.165 78.9192 221.623 79.2302 222.137 79.2302H225.024C225.354 79.2302 225.666 79.0655 225.858 78.7819C226.051 78.5075 226.088 78.1506 225.959 77.8396C219.084 60.9415 207.451 46.5411 192.325 36.1936C176.842 25.5991 158.682 20 139.825 20C108.639 20 79.7076 35.4617 62.4276 61.3623Z" fill="white"/>
<path d="M36.4993 46.9903C36.6868 46.624 55.0032 33.1145 61.5088 31.544C68.0123 29.9929 72.6589 35.4233 77.5098 36.2131C82.3588 37.0222 99.142 50.6078 89.6525 70.0091L84.7006 67.5183C84.7006 67.5183 87.5168 56.648 81.8983 53.7902C81.8983 53.7902 82.423 56.9624 80.1859 59.3793C77.9699 61.7991 45.3605 51.3176 45.3605 51.3176L36.4993 46.9903Z" fill="#ED4343"/>
<path d="M61.9543 31.5729C62.8782 31.3459 63.7438 31.2688 64.5992 31.2891C58.9932 34.9128 45.1692 43.9889 43.2045 46.8158C42.4224 47.9511 41.3948 48.5585 40.2767 48.7979L36.8487 47.1167C37.0369 46.7479 55.4253 33.1331 61.9543 31.5729Z" fill="#C92D2D"/>
<path d="M81.742 58.6988C81.742 58.6988 54.7569 47.129 36.2935 46.9067C36.2935 46.9067 32.2935 49.4091 32.049 54.3334C31.8046 59.2576 32.8515 58.5902 37.0023 59.0791C41.1532 59.568 69.1037 65.6173 78.7107 70.1103C78.7087 70.1293 83.0247 65.2395 81.742 58.6988Z" fill="#F4F4F4"/>
<path d="M78.1975 50.1528C90.8993 52.9162 88.1828 65.7532 88.1828 65.7532C88.1828 65.7532 87.8173 67.3992 87.3541 69.1513L84.2426 67.581C84.2426 67.581 87.1004 56.5203 81.3954 53.6114C81.3954 53.6114 81.9286 56.8395 79.6576 59.2985C79.2667 59.7232 78.0066 59.7477 76.1429 59.5286C79.156 55.975 78.1975 50.1528 78.1975 50.1528Z" fill="#C92D2D"/>
<path d="M80.1286 69.3018C79.9734 70.8037 80.4719 72.3343 81.5145 73.5567C82.5571 74.7791 84.0583 75.5933 85.6879 75.8202C87.3175 76.047 88.9421 75.668 90.2041 74.7664C91.4662 73.8648 92.2624 72.5145 92.4175 71.0126C92.5727 69.5107 92.0742 67.9801 91.0316 66.7577C89.9891 65.5353 88.4878 64.7211 86.8582 64.4942C85.2286 64.2674 83.6041 64.6464 82.342 65.548C81.08 66.4496 80.2838 67.7999 80.1286 69.3018Z" fill="#F4F4F4"/>
<path d="M86.9198 64.4788C87.8163 64.6035 88.6306 64.8962 89.3665 65.3177C86.8506 66.4037 83.373 68.413 84.5622 70.7323C85.5858 72.7693 86.1052 74.6564 87.7092 75.8966C87.0932 75.9904 86.4213 75.9966 85.7595 75.9046C82.344 75.4296 79.8333 72.4878 80.1587 69.3421C80.4841 66.1964 83.5043 64.0038 86.9198 64.4788Z" fill="#D1D1D1"/>
<path d="M42.2497 47.7228C42.2497 47.7228 42.0605 47.5039 41.7369 47.1509C59.6387 49.1117 81.7351 58.5954 81.7351 58.5954C82.5608 62.8397 81.0389 66.3967 79.8761 68.3617C71.2279 63.6096 42.7175 59.1774 39.3088 56.8781C35.7805 54.5045 42.2497 47.7228 42.2497 47.7228Z" fill="#F4F4F4"/>
<path d="M37.0014 59.1132C32.8515 58.6046 31.8024 59.2916 32.0467 54.3626C32.291 49.4337 36.2919 46.929 36.2919 46.929C38.0511 46.9568 39.8651 47.0693 41.7526 47.2883C42.2569 47.3379 42.8409 47.4369 42.8409 47.4369C42.8409 47.4369 35.8171 54.6456 39.3434 57.0386C42.7523 59.3383 71.2426 63.7682 79.9121 68.5238C79.2683 69.5945 78.7375 70.1978 78.7375 70.1978C69.1111 65.6591 41.1513 59.6217 37.0014 59.1132Z" fill="#D1D1D1"/>
</g>
<defs>
<filter id="filter0_d_1251_8670" x="0" y="0" width="268" height="167.308" filterUnits="userSpaceOnUse" color-interpolation-filters="sRGB">
<feFlood flood-opacity="0" result="BackgroundImageFix"/>
<feColorMatrix in="SourceAlpha" type="matrix" values="0 0 0 0 0 0 0 0 0 0 0 0 0 0 0 0 0 0 127 0" result="hardAlpha"/>
<feOffset dy="4"/>
<feGaussianBlur stdDeviation="12"/>
<feComposite in2="hardAlpha" operator="out"/>
<feColorMatrix type="matrix" values="0 0 0 0 1 0 0 0 0 1 0 0 0 0 1 0 0 0 0.4 0"/>
<feBlend mode="normal" in2="BackgroundImageFix" result="effect1_dropShadow_1251_8670"/>
<feBlend mode="normal" in="SourceGraphic" in2="effect1_dropShadow_1251_8670" result="shape"/>
</filter>
</defs>
</svg>
