<svg width="309" height="187" viewBox="0 0 309 187" fill="none" xmlns="http://www.w3.org/2000/svg">
<g filter="url(#filter0_d_1251_8701)">
<path d="M117.693 31.5399C114.013 34.6899 110.123 37.4399 106.923 40.8399C102.783 45.2299 99.2434 50.1599 95.3634 54.7699C94.0137 56.3661 92.4948 57.8113 90.8334 59.0799C90.4322 59.2488 89.9944 59.3117 89.5618 59.2627C89.1293 59.2137 88.7166 59.0543 88.3634 58.7999C87.6634 58.0899 88.3634 57.4899 89.1034 56.7299C91.2434 54.6599 92.9634 52.1499 94.9834 49.9299C98.9834 45.5199 102.883 40.9899 107.183 36.9299C112.303 32.0399 117.803 27.5499 123.183 22.9299C124.183 22.0399 125.263 21.0499 126.353 22.7399C126.633 23.1699 126.683 24.2199 126.353 24.4699C123.553 26.8099 120.663 29.1099 117.693 31.5399Z" fill="#FCF2B3"/>
<path d="M81.6535 95.6403C81.6535 101.98 81.6535 108.12 81.6535 114.26C81.6535 115.35 82.0135 116.43 82.0135 117.52C82.0135 118.61 81.8635 119.91 80.1735 119.88C78.4835 119.85 78.4335 118.74 78.4235 117.62C78.4235 113.62 78.4235 109.69 78.4235 105.73C78.4235 103.23 78.0435 100.73 78.0635 98.2403C78.0635 94.2403 78.2035 90.2403 78.4635 86.3103C78.7535 81.9703 79.2035 77.6303 79.7035 73.3103C79.7635 72.7703 80.5335 72.3103 80.9835 71.8203C81.4835 72.3203 82.4235 72.8203 82.4135 73.3303C82.2935 76.5203 81.9635 79.7003 81.7135 82.8903C81.7135 83.4903 81.7135 84.0903 81.7135 84.6903C81.5935 86.5803 81.3535 88.4803 81.3435 90.3703C81.2735 92.0603 81.5135 93.7503 81.6535 95.6403Z" fill="#FCF2B3"/>
<path d="M65.8036 104.829C67.8036 98.9192 69.6536 93.1092 71.5936 87.3192C71.7736 86.7692 72.5036 86.3992 72.9736 85.9492C73.3136 86.5392 74.0236 87.2092 73.9136 87.6992C73.1936 91.0092 72.4536 94.3292 71.4136 97.5392C69.9036 102.209 68.0836 106.779 66.4836 111.419C64.8836 116.059 63.4836 120.649 61.8136 125.219C61.4836 126.129 60.0936 127.539 59.7636 127.399C58.3636 126.789 58.4536 125.549 58.9736 124.119C61.2936 117.759 63.4636 111.329 65.8036 104.829Z" fill="#FCF2B3"/>
<path d="M77.2035 62.5305C76.029 61.8334 74.9528 60.9826 74.0035 60.0005C69.7035 54.8205 65.7435 49.3305 61.1535 44.4205C57.5535 40.5705 53.1535 37.4205 49.2535 33.9105C48.7435 33.4505 48.1835 32.2505 48.4135 31.9105C49.0835 30.9105 49.8935 31.4805 50.6935 32.1405C53.9335 34.8005 57.2835 37.3305 60.5235 40.0105C67.3535 45.6505 72.5235 52.7205 77.5235 59.9305C78.0135 60.5805 79.5035 61.8005 77.2035 62.5305Z" fill="#FCF2B3"/>
<path d="M42.3635 94.7396C46.955 90.2812 51.9272 86.2325 57.2235 82.6396C60.9735 80.0396 64.4335 77.0396 68.0935 74.3096C68.9835 73.6396 70.2135 72.6896 71.2035 74.1896C71.336 74.4774 71.3944 74.7938 71.3735 75.1099C71.3525 75.426 71.2529 75.7319 71.0835 75.9996C69.6035 77.1696 67.8235 77.9996 66.4035 79.2096C59.4035 85.2996 51.1435 89.7896 44.8235 96.6896C44.6435 96.8796 44.4535 97.1896 44.2435 97.2096C43.3435 97.2896 42.1235 97.6596 41.5935 97.2096C40.5435 96.3596 41.5535 95.5296 42.3635 94.7396Z" fill="#FCF2B3"/>
<path d="M103.754 28.9108C101.834 31.9108 99.8835 34.8208 98.2335 37.8508C95.6935 42.4908 93.3635 47.2408 90.9335 51.9408C90.5546 52.7962 90.0889 53.6105 89.5435 54.3708C89.0626 54.7642 88.5135 55.0659 87.9235 55.2608C87.6475 54.7845 87.458 54.2631 87.3635 53.7208C87.3919 53.0281 87.5585 52.3481 87.8535 51.7208C90.7222 44.94 94.1822 38.4248 98.1935 32.2508C99.3735 30.4808 100.294 28.5308 101.524 26.8008C101.924 26.2408 102.944 26.1208 103.674 25.8008C103.734 26.8108 103.794 27.8108 103.754 28.9108Z" fill="#FCF2B3"/>
<path d="M48.0334 63.4401C50.2734 63.7401 52.4034 63.9901 54.5334 64.1401C57.2334 64.3201 59.9334 64.4301 62.6334 64.5501C65.7334 64.6901 68.8434 64.7301 71.9334 65.0101C72.7834 65.0901 74.2234 65.8401 74.2534 66.3401C74.3334 67.8601 72.9634 67.8201 71.8034 67.7801C67.1534 67.6401 62.4934 67.6601 57.8634 67.3301C52.8634 66.9701 47.8634 66.3301 42.8134 65.7001C42.2434 65.6301 41.8134 64.7701 41.2634 64.2801C41.8034 63.9601 42.3234 63.4101 42.8934 63.3701C44.6065 63.2827 46.3234 63.3061 48.0334 63.4401Z" fill="#FCF2B3"/>
<path d="M60.1435 96.3506C58.7635 98.1406 57.5335 99.8706 56.1435 101.471C55.8535 101.801 54.6235 101.881 54.4535 101.651C54.0935 101.121 53.8035 100.101 54.0835 99.6506C55.7735 97.1006 57.6235 94.6506 59.4535 92.1806C62.4002 88.2273 65.3702 84.2806 68.3635 80.3406C68.6959 79.7847 69.1106 79.2823 69.5935 78.8506C70.3514 78.3871 71.1437 77.9826 71.9635 77.6406C71.9635 78.6406 72.3335 79.7706 71.9035 80.4706C70.3035 83.1306 68.5335 85.7006 66.6735 88.1906C64.5935 90.9506 62.3635 93.5706 60.1435 96.3506Z" fill="#FCF2B3"/>
<path d="M122.834 88.38C122.554 89.95 121.674 89.78 120.774 89.38C117.034 87.55 113.254 85.78 109.574 83.81C105.714 81.74 101.964 79.46 98.1536 77.29C97.3519 76.9513 96.5765 76.5536 95.8336 76.1C95.3936 75.75 95.2536 75.03 94.9736 74.48C95.6636 74.37 96.4736 73.96 96.9736 74.19C100.054 75.51 103.124 76.88 106.104 78.44C110.644 80.81 115.104 83.32 119.564 85.84C120.75 86.5544 121.848 87.407 122.834 88.38Z" fill="#FCF2B3"/>
<path d="M109.514 69.8006C104.834 69.2606 100.364 68.6706 95.8736 68.2106C94.208 68.1268 92.5393 68.1268 90.8736 68.2106C90.3336 68.2106 89.7036 68.3906 89.2836 68.2106C88.7055 67.8013 88.1843 67.3171 87.7336 66.7706C88.2236 66.3206 88.7336 65.5106 89.2036 65.4906C91.6643 65.3935 94.1285 65.4402 96.5836 65.6306C98.8036 65.8206 100.984 66.4606 103.204 66.6306C107.374 66.8906 111.554 66.8806 115.724 67.1106C116.814 67.1706 118.154 67.2406 118.424 68.8006C118.564 69.6006 118.344 69.9606 117.424 69.9306C114.814 69.7506 112.264 69.8006 109.514 69.8006Z" fill="#FCF2B3"/>
<path d="M83.2634 55.6707C83.2634 57.2207 83.2634 58.5607 83.2634 59.9007C83.2634 60.9007 83.0734 62.0307 81.6834 62.1207C80.2934 62.2107 80.4334 61.1207 80.4534 60.1907C80.5734 53.9107 80.7234 47.6307 80.8434 41.3507C80.8434 39.2507 80.8434 37.1407 80.8434 35.0407C80.8434 34.5107 81.3334 33.9907 81.6034 33.4707C82.0434 33.8407 82.6534 34.1207 82.8834 34.6007C83.2966 35.3777 83.5419 36.2328 83.6034 37.1107C83.6834 40.3974 83.6834 43.6874 83.6034 46.9807C83.5934 49.8007 83.3634 52.6307 83.2634 55.6707Z" fill="#FCF2B3"/>
<path d="M40.0535 79.8996C39.7225 79.9556 39.3845 79.9556 39.0535 79.8996C38.2935 79.5396 37.5635 79.1196 36.8235 78.7296C37.4235 78.1896 37.9435 77.3296 38.6235 77.1696C44.5435 75.8596 50.5035 74.7096 56.4335 73.4296C57.7335 73.1496 58.9835 72.4796 60.2635 73.3096C60.7114 73.6818 61.1112 74.1084 61.4535 74.5796C61.0796 74.9406 60.6467 75.2348 60.1735 75.4496C57.2435 76.1696 54.2835 76.8096 51.3435 77.4496C48.4035 78.0896 45.4835 78.8896 42.5535 79.5696C41.7279 79.7321 40.8929 79.8423 40.0535 79.8996Z" fill="#FCF2B3"/>
<path d="M118.494 41.9993C115.754 44.3293 113.204 46.6693 110.434 48.7293C109.624 49.3393 107.434 49.6393 107.224 49.2493C106.464 48.0893 107.604 47.0993 108.534 46.3093C112.807 42.6893 117.094 39.0826 121.394 35.4893C121.954 35.0939 122.553 34.7588 123.184 34.4893C123.398 34.3326 123.644 34.2242 123.904 34.1715C124.164 34.1187 124.432 34.1229 124.691 34.1837C124.949 34.2445 125.191 34.3605 125.401 34.5237C125.61 34.6869 125.782 34.8935 125.904 35.1293C126.514 36.2693 125.444 36.5393 124.684 37.1293C122.584 38.6393 120.614 40.3193 118.494 41.9993Z" fill="#FCF2B3"/>
<path d="M107.364 97.3607C105.364 95.5107 103.444 93.8007 101.634 91.9807C101.094 91.4407 100.404 90.4107 100.634 89.9207C101.144 88.6007 102.144 89.4307 103.044 89.7407C107.484 91.2507 109.624 95.3507 112.714 98.3507C114.318 100.036 115.76 101.867 117.024 103.821C117.374 104.311 117.204 105.171 117.274 105.821C116.534 105.681 115.554 105.821 115.104 105.351C112.494 102.821 110.014 100.121 107.364 97.3607Z" fill="#FCF2B3"/>
<path d="M100.124 56.3701C104.984 54.6101 109.724 52.9001 114.514 51.3701C115.094 51.1801 115.964 51.8801 116.704 52.1701C116.364 52.8001 116.174 53.8001 115.704 54.0001C113.394 54.9201 110.994 55.6201 108.624 56.3901C106.434 57.1101 104.244 57.8301 102.044 58.5201C101.458 58.7637 100.827 58.8796 100.194 58.8601C99.5451 58.6635 98.9287 58.3738 98.3635 58.0001L100.124 56.3701Z" fill="#FCF2B3"/>
<path d="M117.583 61.3196C116.378 61.4108 115.166 61.3907 113.963 61.2596C113.353 61.1396 112.873 60.3896 112.333 59.9296C112.843 59.5896 113.333 59.0396 113.883 58.9296C117.383 58.2696 120.883 57.5896 124.433 57.1496C126.223 56.9296 128.123 55.8296 129.873 57.2796C130.255 57.6882 130.59 58.1376 130.873 58.6196C130.489 58.9012 130.064 59.1236 129.613 59.2796C125.703 59.9996 121.743 60.6496 117.583 61.3196Z" fill="#FCF2B3"/>
<path d="M87.2036 89.2802C87.2036 87.7502 88.2036 87.7402 88.9736 88.4102C89.9818 89.3787 90.8592 90.4746 91.5836 91.6702C93.1736 94.1502 94.7436 96.6702 96.1236 99.2602C96.5236 100.02 96.6036 101.75 96.2036 101.98C95.0636 102.65 93.9936 101.71 93.4336 100.72C91.3636 97.0002 89.3636 93.1702 87.2036 89.2802Z" fill="#FCF2B3"/>
<path d="M42.0735 54.4604C41.3335 53.8804 39.8035 53.7504 40.6635 52.5804C40.9735 52.1604 42.2835 52.2304 43.0335 52.4404C47.2435 53.5904 51.4135 54.8404 55.5935 56.0904C56.1401 56.2148 56.6503 56.4647 57.0835 56.8204C57.4498 57.2278 57.6835 57.7371 57.7535 58.2804C57.7535 58.4304 57.0335 58.9304 56.7535 58.8604C55.3535 58.5504 53.9935 58.0804 52.6235 57.6904C49.7435 56.8704 46.8535 56.0904 43.9735 55.2504C43.3635 55.0804 42.8335 54.7204 42.0735 54.4604Z" fill="#FCF2B3"/>
<path d="M90.0236 75.5504C92.3936 77.7804 94.6836 79.8904 96.8936 82.0804C97.0454 82.2842 97.1434 82.523 97.1783 82.7747C97.2133 83.0264 97.1842 83.2829 97.0936 83.5204C96.7436 83.9204 95.7636 84.3704 95.5336 84.1904C93.9936 82.9804 92.5336 81.6204 91.1236 80.2704C90.1783 79.4301 89.2897 78.5281 88.4636 77.5704C88.0484 76.923 87.7127 76.228 87.4636 75.5004C88.3172 75.468 89.172 75.4847 90.0236 75.5504Z" fill="#FCF2B3"/>
<path d="M74.4835 46.2802C73.7381 44.9533 73.0703 43.5844 72.4835 42.1802C71.8135 40.4402 71.2935 38.6402 70.7735 36.8402C70.7073 36.339 70.7073 35.8313 70.7735 35.3302C71.2835 35.3302 71.9735 35.2402 72.2835 35.5202C73.1097 36.1582 73.7714 36.9845 74.2135 37.9302C74.9375 40.2469 75.5087 42.6087 75.9235 45.0002C75.9835 45.3802 75.0535 45.9302 74.4835 46.2802Z" fill="#FCF2B3"/>
<path d="M61.7634 22.25C61.7331 21.4995 61.7532 20.7478 61.8234 20C62.5006 20.1149 63.1512 20.3521 63.7434 20.7C64.6933 21.5966 65.4435 22.6835 65.9449 23.8897C66.4463 25.0958 66.6878 26.3942 66.6534 27.7C66.6534 28.13 65.8634 29 65.6534 28.94C64.9449 28.7691 64.3228 28.3461 63.9034 27.75C63.1134 26 62.5334 24.16 61.7634 22.25Z" fill="#FCF2B3"/>
<path d="M26.8336 61.821C29.3936 61.641 31.8336 61.491 33.9736 63.141C34.3083 63.5013 34.588 63.909 34.8036 64.351C34.4411 64.5707 34.0635 64.7645 33.6736 64.931C33.4203 65.0338 33.1369 65.0338 32.8836 64.931C30.6336 63.561 28.2536 64.701 25.9436 64.501C25.2436 64.441 24.0236 63.961 24.0036 63.611C23.9336 62.411 24.8836 62.041 26.0036 62.111C26.2997 62.0828 26.5845 61.9833 26.8336 61.821Z" fill="#FCF2B3"/>
<path d="M134.144 43.1494C135.144 44.6994 133.584 45.1494 132.864 45.7294C131.528 46.7385 130.048 47.5408 128.474 48.1094C128.074 48.1836 127.662 48.1596 127.273 48.0394C126.885 47.9192 126.532 47.7064 126.244 47.4194C125.764 46.8294 125.894 45.9794 127.054 45.5094C128.884 44.7794 130.544 43.6294 132.334 42.7994C132.734 42.6194 133.364 42.9994 134.144 43.1494Z" fill="#FCF2B3"/>
<path d="M133.744 68.1805C134.424 69.2605 134.084 69.8405 132.884 69.7905C130.604 69.6805 128.324 69.5405 126.044 69.3905C125.793 69.4111 125.542 69.3688 125.312 69.2675C125.082 69.1662 124.881 69.0092 124.727 68.8106C124.573 68.6119 124.471 68.3781 124.43 68.1301C124.389 67.8821 124.411 67.6279 124.494 67.3905C124.774 66.2105 125.564 66.7205 126.444 66.9105C128.564 67.3605 130.754 67.5005 132.904 67.7905C133.124 67.8305 133.364 68.0505 133.744 68.1805Z" fill="#FCF2B3"/>
<path d="M33.6936 101.801C34.4447 101.162 35.2831 100.633 36.1836 100.231C36.5136 100.121 37.1836 100.951 37.6336 101.341C36.4265 102.595 35.1405 103.77 33.7836 104.861C33.3936 105.151 32.3736 104.581 31.6536 104.401C31.9464 103.74 32.2804 103.099 32.6536 102.481C32.8336 102.201 33.2736 102.091 33.6936 101.801Z" fill="#FCF2B3"/>
<path d="M82.4535 29.4201C81.7235 28.7001 81.2235 24.3201 81.8035 23.9201C82.0977 23.7838 82.4217 23.7242 82.7452 23.7469C83.0687 23.7696 83.3812 23.8739 83.6535 24.0501C84.7535 25.0801 84.0335 28.5101 82.4535 29.4201Z" fill="#FCF2B3"/>
<path d="M65.3635 61.4204C64.3635 60.9204 63.3635 60.5804 62.5635 60.0704C62.1864 59.7637 61.9427 59.3229 61.8835 58.8404C61.8835 58.6304 62.3235 58.2204 62.6435 58.1104C63.7335 57.7304 67.0935 59.4504 67.4735 60.5904C67.5523 61.0156 67.5725 61.4497 67.5335 61.8804C66.8026 61.7654 66.0783 61.6118 65.3635 61.4204Z" fill="#FCF2B3"/>
<path d="M95.2734 109.88C95.3922 109.289 95.5733 108.713 95.8134 108.16C96.5225 108.531 97.1646 109.018 97.7134 109.6C97.9734 109.98 97.6134 110.78 97.5334 111.39C96.9434 111.06 96.3534 110.74 95.7834 110.39C95.5964 110.238 95.4255 110.067 95.2734 109.88Z" fill="#FCF2B3"/>
</g>
<g filter="url(#filter1_d_1251_8701)">
<path d="M164.875 119.849C164.994 119.867 165.021 119.867 165.14 119.886C167.121 120.151 169.073 120.508 170.558 121.176C171.942 121.789 172.749 122.557 173.492 123.93C174.619 126.016 174.693 128.925 173.675 131.139C172.914 132.786 171.255 134.158 169.733 134.89C168.156 135.659 166.598 136.015 164.81 136.226C161.694 136.564 158.32 135.924 155.506 134.57C153.847 133.756 151.811 132.365 150.794 130.572C150.042 129.254 150.07 127.543 150.977 126.29C152.435 124.296 155.561 123.856 157.917 123.939C159.714 124.012 162.94 124.561 164.645 125.165C165.122 125.339 166.864 126.016 167.166 126.327C167.377 126.546 167.515 126.857 167.423 127.15C167.038 128.339 164.141 128.962 163.307 129.09C161.07 129.428 159.906 128.586 157.367 127.58C156.734 127.333 155.891 127.059 155.249 127.004C154.094 126.894 152.701 127.214 152.481 128.477C152.371 129.126 153.132 129.73 153.718 129.986C155.084 130.572 156.193 130.782 157.532 130.8C161.501 130.864 165.956 130.215 169.201 127.919C169.641 127.598 170.081 127.141 170.091 126.555C170.109 125.375 168.037 124.652 168.037 124.652C165.855 123.747 161.813 123.298 159.732 123.134C157.55 122.941 154.112 122.667 153.287 122.539C152.435 122.42 151.518 122.246 150.776 121.917C150.033 121.587 149.318 120.837 149.098 120.014C148.722 118.523 149.199 116.702 150.033 115.513C152.206 112.402 157.284 111.222 161.07 110.755C164.746 110.298 170.677 110.307 174.289 112.219C174.848 112.521 175.133 112.795 175.013 113.39C174.775 114.506 173.941 115.22 172.923 115.54C171.851 115.879 169.641 116.016 168.679 116.071C164.334 116.318 159.072 116.19 154.937 117.315C154.617 117.406 154.048 117.562 153.874 117.763C153.223 118.468 155.075 118.669 155.478 118.742C155.597 118.77 155.616 118.779 155.744 118.788L164.875 119.849ZM139.005 100.499C139.005 100.499 139.711 99.4379 140.307 98.6328C141.389 97.1689 143.341 95.1379 144.808 93.8845C145.257 93.5002 145.789 93.0702 145.789 93.0702C145.789 93.0702 144.955 93.1526 144.487 93.2532C143.369 93.4728 141.737 94.5523 140.921 95.2568C139.573 96.4096 138.088 98.2851 138.758 99.9502C138.849 100.188 139.005 100.499 139.005 100.499ZM146.504 102.503C148.631 102.356 150.629 101.743 152.49 100.719C154.314 99.7032 156.991 97.7179 156.716 95.3849C156.633 94.6255 156.138 94.0583 155.515 93.793C154.699 93.4453 154.277 93.5002 153.242 93.8021C152.49 94.0217 152.151 94.1589 151.436 94.5615C149.346 95.7783 146.385 98.3675 144.771 100.435C144.395 100.92 144.019 101.469 143.726 101.844C143.543 102.073 143.396 102.283 143.414 102.347C143.469 102.585 145.67 102.558 146.504 102.503ZM141.077 106.483C140.857 106.711 140.628 107.279 140.38 107.681C140.252 107.901 140.013 108.175 139.858 108.285C139.298 108.687 138.831 108.715 138.299 108.239C137.548 107.58 137.117 106.547 137.08 105.549C137.062 105.11 137.135 104.634 137.052 104.269C136.915 103.646 136.292 103.015 135.962 102.42C135.567 101.725 135.247 100.508 135.21 99.7215C135.072 97.2696 136.365 95.0189 138.052 93.2349C139.748 91.4326 141.957 89.9413 144.368 88.9257C146.641 87.9651 149.978 87.3155 152.481 88.1847C153.297 88.4592 154.424 89.1545 155.002 89.8772C155.121 90.0236 155.222 90.1883 155.341 90.2706C155.451 90.3438 155.744 90.3713 155.973 90.4079C156.771 90.5451 157.917 91.1489 158.384 91.5515C159.328 92.3658 159.842 93.1343 160.08 94.2596C160.557 96.5194 159.255 99.0079 157.761 100.517C155.212 103.116 152.701 104.946 149.437 106.217C148.007 106.775 145.78 107.297 144.157 107.15C143.653 107.105 143.13 106.977 142.644 106.94C142.397 106.922 141.48 106.684 141.379 106.62C141.26 106.528 141.104 106.446 141.077 106.483ZM143.983 111.496C144.084 111.514 144.239 111.56 144.368 111.606C145.514 112.036 145.981 113.097 146.265 114.25C146.916 116.94 147.191 122.896 147.301 125.229C147.384 126.985 147.42 128.705 147.494 130.434C147.558 131.898 147.677 133.847 147.365 135.219C147.255 135.713 146.925 136.29 146.449 136.583C145.908 136.93 144.67 136.958 143.992 136.811C142.324 136.464 141.774 135.393 141.535 133.746C140.967 129.803 141.242 122.072 141.572 118.815C141.682 117.736 142.085 114.287 142.654 112.841C142.864 112.347 143.268 111.359 143.983 111.496ZM93.1055 118.056C93.1055 118.056 90.6121 118.23 88.907 118.422C86.7252 118.66 82.6275 119.364 80.2716 120.206C79.5657 120.462 78.1265 121.057 77.9982 121.789C77.8698 122.539 78.3373 123.134 78.8599 123.747C79.1624 124.103 80.8675 125.741 81.3441 126.134C83.3517 127.809 87.4219 130.389 90.4196 131.633C91.4463 132.054 93.1513 132.667 93.1513 132.667C93.1513 132.667 93.023 127.827 93.0505 123.06C93.0505 120.544 93.1055 118.056 93.1055 118.056ZM138.748 119.977C138.895 121.276 138.556 123.737 138.501 124.058C138.391 124.808 137.832 126.528 137.74 126.738C137.282 127.79 136.832 128.641 136.356 129.501C135.54 130.965 133.597 133.289 132.451 134.286C128.17 137.982 121.533 140.087 115.84 140.782C111.981 141.249 107.544 141.175 103.455 140.425C102.043 140.169 99.9533 139.684 99.9533 139.684C99.9533 139.684 99.9625 140.517 99.8891 141.111C99.8525 141.377 99.6508 142.09 99.5408 142.319C99.2475 142.932 98.7524 143.252 98.0466 143.38C97.1849 143.536 96.2773 143.591 95.4889 143.252C94.1872 142.703 93.7197 141.496 93.4905 140.096C93.3072 138.98 93.1147 137.031 93.1147 137.031C93.1147 137.031 92.143 136.573 91.3271 136.171C88.8336 134.945 86.4685 133.463 84.3968 131.935C83.8193 131.505 81.3625 129.446 80.8125 128.934C79.2907 127.489 77.9157 126.052 76.8706 124.204C76.0547 122.759 75.8256 121.487 76.4398 119.959C77.2923 117.827 80.3449 116.226 82.4442 115.311C83.9843 114.634 88.7603 113.079 90.7404 112.786C91.6754 112.649 93.133 112.393 93.2247 112.338C93.2613 112.31 93.2888 112.283 93.3163 112.256C93.353 112.191 93.4355 110.087 93.4172 109.319C93.3989 108.559 93.9764 103.582 94.1689 102.53C94.2697 101.963 94.7006 99.7672 95.1406 99.1909C95.4248 98.8066 95.9381 98.834 96.3507 99.0902C98.6241 100.499 99.3208 105.403 99.4858 107.891C99.5866 109.41 99.6416 111.697 99.6416 111.697C99.6416 111.697 102.254 111.624 103.858 111.67C105.417 111.707 107.14 111.954 108.754 112.21C110.825 112.539 114.868 113.417 117.187 114.598C119.094 115.567 120.882 117.187 121.459 118.916C122 120.499 121.918 121.587 121.102 123.015C120.185 124.625 118.443 125.823 116.674 125.915C116.152 125.942 114.171 125.686 113.557 125.21C113.319 125.027 113.328 124.689 113.502 124.451C113.566 124.36 114.492 123.875 115.042 123.582C115.317 123.436 115.547 123.271 115.757 123.079C116.207 122.676 116.619 122.237 116.573 121.725C116.509 121.057 115.803 120.645 115.125 120.38C111.962 119.126 105.637 118.083 102.584 117.9C101.393 117.827 99.6875 117.772 99.6875 117.772L100.045 134.597C100.045 134.597 101.448 134.863 102.557 135.046C103.189 135.146 105.884 135.384 106.599 135.402C112.045 135.549 118.132 135.055 123.128 132.703C125.337 131.679 127.345 130.398 128.875 128.66C130.883 126.363 131.937 123.216 131.662 119.922C131.36 116.336 128.83 112.073 126.804 109.474C121.459 102.622 112.301 96.9768 104.253 93.674C96.0298 90.2981 87.8986 88.3585 79.1715 88.0383C76.9256 87.956 72.0121 88.0657 69.5369 88.7519C69.1794 88.8526 68.8219 88.9715 68.5011 89.0447C68.2444 89.1087 67.8319 89.2826 67.7219 89.374C67.6577 89.4198 67.5935 89.493 67.5935 89.493C67.5935 89.493 67.7494 89.5753 67.896 89.6394C68.1619 89.7583 69.2619 89.8223 69.8395 89.923C70.3528 90.0236 70.8845 90.2889 71.0953 90.6641C71.297 91.0209 71.3245 91.3045 71.077 91.5972C70.5178 92.2834 68.4002 92.1645 67.4652 92.0181C66.4935 91.8626 65.2926 91.5698 65.0726 90.7281C64.8159 89.74 65.2834 88.7702 65.7968 87.8645C66.8235 86.0713 68.2902 85.1381 70.4353 84.5526C73.488 83.7109 77.329 83.1345 80.2166 83.0247C86.7344 82.7777 92.9038 83.9121 99.2108 85.8334C102.823 86.9221 107.553 88.7519 111.018 90.417C113.502 91.6155 117.417 93.8113 119.617 95.2477C120.313 95.7051 124.365 98.6785 124.998 99.2092C126.309 100.28 128.032 101.826 129.279 103.061C131.69 105.449 134.687 109.099 136.145 111.999C136.493 112.695 136.768 113.381 137.217 114.186C137.373 114.46 138.043 116.107 138.153 116.592C138.263 117.068 138.418 117.754 138.446 117.782C138.464 118.019 138.767 119.428 138.748 119.977ZM220.665 116.254C217.613 116.958 209.592 117.342 209.592 117.342L208.583 120.508C208.583 120.508 212.589 120.169 215.514 120.471C215.514 120.471 216.458 120.362 216.568 121.542C216.604 122.64 216.476 123.82 216.476 123.82C216.476 123.82 216.412 124.533 215.404 124.716C214.303 124.899 206.759 125.192 206.759 125.192L205.54 129.318C205.54 129.318 205.081 130.27 206.099 129.995C207.043 129.739 214.945 128.266 215.981 128.477C217.081 128.751 218.31 130.215 217.952 131.56C217.53 133.216 209.647 138.239 204.843 137.891C204.843 137.891 202.322 138.056 200.186 134.652C198.197 131.413 200.938 125.274 200.938 125.274C200.938 125.274 199.682 122.411 200.59 121.441C200.59 121.441 201.13 120.947 202.707 120.837L204.641 116.848C204.641 116.848 202.441 117.004 201.13 115.384C199.911 113.847 199.81 113.143 200.745 112.722C201.745 112.228 210.921 110.563 217.228 110.773C217.228 110.773 219.419 110.563 221.325 114.36C221.307 114.351 222.224 115.888 220.665 116.254ZM196.923 131.606C196.116 133.509 193.98 135.53 191.322 134.268C188.7 133.005 184.529 124.479 184.529 124.479C184.529 124.479 182.943 121.304 182.64 121.386C182.64 121.386 182.301 120.764 182.09 124.241C181.87 127.699 182.136 134.442 180.752 135.503C179.441 136.564 177.855 136.143 177.03 134.899C176.278 133.673 175.976 130.764 176.379 125.65C176.856 120.526 178.048 115.073 179.579 113.381C181.1 111.697 182.32 112.923 182.796 113.363C182.796 113.363 184.831 115.201 188.186 120.609L188.782 121.606C188.782 121.606 191.835 126.711 192.147 126.702C192.147 126.702 192.394 126.94 192.614 126.766C192.935 126.674 192.807 125.037 192.807 125.037C192.807 125.037 192.174 119.474 189.387 110.051C189.387 110.051 188.966 108.88 189.25 107.773C189.534 106.656 190.652 107.178 190.652 107.178C190.652 107.178 194.961 109.346 197.06 116.345C199.141 123.372 197.748 129.693 196.923 131.606ZM243.336 127.415C241.374 130.837 235.828 137.992 228.467 136.299C226.037 142.182 223.993 148.138 222.82 157.049C222.82 157.049 222.563 158.778 221.124 158.183C219.694 157.68 217.338 155.31 216.861 152.035C216.348 147.726 218.273 140.443 222.196 132.09C221.05 130.233 220.271 127.58 220.94 123.792C220.94 123.792 221.93 116.775 228.989 110.444C228.989 110.444 229.833 109.712 230.328 109.941C230.868 110.17 230.621 112.448 230.19 113.564C229.741 114.671 226.597 120.105 226.597 120.105C226.597 120.105 224.635 123.774 225.185 126.674C228.888 120.984 237.313 109.52 242.538 113.134C244.289 114.387 245.105 117.114 245.105 120.05C245.105 122.612 244.491 125.357 243.336 127.415ZM241.814 118.404C241.814 118.404 241.521 116.144 239.311 118.632C237.405 120.737 233.967 124.671 231.208 130.023C234.114 129.693 236.91 128.129 237.753 127.324C239.119 126.107 242.327 122.804 241.814 118.404ZM283.9 117.891H270.406C270.14 113.317 269.581 108.852 268.71 104.259C268.618 103.784 268.206 103.436 267.72 103.436H264.612C264.337 103.436 264.081 103.555 263.907 103.765C263.732 103.985 263.659 104.25 263.714 104.525C264.594 108.971 265.162 113.344 265.437 117.891H252.457C251.852 117.891 251.357 118.376 251.357 118.98V121.78C251.357 122.383 251.852 122.877 252.457 122.877H265.63C265.639 123.573 265.648 124.186 265.648 124.771C265.648 128.806 265.474 132.136 265.062 135.887C265.025 136.18 265.126 136.464 265.318 136.683C265.511 136.894 265.786 137.022 266.07 137.022H268.958C269.517 137.022 269.984 136.601 270.048 136.043C270.443 132.264 270.608 128.897 270.608 124.78C270.608 124.204 270.599 123.582 270.589 122.887H283.9C284.505 122.887 285 122.393 285 121.789V118.989C285 118.385 284.505 117.891 283.9 117.891ZM103.428 80.3623C103.235 80.646 103.189 80.9936 103.299 81.3138C103.418 81.6432 103.666 81.8902 103.987 82L106.407 82.8143C106.554 82.86 106.7 82.8875 106.838 82.8875C107.287 82.8875 107.709 82.6679 107.956 82.2928C115.886 70.6736 126.611 60.994 138.978 54.3153C151.747 47.417 166.213 43.7666 180.825 43.7666C198.472 43.7666 215.486 48.9632 230.053 58.7892C244.262 68.3772 255.299 81.7438 261.963 97.4526C262.165 97.9192 262.623 98.2302 263.137 98.2302H266.024C266.354 98.2302 266.666 98.0655 266.858 97.7819C267.051 97.5075 267.088 97.1506 266.959 96.8396C260.084 79.9415 248.451 65.5411 233.325 55.1936C217.842 44.5991 199.682 39 180.825 39C149.639 39 120.708 54.4617 103.428 80.3623Z" fill="white"/>
</g>
<defs>
<filter id="filter0_d_1251_8701" x="0" y="0" width="158.469" height="155.409" filterUnits="userSpaceOnUse" color-interpolation-filters="sRGB">
<feFlood flood-opacity="0" result="BackgroundImageFix"/>
<feColorMatrix in="SourceAlpha" type="matrix" values="0 0 0 0 0 0 0 0 0 0 0 0 0 0 0 0 0 0 127 0" result="hardAlpha"/>
<feOffset dy="4"/>
<feGaussianBlur stdDeviation="12"/>
<feComposite in2="hardAlpha" operator="out"/>
<feColorMatrix type="matrix" values="0 0 0 0 0.988235 0 0 0 0 0.94902 0 0 0 0 0.701961 0 0 0 0.4 0"/>
<feBlend mode="normal" in2="BackgroundImageFix" result="effect1_dropShadow_1251_8701"/>
<feBlend mode="normal" in="SourceGraphic" in2="effect1_dropShadow_1251_8701" result="shape"/>
</filter>
<filter id="filter1_d_1251_8701" x="41" y="19" width="268" height="167.308" filterUnits="userSpaceOnUse" color-interpolation-filters="sRGB">
<feFlood flood-opacity="0" result="BackgroundImageFix"/>
<feColorMatrix in="SourceAlpha" type="matrix" values="0 0 0 0 0 0 0 0 0 0 0 0 0 0 0 0 0 0 127 0" result="hardAlpha"/>
<feOffset dy="4"/>
<feGaussianBlur stdDeviation="12"/>
<feComposite in2="hardAlpha" operator="out"/>
<feColorMatrix type="matrix" values="0 0 0 0 1 0 0 0 0 1 0 0 0 0 1 0 0 0 0.4 0"/>
<feBlend mode="normal" in2="BackgroundImageFix" result="effect1_dropShadow_1251_8701"/>
<feBlend mode="normal" in="SourceGraphic" in2="effect1_dropShadow_1251_8701" result="shape"/>
</filter>
</defs>
</svg>
