<svg xmlns="http://www.w3.org/2000/svg" width="291" height="175" viewBox="0 0 291 175" fill="none">
  <g filter="url(#filter0_d_1251_8852)">
    <path d="M127.697 102.689C127.816 102.708 127.844 102.708 127.963 102.726C129.943 102.991 131.895 103.348 133.381 104.016C134.765 104.629 135.571 105.398 136.314 106.77C137.442 108.856 137.515 111.765 136.497 113.979C135.736 115.626 134.077 116.998 132.556 117.73C130.979 118.499 129.42 118.856 127.633 119.066C124.516 119.405 121.143 118.764 118.328 117.41C116.669 116.596 114.634 115.205 113.616 113.412C112.865 112.095 112.892 110.384 113.8 109.13C115.257 107.136 118.383 106.697 120.739 106.779C122.536 106.852 125.763 107.401 127.468 108.005C127.944 108.179 129.686 108.856 129.989 109.167C130.2 109.387 130.337 109.698 130.245 109.99C129.86 111.18 126.964 111.802 126.129 111.93C123.893 112.268 122.728 111.427 120.189 110.42C119.557 110.173 118.713 109.899 118.072 109.844C116.916 109.734 115.523 110.054 115.303 111.317C115.193 111.967 115.954 112.57 116.541 112.827C117.907 113.412 119.016 113.622 120.354 113.641C124.323 113.705 128.779 113.055 132.024 110.759C132.464 110.439 132.904 109.981 132.913 109.396C132.931 108.215 130.86 107.493 130.86 107.493C128.678 106.587 124.635 106.139 122.554 105.974C120.372 105.782 116.935 105.507 116.11 105.379C115.257 105.26 114.341 105.087 113.598 104.757C112.855 104.428 112.14 103.678 111.92 102.854C111.545 101.363 112.021 99.5423 112.855 98.3529C115.028 95.2423 120.107 94.062 123.893 93.5955C127.569 93.138 133.5 93.1471 137.112 95.0593C137.671 95.3612 137.955 95.6357 137.836 96.2303C137.597 97.3465 136.763 98.0601 135.746 98.3803C134.673 98.7189 132.464 98.8561 131.501 98.911C127.156 99.158 121.894 99.0299 117.76 100.155C117.439 100.247 116.871 100.402 116.696 100.604C116.046 101.308 117.897 101.509 118.301 101.582C118.42 101.61 118.438 101.619 118.567 101.628L127.697 102.689ZM101.827 83.3395C101.827 83.3395 102.533 82.2782 103.129 81.4731C104.211 80.0093 106.163 77.9782 107.63 76.7248C108.079 76.3405 108.611 75.9105 108.611 75.9105C108.611 75.9105 107.777 75.9929 107.309 76.0935C106.191 76.3131 104.559 77.3927 103.743 78.0971C102.396 79.2499 100.911 81.1254 101.58 82.7906C101.672 83.0284 101.827 83.3395 101.827 83.3395ZM109.326 85.3431C111.453 85.1967 113.451 84.5837 115.312 83.5591C117.136 82.5435 119.813 80.5582 119.538 78.2252C119.456 77.4659 118.961 76.8986 118.337 76.6333C117.522 76.2857 117.1 76.3405 116.064 76.6425C115.312 76.862 114.973 76.9993 114.258 77.4018C112.168 78.6186 109.207 81.2078 107.594 83.2754C107.218 83.7603 106.842 84.3093 106.549 84.6844C106.365 84.9131 106.218 85.1235 106.237 85.1876C106.292 85.4254 108.492 85.398 109.326 85.3431ZM103.899 89.3229C103.679 89.5516 103.45 90.1189 103.203 90.5214C103.074 90.741 102.836 91.0154 102.68 91.1252C102.121 91.5278 101.653 91.5552 101.122 91.0795C100.37 90.4208 99.939 89.3869 99.9024 88.3897C99.884 87.9506 99.9574 87.4748 99.8749 87.1088C99.7374 86.4867 99.114 85.8554 98.784 85.2608C98.3898 84.5654 98.069 83.3486 98.0323 82.5618C97.8948 80.1099 99.1873 77.8593 100.874 76.0752C102.57 74.2729 104.779 72.7816 107.19 71.7661C109.464 70.8054 112.8 70.1559 115.303 71.025C116.119 71.2995 117.246 71.9948 117.824 72.7176C117.943 72.864 118.044 73.0286 118.163 73.111C118.273 73.1842 118.567 73.2116 118.796 73.2482C119.593 73.3854 120.739 73.9893 121.207 74.3918C122.151 75.2061 122.664 75.9746 122.903 77.0999C123.379 79.3597 122.078 81.8482 120.583 83.3578C118.035 85.9561 115.523 87.7859 112.26 89.0576C110.83 89.6157 108.602 90.1372 106.979 89.9908C106.475 89.945 105.953 89.8169 105.467 89.7803C105.219 89.762 104.303 89.5242 104.202 89.4601C104.083 89.3686 103.927 89.2863 103.899 89.3229ZM106.805 94.3365C106.906 94.3548 107.062 94.4006 107.19 94.4463C108.336 94.8763 108.804 95.9376 109.088 97.0903C109.739 99.7801 110.014 105.736 110.124 108.069C110.206 109.826 110.243 111.546 110.316 113.275C110.38 114.739 110.5 116.687 110.188 118.06C110.078 118.554 109.748 119.13 109.271 119.423C108.73 119.771 107.493 119.798 106.814 119.652C105.146 119.304 104.596 118.234 104.358 116.587C103.789 112.644 104.064 104.913 104.394 101.656C104.504 100.576 104.908 97.1269 105.476 95.6814C105.687 95.1874 106.09 94.1993 106.805 94.3365ZM55.9279 100.896C55.9279 100.896 53.4345 101.07 51.7294 101.262C49.5476 101.5 45.4499 102.205 43.094 103.046C42.3881 103.302 40.9489 103.897 40.8205 104.629C40.6922 105.379 41.1597 105.974 41.6823 106.587C41.9848 106.944 43.6898 108.581 44.1665 108.975C46.1741 110.649 50.2443 113.229 53.2419 114.473C54.2687 114.894 55.9737 115.507 55.9737 115.507C55.9737 115.507 55.8454 110.667 55.8729 105.901C55.8729 103.385 55.9279 100.896 55.9279 100.896ZM101.571 102.818C101.717 104.117 101.378 106.578 101.323 106.898C101.213 107.648 100.654 109.368 100.562 109.579C100.104 110.631 99.6549 111.482 99.1782 112.342C98.3623 113.805 96.4189 116.129 95.273 117.127C90.992 120.823 84.355 122.927 78.6623 123.622C74.8029 124.089 70.366 124.016 66.2775 123.265C64.8658 123.009 62.7757 122.524 62.7757 122.524C62.7757 122.524 62.7849 123.357 62.7115 123.952C62.6749 124.217 62.4732 124.931 62.3632 125.159C62.0698 125.772 61.5748 126.092 60.8689 126.221C60.0072 126.376 59.0997 126.431 58.3113 126.092C57.0096 125.544 56.5421 124.336 56.3129 122.936C56.1296 121.82 55.9371 119.871 55.9371 119.871C55.9371 119.871 54.9654 119.414 54.1495 119.011C51.656 117.785 49.2909 116.303 47.2192 114.775C46.6416 114.345 44.1849 112.287 43.6348 111.774C42.1131 110.329 40.738 108.892 39.693 107.044C38.8771 105.599 38.6479 104.327 39.2621 102.799C40.1147 100.668 43.1673 99.0665 45.2666 98.1516C46.8067 97.4746 51.5827 95.9193 53.5628 95.6265C54.4978 95.4893 55.9554 95.2331 56.0471 95.1782C56.0837 95.1508 56.1112 95.1233 56.1387 95.0959C56.1754 95.0318 56.2579 92.9276 56.2396 92.1591C56.2212 91.3997 56.7988 86.4227 56.9913 85.3706C57.0921 84.8033 57.523 82.6076 57.963 82.0312C58.2472 81.6469 58.7605 81.6744 59.173 81.9305C61.4465 83.3395 62.1432 88.2433 62.3082 90.7318C62.409 92.2505 62.464 94.5378 62.464 94.5378C62.464 94.5378 65.0766 94.4646 66.6809 94.5103C68.2393 94.5469 69.9627 94.794 71.5761 95.0501C73.6479 95.3795 77.6905 96.2578 80.0098 97.438C81.9166 98.4078 83.7041 100.027 84.2817 101.756C84.8225 103.339 84.74 104.428 83.9242 105.855C83.0075 107.465 81.2657 108.664 79.4965 108.755C78.9739 108.783 76.9938 108.527 76.3797 108.051C76.1413 107.868 76.1505 107.529 76.3246 107.291C76.3888 107.2 77.3147 106.715 77.8647 106.422C78.1397 106.276 78.3689 106.111 78.5798 105.919C79.0289 105.517 79.4415 105.077 79.3956 104.565C79.3315 103.897 78.6256 103.485 77.9472 103.22C74.7846 101.967 68.4593 100.924 65.4067 100.741C64.2149 100.668 62.5099 100.613 62.5099 100.613L62.8674 117.438C62.8674 117.438 64.2699 117.703 65.3792 117.886C66.0117 117.987 68.7068 118.224 69.4218 118.243C74.8671 118.389 80.954 117.895 85.9501 115.544C88.1594 114.519 90.1669 113.238 91.6978 111.5C93.7054 109.204 94.7596 106.056 94.4846 102.763C94.1821 99.1763 91.652 94.9129 89.6261 92.3146C84.2817 85.462 75.1238 79.8171 67.0751 76.5144C58.8522 73.1384 50.721 71.1988 41.9939 70.8786C39.748 70.7963 34.8344 70.9061 32.3593 71.5923C32.0018 71.6929 31.6443 71.8118 31.3234 71.885C31.0668 71.9491 30.6543 72.1229 30.5442 72.2144C30.4801 72.2601 30.4159 72.3333 30.4159 72.3333C30.4159 72.3333 30.5717 72.4157 30.7184 72.4797C30.9843 72.5986 32.0843 72.6627 32.6618 72.7633C33.1752 72.864 33.7069 73.1293 33.9177 73.5044C34.1194 73.8612 34.1469 74.1448 33.8994 74.4376C33.3402 75.1237 31.2226 75.0048 30.2876 74.8584C29.3159 74.7029 28.115 74.4101 27.895 73.5684C27.6383 72.5803 28.1058 71.6105 28.6192 70.7048C29.6459 68.9116 31.1126 67.9784 33.2577 67.3929C36.3103 66.5512 40.1513 65.9748 43.039 65.865C49.5568 65.618 55.7262 66.7525 62.0332 68.6737C65.645 69.7625 70.3752 71.5923 73.8404 73.2574C76.3246 74.4559 80.239 76.6516 82.4391 78.088C83.1358 78.5454 87.1876 81.5189 87.8202 82.0495C89.1311 83.1199 90.8545 84.6661 92.1012 85.9012C94.5121 88.2891 97.5098 91.9395 98.9673 94.8397C99.3157 95.535 99.5907 96.2212 100.04 97.0263C100.196 97.3008 100.865 98.9476 100.975 99.4325C101.085 99.9082 101.241 100.594 101.268 100.622C101.287 100.86 101.589 102.269 101.571 102.818ZM183.488 99.094C180.435 99.7984 172.414 100.183 172.414 100.183L171.406 103.348C171.406 103.348 175.412 103.01 178.336 103.312C178.336 103.312 179.28 103.202 179.39 104.382C179.427 105.48 179.298 106.66 179.298 106.66C179.298 106.66 179.234 107.374 178.226 107.557C177.126 107.74 169.581 108.032 169.581 108.032L168.362 112.159C168.362 112.159 167.904 113.11 168.921 112.836C169.866 112.579 177.768 111.107 178.803 111.317C179.904 111.591 181.132 113.055 180.774 114.4C180.353 116.056 172.469 121.079 167.665 120.731C167.665 120.731 165.145 120.896 163.009 117.492C161.019 114.254 163.76 108.115 163.76 108.115C163.76 108.115 162.504 105.251 163.412 104.281C163.412 104.281 163.953 103.787 165.53 103.678L167.464 99.6886C167.464 99.6886 165.264 99.8442 163.953 98.2248C162.734 96.6878 162.633 95.9833 163.568 95.5625C164.567 95.0684 173.743 93.4033 180.05 93.6137C180.05 93.6137 182.241 93.4033 184.148 97.2001C184.13 97.191 185.046 98.728 183.488 99.094ZM159.745 114.446C158.938 116.349 156.802 118.371 154.144 117.108C151.522 115.846 147.351 107.319 147.351 107.319C147.351 107.319 145.765 104.144 145.463 104.227C145.463 104.227 145.124 103.604 144.913 107.081C144.693 110.539 144.959 117.282 143.574 118.343C142.263 119.405 140.678 118.984 139.853 117.739C139.101 116.514 138.798 113.604 139.202 108.49C139.678 103.367 140.87 97.9137 142.401 96.2212C143.923 94.5378 145.142 95.7637 145.619 96.2029C145.619 96.2029 147.654 98.0418 151.009 103.449L151.605 104.446C151.605 104.446 154.657 109.551 154.969 109.542C154.969 109.542 155.217 109.78 155.437 109.606C155.757 109.515 155.629 107.877 155.629 107.877C155.629 107.877 154.997 102.314 152.21 92.891C152.21 92.891 151.788 91.7199 152.072 90.6129C152.356 89.4967 153.475 90.0182 153.475 90.0182C153.475 90.0182 157.783 92.1865 159.883 99.1855C161.964 106.212 160.57 112.534 159.745 114.446ZM206.158 110.256C204.196 113.677 198.65 120.832 191.289 119.139C188.86 125.022 186.815 130.978 185.642 139.889C185.642 139.889 185.385 141.618 183.946 141.024C182.516 140.52 180.16 138.151 179.683 134.875C179.17 130.566 181.095 123.284 185.019 114.931C183.873 113.074 183.094 110.42 183.763 106.633C183.763 106.633 184.753 99.6154 191.812 93.2844C191.812 93.2844 192.655 92.5525 193.15 92.7812C193.691 93.0099 193.443 95.288 193.012 96.4042C192.563 97.5112 189.419 102.946 189.419 102.946C189.419 102.946 187.457 106.614 188.007 109.515C191.711 103.824 200.135 92.3603 205.36 95.9742C207.111 97.2276 207.927 99.954 207.927 102.891C207.927 105.452 207.313 108.197 206.158 110.256ZM204.636 101.244C204.636 101.244 204.343 98.9842 202.134 101.473C200.227 103.577 196.789 107.511 194.03 112.863C196.936 112.534 199.732 110.969 200.575 110.164C201.941 108.947 205.15 105.645 204.636 101.244ZM246.722 100.732H233.228C232.963 96.1572 232.403 91.6925 231.532 87.0997C231.441 86.624 231.028 86.2763 230.542 86.2763H227.435C227.16 86.2763 226.903 86.3952 226.729 86.6057C226.555 86.8252 226.481 87.0906 226.536 87.365C227.416 91.8114 227.985 96.1846 228.26 100.732H215.279C214.674 100.732 214.179 101.217 214.179 101.82V104.62C214.179 105.224 214.674 105.718 215.279 105.718H228.452C228.462 106.413 228.471 107.026 228.471 107.612C228.471 111.646 228.297 114.977 227.884 118.728C227.847 119.02 227.948 119.304 228.141 119.524C228.333 119.734 228.608 119.862 228.892 119.862H231.78C232.339 119.862 232.807 119.441 232.871 118.883C233.265 115.105 233.43 111.738 233.43 107.621C233.43 107.044 233.421 106.422 233.412 105.727H246.722C247.327 105.727 247.822 105.233 247.822 104.629V101.829C247.822 101.226 247.327 100.732 246.722 100.732ZM66.25 63.2027C66.0575 63.4863 66.0117 63.834 66.1217 64.1542C66.2409 64.4835 66.4884 64.7305 66.8092 64.8403L69.2293 65.6546C69.376 65.7003 69.5227 65.7278 69.6602 65.7278C70.1094 65.7278 70.5311 65.5082 70.7786 65.1331C78.7081 53.514 89.4336 43.8344 101.8 37.1557C114.57 30.2574 129.035 26.6069 143.648 26.6069C161.294 26.6069 178.308 31.8035 192.875 41.6295C207.084 51.2176 218.121 64.5842 224.786 80.2929C224.987 80.7595 225.446 81.0706 225.959 81.0706H228.847C229.177 81.0706 229.488 80.9059 229.681 80.6223C229.873 80.3478 229.91 79.991 229.782 79.6799C222.906 62.7818 211.273 48.3814 196.148 38.034C180.664 27.4395 162.504 21.8403 143.648 21.8403C112.461 21.8403 83.53 37.302 66.25 63.2027Z" fill="white"/>
  </g>
  <g filter="url(#filter1_d_1251_8852)">
    <path d="M62.5705 40.2334L56.4323 39.734L58.4813 35.5612C58.8422 34.828 59.0032 34.0048 58.9525 33.1977L58.396 24.3858C58.3624 23.8566 58.0118 23.3978 57.5062 23.2193C57.0006 23.0408 56.4465 23.194 56.0809 23.5829L51.397 28.7581L49.1325 20.9491C48.9933 20.4478 48.5646 20.0829 48.0604 20.0102C47.9809 20.0113 47.9145 19.9989 47.8351 20C47.3982 20.0059 46.9906 20.2233 46.744 20.5975L42.2403 27.3461L31.8885 21.7789C31.4349 21.5334 30.8662 21.5808 30.4598 21.8909C30.0403 22.2012 29.8621 22.7333 29.9748 23.235L32.5937 34.7208L24.9074 37.2485C24.4197 37.414 24.068 37.8426 24.0088 38.3598C23.9496 38.8771 24.1947 39.377 24.6352 39.6359L31.5796 43.925L25.3579 47.0287C24.8843 47.2603 24.5866 47.7676 24.6335 48.2966C24.6672 48.8259 25.0177 49.2847 25.5233 49.4632L33.8786 52.3294C34.6503 52.5971 35.4853 52.652 36.2778 52.4956L40.8748 51.6519L39.6983 57.6668C39.599 58.1581 39.7912 58.6587 40.1927 58.9711C40.594 59.2702 41.1378 59.3291 41.585 59.1111L47.8866 56.0329C49.5705 55.2155 51.1595 54.2272 52.6812 53.1604L55.5933 56.9746C56.0381 57.5512 56.8741 57.6723 57.4507 57.2275C58.0274 56.7826 58.1485 55.9467 57.7036 55.3701L54.7915 51.5559C56.2188 50.3712 57.5923 49.1077 58.8312 47.7005L63.4609 42.4333C63.7869 42.0581 63.8856 41.5271 63.6938 41.0529C63.5022 40.592 63.0741 40.2663 62.5705 40.2334ZM56.8475 45.9391C55.7259 47.2124 54.4835 48.3681 53.1871 49.4451L50.2616 45.6179L51.7175 34.8184C51.8135 34.0887 51.3014 33.4336 50.5848 33.3241C50.5186 33.325 50.4522 33.3127 50.386 33.3136C49.7373 33.3224 49.1876 33.8066 49.0905 34.4568L47.9962 42.6291L44.5447 38.1072L45.23 32.973C45.326 32.2433 44.8139 31.5881 44.0973 31.4787C44.0311 31.4796 43.9647 31.4672 43.8985 31.4681C43.2497 31.4769 42.6869 31.9613 42.603 32.6113L42.2662 35.1187L40.1091 32.3008C39.8397 31.9601 39.4399 31.7802 39.0427 31.7855C38.7647 31.7893 38.4877 31.8725 38.2651 32.0609C37.6885 32.5058 37.5674 33.3417 38.0122 33.9183L40.1693 36.7363L37.6619 36.3995C37.6619 36.3995 37.5293 36.3881 37.4631 36.3889C36.8143 36.3977 36.2514 36.8821 36.1675 37.5321C36.0715 38.2618 36.5836 38.9169 37.3002 39.0264L42.4344 39.7116L45.886 44.2467L37.7137 43.1524C37.7137 43.1524 37.5811 43.141 37.5149 43.1419C36.8662 43.1507 36.3165 43.6349 36.2194 44.2851C36.1233 45.0147 36.6354 45.6699 37.352 45.7793L48.1515 47.2352L51.0771 51.0624C49.6996 52.0213 48.2682 52.9147 46.729 53.664L42.8218 55.5709L43.4908 52.1717C43.6643 51.2954 43.3873 50.3986 42.7564 49.7715C42.1255 49.1444 41.2345 48.8651 40.3627 49.0359L35.7926 49.9056C35.436 49.9767 35.078 49.9418 34.7454 49.8271L29.3835 47.9797L32.777 46.2783C33.645 45.8428 34.216 44.9743 34.2556 43.9938C34.2955 43.0265 33.8063 42.1061 32.9783 41.6009L28.4783 38.8545L33.4355 37.2246C34.7537 36.7829 35.5168 35.4351 35.2072 34.0885L33.2365 25.4806L41.0137 29.6657C42.241 30.3245 43.7456 29.9465 44.511 28.784L47.3919 24.4278L48.851 29.4932C49.1154 30.4298 49.8797 31.1345 50.8231 31.3602C51.0356 31.4102 51.2478 31.4339 51.4597 31.431C52.2011 31.4209 52.912 31.1067 53.4208 30.5436L55.9515 27.7151L56.3063 33.3781C56.3244 33.7355 56.2631 34.0938 56.1085 34.4138L54.0595 38.5865C53.673 39.3863 53.6989 40.3129 54.1464 41.0882C54.5939 41.8635 55.3819 42.356 56.2701 42.4234L59.7299 42.6811L56.8609 45.9512L56.8475 45.9391Z" fill="#D35400"/>
  </g>
  <g filter="url(#filter2_d_1251_8852)">
    <path d="M259.09 128.49C261.219 126.794 263.532 124.584 266.09 121.428C266.54 120.868 266.463 120.041 265.892 119.584C265.32 119.127 264.505 119.211 264.047 119.782C261.896 122.429 259.932 124.368 258.191 125.83C256.985 123.072 255.133 121.006 252.716 119.813C249.38 118.163 245.214 118.23 240.353 120.016C230.601 123.587 222.802 139.089 222.476 139.749C222.314 140.064 222.29 140.428 222.41 140.751C222.506 141.061 222.723 141.319 223.009 141.48L223.078 141.519C223.704 141.825 238.633 149.061 248.421 145.48C257.047 142.331 260.958 136.019 259.096 128.508L259.09 128.49ZM247.506 143.007C240.281 145.648 229.155 141.32 225.465 139.711C227.478 136.052 233.959 125.144 241.251 122.464C245.406 120.944 248.874 120.831 251.55 122.154L251.916 122.36C253.748 123.39 255.149 125.158 256.04 127.512C254.779 128.415 253.695 129.056 252.843 129.526L248.354 127.302C247.705 126.982 246.91 127.244 246.59 127.892C246.283 128.518 246.517 129.282 247.123 129.624L247.181 129.656L249.902 131.005C248.171 131.779 246.437 132.371 244.762 132.725C244.108 132.869 243.456 132.985 242.827 133.083L240.997 129.749C240.645 129.114 239.846 128.875 239.211 129.227C238.577 129.578 238.344 130.366 238.689 131.012L240.038 133.488C237.211 133.827 235.133 133.879 235.104 133.877C234.375 133.889 233.81 134.49 233.822 135.22C233.833 135.709 234.102 136.116 234.491 136.335C234.685 136.444 234.917 136.514 235.165 136.503C235.3 136.503 237.425 136.448 240.346 136.102L239.003 138.812C238.696 139.438 238.93 140.202 239.536 140.543L239.594 140.575C240.242 140.895 241.026 140.627 241.357 139.985L243.49 135.656C244.078 135.549 244.683 135.437 245.283 135.308C246.911 134.958 248.572 134.415 250.246 133.715L249.104 136.041C248.797 136.667 249.031 137.431 249.637 137.772L249.695 137.804C250.343 138.124 251.138 137.862 251.458 137.214L254.125 131.828C254.972 131.34 255.849 130.824 256.749 130.216C257.397 134.181 256.414 139.76 247.494 143.03L247.506 143.007Z" fill="#F0C000"/>
  </g>
  <defs>
    <filter id="filter0_d_1251_8852" x="3.82239" y="1.84033" width="268" height="167.308" filterUnits="userSpaceOnUse" color-interpolation-filters="sRGB">
      <feFlood flood-opacity="0" result="BackgroundImageFix"/>
      <feColorMatrix in="SourceAlpha" type="matrix" values="0 0 0 0 0 0 0 0 0 0 0 0 0 0 0 0 0 0 127 0" result="hardAlpha"/>
      <feOffset dy="4"/>
      <feGaussianBlur stdDeviation="12"/>
      <feComposite in2="hardAlpha" operator="out"/>
      <feColorMatrix type="matrix" values="0 0 0 0 1 0 0 0 0 1 0 0 0 0 1 0 0 0 0.4 0"/>
      <feBlend mode="normal" in2="BackgroundImageFix" result="effect1_dropShadow_1251_8852"/>
      <feBlend mode="normal" in="SourceGraphic" in2="effect1_dropShadow_1251_8852" result="shape"/>
    </filter>
    <filter id="filter1_d_1251_8852" x="0" y="0" width="87.7913" height="87.2422" filterUnits="userSpaceOnUse" color-interpolation-filters="sRGB">
      <feFlood flood-opacity="0" result="BackgroundImageFix"/>
      <feColorMatrix in="SourceAlpha" type="matrix" values="0 0 0 0 0 0 0 0 0 0 0 0 0 0 0 0 0 0 127 0" result="hardAlpha"/>
      <feOffset dy="4"/>
      <feGaussianBlur stdDeviation="12"/>
      <feComposite in2="hardAlpha" operator="out"/>
      <feColorMatrix type="matrix" values="0 0 0 0 1 0 0 0 0 1 0 0 0 0 1 0 0 0 0.4 0"/>
      <feBlend mode="normal" in2="BackgroundImageFix" result="effect1_dropShadow_1251_8852"/>
      <feBlend mode="normal" in="SourceGraphic" in2="effect1_dropShadow_1251_8852" result="shape"/>
    </filter>
    <filter id="filter2_d_1251_8852" x="198.335" y="98.624" width="92.0464" height="75.8491" filterUnits="userSpaceOnUse" color-interpolation-filters="sRGB">
      <feFlood flood-opacity="0" result="BackgroundImageFix"/>
      <feColorMatrix in="SourceAlpha" type="matrix" values="0 0 0 0 0 0 0 0 0 0 0 0 0 0 0 0 0 0 127 0" result="hardAlpha"/>
      <feOffset dy="4"/>
      <feGaussianBlur stdDeviation="12"/>
      <feComposite in2="hardAlpha" operator="out"/>
      <feColorMatrix type="matrix" values="0 0 0 0 1 0 0 0 0 1 0 0 0 0 1 0 0 0 0.4 0"/>
      <feBlend mode="normal" in2="BackgroundImageFix" result="effect1_dropShadow_1251_8852"/>
      <feBlend mode="normal" in="SourceGraphic" in2="effect1_dropShadow_1251_8852" result="shape"/>
    </filter>
  </defs>
</svg>