<svg xmlns="http://www.w3.org/2000/svg" width="283" height="168" viewBox="0 0 283 168" fill="none">
  <g filter="url(#filter0_d_1251_8780)">
    <path d="M138.027 100.849C138.146 100.867 138.174 100.867 138.293 100.886C140.273 101.151 142.226 101.508 143.711 102.176C145.095 102.789 145.902 103.557 146.644 104.93C147.772 107.016 147.845 109.925 146.828 112.139C146.067 113.786 144.408 115.158 142.886 115.89C141.309 116.659 139.751 117.015 137.963 117.226C134.846 117.564 131.473 116.924 128.659 115.57C126.999 114.756 124.964 113.365 123.947 111.572C123.195 110.254 123.222 108.543 124.13 107.29C125.588 105.296 128.714 104.856 131.069 104.939C132.866 105.012 136.093 105.561 137.798 106.165C138.275 106.339 140.017 107.016 140.319 107.327C140.53 107.546 140.667 107.857 140.576 108.15C140.191 109.339 137.294 109.962 136.46 110.09C134.223 110.428 133.059 109.586 130.519 108.58C129.887 108.333 129.044 108.059 128.402 108.004C127.247 107.894 125.853 108.214 125.633 109.477C125.523 110.126 126.284 110.73 126.871 110.986C128.237 111.572 129.346 111.782 130.684 111.8C134.654 111.864 139.109 111.215 142.354 108.919C142.794 108.598 143.234 108.141 143.243 107.555C143.262 106.375 141.19 105.652 141.19 105.652C139.008 104.747 134.965 104.298 132.885 104.134C130.703 103.941 127.265 103.667 126.44 103.539C125.588 103.42 124.671 103.246 123.928 102.917C123.186 102.587 122.471 101.837 122.251 101.014C121.875 99.5226 122.352 97.7019 123.186 96.5126C125.358 93.4019 130.437 92.2217 134.223 91.7551C137.899 91.2977 143.83 91.3068 147.442 93.2189C148.001 93.5209 148.285 93.7953 148.166 94.39C147.928 95.5062 147.094 96.2198 146.076 96.54C145.003 96.8785 142.794 97.0158 141.832 97.0706C137.486 97.3177 132.225 97.1896 128.09 98.3149C127.769 98.4064 127.201 98.5619 127.027 98.7632C126.376 99.4677 128.228 99.6689 128.631 99.7421C128.75 99.7696 128.769 99.7787 128.897 99.7879L138.027 100.849ZM112.158 81.4992C112.158 81.4992 112.864 80.4379 113.46 79.6328C114.541 78.1689 116.494 76.1379 117.961 74.8845C118.41 74.5002 118.941 74.0702 118.941 74.0702C118.941 74.0702 118.107 74.1526 117.64 74.2532C116.521 74.4728 114.89 75.5523 114.074 76.2568C112.726 77.4096 111.241 79.2851 111.91 80.9502C112.002 81.1881 112.158 81.4992 112.158 81.4992ZM119.656 83.5028C121.783 83.3564 123.782 82.7434 125.643 81.7187C127.467 80.7032 130.144 78.7179 129.869 76.3849C129.786 75.6255 129.291 75.0583 128.668 74.793C127.852 74.4453 127.43 74.5002 126.394 74.8021C125.643 75.0217 125.303 75.1589 124.588 75.5615C122.498 76.7783 119.537 79.3675 117.924 81.4351C117.548 81.92 117.172 82.4689 116.879 82.8441C116.695 83.0728 116.549 83.2832 116.567 83.3472C116.622 83.5851 118.822 83.5577 119.656 83.5028ZM114.23 87.4826C114.01 87.7113 113.78 88.2785 113.533 88.6811C113.405 88.9006 113.166 89.1751 113.01 89.2849C112.451 89.6875 111.984 89.7149 111.452 89.2392C110.7 88.5804 110.269 87.5466 110.233 86.5494C110.214 86.1102 110.288 85.6345 110.205 85.2685C110.068 84.6464 109.444 84.0151 109.114 83.4204C108.72 82.7251 108.399 81.5083 108.363 80.7215C108.225 78.2696 109.518 76.0189 111.204 74.2349C112.9 72.4326 115.11 70.9413 117.521 69.9257C119.794 68.9651 123.131 68.3155 125.633 69.1847C126.449 69.4592 127.577 70.1545 128.154 70.8772C128.274 71.0236 128.374 71.1883 128.494 71.2706C128.604 71.3438 128.897 71.3713 129.126 71.4079C129.924 71.5451 131.069 72.1489 131.537 72.5515C132.481 73.3658 132.995 74.1343 133.233 75.2596C133.71 77.5194 132.408 80.0079 130.914 81.5175C128.365 84.1158 125.853 85.9455 122.59 87.2172C121.16 87.7753 118.932 88.2968 117.31 88.1504C116.805 88.1047 116.283 87.9766 115.797 87.94C115.55 87.9217 114.633 87.6838 114.532 87.6198C114.413 87.5283 114.257 87.446 114.23 87.4826ZM117.136 92.4962C117.236 92.5145 117.392 92.5602 117.521 92.606C118.666 93.036 119.134 94.0972 119.418 95.25C120.069 97.9398 120.344 103.896 120.454 106.229C120.536 107.985 120.573 109.705 120.647 111.434C120.711 112.898 120.83 114.847 120.518 116.219C120.408 116.713 120.078 117.29 119.601 117.583C119.061 117.93 117.823 117.958 117.145 117.811C115.476 117.464 114.926 116.393 114.688 114.746C114.12 110.803 114.395 103.072 114.725 99.8153C114.835 98.7358 115.238 95.2866 115.806 93.8411C116.017 93.347 116.42 92.3589 117.136 92.4962ZM66.2582 99.056C66.2582 99.056 63.7648 99.2298 62.0597 99.4219C59.8779 99.6598 55.7802 100.364 53.4243 101.206C52.7184 101.462 51.2792 102.057 51.1509 102.789C51.0225 103.539 51.49 104.134 52.0126 104.747C52.3151 105.103 54.0202 106.741 54.4969 107.134C56.5044 108.809 60.5746 111.389 63.5723 112.633C64.599 113.054 66.3041 113.667 66.3041 113.667C66.3041 113.667 66.1757 108.827 66.2032 104.06C66.2032 101.544 66.2582 99.056 66.2582 99.056ZM111.901 100.977C112.048 102.276 111.709 104.737 111.654 105.058C111.544 105.808 110.984 107.528 110.893 107.738C110.434 108.79 109.985 109.641 109.508 110.501C108.693 111.965 106.749 114.289 105.603 115.286C101.322 118.982 94.6853 121.087 88.9926 121.782C85.1332 122.249 80.6964 122.175 76.6078 121.425C75.1961 121.169 73.106 120.684 73.106 120.684C73.106 120.684 73.1152 121.517 73.0419 122.111C73.0052 122.377 72.8035 123.09 72.6935 123.319C72.4002 123.932 71.9051 124.252 71.1993 124.38C70.3376 124.536 69.43 124.591 68.6417 124.252C67.3399 123.703 66.8724 122.496 66.6432 121.096C66.4599 119.98 66.2674 118.031 66.2674 118.031C66.2674 118.031 65.2957 117.573 64.4798 117.171C61.9864 115.945 59.6213 114.463 57.5495 112.935C56.972 112.505 54.5152 110.446 53.9652 109.934C52.4434 108.489 51.0684 107.052 50.0233 105.204C49.2074 103.759 48.9783 102.487 49.5925 100.959C50.445 98.8272 53.4976 97.2262 55.5969 96.3113C57.137 95.6343 61.913 94.0789 63.8931 93.7862C64.8282 93.6489 66.2857 93.3928 66.3774 93.3379C66.4141 93.3104 66.4416 93.283 66.4691 93.2555C66.5057 93.1915 66.5882 91.0872 66.5699 90.3187C66.5516 89.5594 67.1291 84.5824 67.3216 83.5302C67.4224 82.963 67.8533 80.7672 68.2933 80.1909C68.5775 79.8066 69.0908 79.834 69.5034 80.0902C71.7768 81.4992 72.4735 86.403 72.6385 88.8915C72.7393 90.4102 72.7943 92.6975 72.7943 92.6975C72.7943 92.6975 75.407 92.6243 77.0112 92.67C78.5696 92.7066 80.293 92.9536 81.9064 93.2098C83.9782 93.5392 88.0209 94.4174 90.3401 95.5977C92.2469 96.5675 94.0345 98.1868 94.612 99.916C95.1529 101.499 95.0704 102.587 94.2545 104.015C93.3378 105.625 91.596 106.823 89.8268 106.915C89.3043 106.942 87.3242 106.686 86.71 106.21C86.4716 106.027 86.4808 105.689 86.655 105.451C86.7191 105.36 87.645 104.875 88.195 104.582C88.4701 104.436 88.6992 104.271 88.9101 104.079C89.3593 103.676 89.7718 103.237 89.7259 102.725C89.6618 102.057 88.9559 101.645 88.2775 101.38C85.1149 100.126 78.7896 99.0834 75.737 98.9004C74.5453 98.8272 72.8402 98.7723 72.8402 98.7723L73.1977 115.597C73.1977 115.597 74.6003 115.863 75.7095 116.046C76.342 116.146 79.0371 116.384 79.7522 116.402C85.1974 116.549 91.2843 116.055 96.2804 113.703C98.4897 112.679 100.497 111.398 102.028 109.66C104.036 107.363 105.09 104.216 104.815 100.922C104.512 97.336 101.982 93.0726 99.9564 90.4743C94.612 83.6217 85.4541 77.9768 77.4054 74.674C69.1825 71.2981 61.0513 69.3585 52.3243 69.0383C50.0783 68.956 45.1648 69.0657 42.6897 69.7519C42.3321 69.8526 41.9746 69.9715 41.6538 70.0447C41.3971 70.1087 40.9846 70.2826 40.8746 70.374C40.8104 70.4198 40.7462 70.493 40.7462 70.493C40.7462 70.493 40.9021 70.5753 41.0487 70.6394C41.3146 70.7583 42.4146 70.8223 42.9922 70.923C43.5055 71.0236 44.0372 71.2889 44.2481 71.6641C44.4497 72.0209 44.4772 72.3045 44.2297 72.5972C43.6705 73.2834 41.5529 73.1645 40.6179 73.0181C39.6462 72.8626 38.4453 72.5698 38.2253 71.7281C37.9686 70.74 38.4361 69.7702 38.9495 68.8645C39.9762 67.0713 41.4429 66.1381 43.588 65.5526C46.6407 64.7109 50.4817 64.1345 53.3693 64.0247C59.8871 63.7777 66.0565 64.9121 72.3635 66.8334C75.9753 67.9221 80.7055 69.7519 84.1707 71.417C86.655 72.6155 90.5693 74.8113 92.7694 76.2477C93.4661 76.7051 97.518 79.6785 98.1505 80.2092C99.4614 81.2796 101.185 82.8258 102.432 84.0609C104.842 86.4487 107.84 90.0992 109.298 92.9994C109.646 93.6947 109.921 94.3809 110.37 95.186C110.526 95.4604 111.195 97.1072 111.305 97.5921C111.415 98.0679 111.571 98.7541 111.599 98.7815C111.617 99.0194 111.919 100.428 111.901 100.977ZM193.818 97.2536C190.766 97.9581 182.744 98.3423 182.744 98.3423L181.736 101.508C181.736 101.508 185.742 101.169 188.666 101.471C188.666 101.471 189.61 101.362 189.72 102.542C189.757 103.64 189.629 104.82 189.629 104.82C189.629 104.82 189.565 105.533 188.556 105.716C187.456 105.899 179.912 106.192 179.912 106.192L178.692 110.318C178.692 110.318 178.234 111.27 179.252 110.995C180.196 110.739 188.098 109.266 189.134 109.477C190.234 109.751 191.462 111.215 191.105 112.56C190.683 114.216 182.799 119.239 177.996 118.891C177.996 118.891 175.475 119.056 173.339 115.652C171.35 112.413 174.091 106.274 174.091 106.274C174.091 106.274 172.835 103.411 173.742 102.441C173.742 102.441 174.283 101.947 175.86 101.837L177.794 97.8483C177.794 97.8483 175.594 98.0038 174.283 96.3845C173.064 94.8475 172.963 94.143 173.898 93.7221C174.897 93.2281 184.074 91.563 190.38 91.7734C190.38 91.7734 192.571 91.563 194.478 95.3598C194.46 95.3507 195.377 96.8877 193.818 97.2536ZM170.075 112.606C169.269 114.509 167.133 116.53 164.474 115.268C161.853 114.005 157.682 105.479 157.682 105.479C157.682 105.479 156.096 102.304 155.793 102.386C155.793 102.386 155.454 101.764 155.243 105.241C155.023 108.699 155.289 115.442 153.905 116.503C152.594 117.564 151.008 117.143 150.183 115.899C149.431 114.673 149.129 111.764 149.532 106.65C150.009 101.526 151.2 96.0734 152.731 94.3809C154.253 92.6975 155.472 93.9234 155.949 94.3626C155.949 94.3626 157.984 96.2015 161.339 101.609L161.935 102.606C161.935 102.606 164.988 107.711 165.299 107.702C165.299 107.702 165.547 107.94 165.767 107.766C166.088 107.674 165.959 106.037 165.959 106.037C165.959 106.037 165.327 100.474 162.54 91.0506C162.54 91.0506 162.118 89.8796 162.403 88.7726C162.687 87.6564 163.805 88.1779 163.805 88.1779C163.805 88.1779 168.114 90.3462 170.213 97.3451C172.294 104.372 170.9 110.693 170.075 112.606ZM216.488 108.415C214.527 111.837 208.98 118.992 201.619 117.299C199.19 123.182 197.146 129.138 195.972 138.049C195.972 138.049 195.716 139.778 194.276 139.183C192.846 138.68 190.49 136.31 190.014 133.035C189.5 128.726 191.426 121.443 195.349 113.09C194.203 111.233 193.424 108.58 194.093 104.792C194.093 104.792 195.083 97.7751 202.142 91.4441C202.142 91.4441 202.985 90.7121 203.48 90.9409C204.021 91.1696 203.774 93.4477 203.343 94.5638C202.894 95.6709 199.749 101.105 199.749 101.105C199.749 101.105 197.787 104.774 198.338 107.674C202.041 101.984 210.466 90.52 215.691 94.1338C217.442 95.3872 218.258 98.1136 218.258 101.05C218.258 103.612 217.643 106.357 216.488 108.415ZM214.967 99.4036C214.967 99.4036 214.673 97.1438 212.464 99.6324C210.557 101.737 207.12 105.671 204.36 111.023C207.266 110.693 210.062 109.129 210.906 108.324C212.271 107.107 215.48 103.804 214.967 99.4036ZM257.053 98.8913H243.559C243.293 94.3168 242.734 89.8521 241.863 85.2594C241.771 84.7836 241.359 84.436 240.873 84.436H237.765C237.49 84.436 237.233 84.5549 237.059 84.7653C236.885 84.9849 236.812 85.2502 236.867 85.5247C237.747 89.9711 238.315 94.3443 238.59 98.8913H225.61C225.005 98.8913 224.51 99.3762 224.51 99.98V102.78C224.51 103.383 225.005 103.877 225.61 103.877H238.783C238.792 104.573 238.801 105.186 238.801 105.771C238.801 109.806 238.627 113.136 238.214 116.887C238.178 117.18 238.278 117.464 238.471 117.683C238.664 117.894 238.939 118.022 239.223 118.022H242.11C242.67 118.022 243.137 117.601 243.201 117.043C243.595 113.264 243.76 109.897 243.76 105.78C243.76 105.204 243.751 104.582 243.742 103.887H257.053C257.658 103.887 258.153 103.393 258.153 102.789V99.9892C258.153 99.3853 257.658 98.8913 257.053 98.8913ZM76.5803 61.3623C76.3878 61.646 76.342 61.9936 76.452 62.3138C76.5712 62.6432 76.8187 62.8902 77.1395 63L79.5597 63.8143C79.7063 63.86 79.853 63.8875 79.9905 63.8875C80.4397 63.8875 80.8614 63.6679 81.1089 63.2928C89.0384 51.6736 99.7639 41.994 112.13 35.3153C124.9 28.417 139.366 24.7666 153.978 24.7666C171.625 24.7666 188.639 29.9632 203.205 39.7892C217.414 49.3772 228.451 62.7438 235.116 78.4526C235.318 78.9192 235.776 79.2302 236.289 79.2302H239.177C239.507 79.2302 239.819 79.0655 240.011 78.7819C240.204 78.5075 240.24 78.1506 240.112 77.8396C233.237 60.9415 221.604 46.5411 206.478 36.1936C190.995 25.5991 172.835 20 153.978 20C122.792 20 93.8603 35.4617 76.5803 61.3623Z" fill="white"/>
  </g>
  <g filter="url(#filter1_d_1251_8780)">
    <path fill-rule="evenodd" clip-rule="evenodd" d="M72.4428 52.7749C72.3296 53.4785 72.0314 54.4344 71.3313 55.5398C71.3313 55.5398 72.4662 56.4257 72.9747 57.8583C71.8351 60.8543 68.3457 63.3512 64.0176 63.9183C63.2333 64.0243 62.4661 64.0545 61.7263 64.0225C62.2547 64.5259 62.7585 65.0738 63.213 65.6895C65.694 69.0505 66.1696 73.1296 64.681 75.9575C64.0096 76.2377 63.034 76.4953 61.7335 76.483C61.7335 76.483 61.4825 77.9348 60.4616 79.1298C57.3054 79.7622 53.4917 78.1155 50.983 74.7171C50.5285 74.1013 50.1534 73.4586 49.828 72.8053C49.6406 73.5217 49.3858 74.2459 49.0584 74.971C47.2576 78.8913 43.8933 81.4798 40.7256 81.7211C40.1673 81.2977 39.4899 80.5995 38.8921 79.4851C38.8921 79.4851 37.5036 80.0476 35.9776 79.8076C33.9576 77.4464 33.6375 73.2945 35.4478 69.3305C35.7827 68.6155 36.1679 67.9475 36.5925 67.3188C35.8666 67.5393 35.1147 67.7107 34.3329 67.8201C30.0544 68.3768 26.2264 66.8879 24.532 64.3021C24.6452 63.5985 24.9434 62.6426 25.6435 61.5372C25.6435 61.5372 24.5086 60.6513 24.0001 59.2187C25.1396 56.2227 28.629 53.7258 32.9572 53.1587C33.7415 53.0527 34.5087 53.0225 35.2485 53.0545C34.7201 52.5511 34.2163 52.0032 33.7618 51.3875C31.2808 48.0265 30.8052 43.9474 32.2938 41.1195C32.9652 40.8393 33.9408 40.5817 35.2413 40.594C35.2413 40.594 35.4923 39.1422 36.5132 37.9472C39.6694 37.3149 43.4831 38.9615 45.9918 42.3599C46.4463 42.9757 46.8214 43.6184 47.1468 44.2717C47.3342 43.5553 47.589 42.8311 47.9214 42.1128C49.7172 38.1857 53.0815 35.5972 56.2492 35.3559C56.8075 35.7793 57.4849 36.4775 58.0827 37.5919C58.0827 37.5919 59.4712 37.0294 60.9972 37.2694C63.0172 39.6306 63.3373 43.7825 61.5269 47.7465C61.1921 48.4615 60.8068 49.1295 60.3823 49.7582C61.1082 49.5377 61.86 49.3663 62.6419 49.2569C66.9203 48.7002 70.7484 50.1891 72.4428 52.7749ZM51.5008 62.6207C54.1166 60.6898 54.664 56.9906 52.7229 54.3609C50.7818 51.7313 47.0856 51.1646 44.4697 53.0956C41.8537 55.0265 41.3064 58.7257 43.2475 61.3553C45.1887 63.985 48.8849 64.5517 51.5008 62.6207Z" fill="#FFD5DF"/>
  </g>
  <defs>
    <filter id="filter0_d_1251_8780" x="14.1527" y="0" width="268" height="167.308" filterUnits="userSpaceOnUse" color-interpolation-filters="sRGB">
      <feFlood flood-opacity="0" result="BackgroundImageFix"/>
      <feColorMatrix in="SourceAlpha" type="matrix" values="0 0 0 0 0 0 0 0 0 0 0 0 0 0 0 0 0 0 127 0" result="hardAlpha"/>
      <feOffset dy="4"/>
      <feGaussianBlur stdDeviation="12"/>
      <feComposite in2="hardAlpha" operator="out"/>
      <feColorMatrix type="matrix" values="0 0 0 0 1 0 0 0 0 1 0 0 0 0 1 0 0 0 0.4 0"/>
      <feBlend mode="normal" in2="BackgroundImageFix" result="effect1_dropShadow_1251_8780"/>
      <feBlend mode="normal" in="SourceGraphic" in2="effect1_dropShadow_1251_8780" result="shape"/>
    </filter>
    <filter id="filter1_d_1251_8780" x="0" y="15.3555" width="96.9747" height="94.3652" filterUnits="userSpaceOnUse" color-interpolation-filters="sRGB">
      <feFlood flood-opacity="0" result="BackgroundImageFix"/>
      <feColorMatrix in="SourceAlpha" type="matrix" values="0 0 0 0 0 0 0 0 0 0 0 0 0 0 0 0 0 0 127 0" result="hardAlpha"/>
      <feOffset dy="4"/>
      <feGaussianBlur stdDeviation="12"/>
      <feComposite in2="hardAlpha" operator="out"/>
      <feColorMatrix type="matrix" values="0 0 0 0 1 0 0 0 0 1 0 0 0 0 1 0 0 0 0.4 0"/>
      <feBlend mode="normal" in2="BackgroundImageFix" result="effect1_dropShadow_1251_8780"/>
      <feBlend mode="normal" in="SourceGraphic" in2="effect1_dropShadow_1251_8780" result="shape"/>
    </filter>
  </defs>
</svg>