<svg xmlns="http://www.w3.org/2000/svg" width="299" height="169" viewBox="0 0 299 169" fill="none">
  <g filter="url(#filter0_d_1374_9338)">
    <path d="M141.692 100.849C141.811 100.867 141.839 100.867 141.958 100.886C143.938 101.151 145.89 101.508 147.376 102.176C148.76 102.789 149.566 103.557 150.309 104.93C151.437 107.016 151.51 109.925 150.492 112.139C149.731 113.786 148.072 115.158 146.551 115.89C144.974 116.659 143.415 117.015 141.628 117.226C138.511 117.564 135.137 116.924 132.323 115.57C130.664 114.756 128.629 113.365 127.611 111.572C126.86 110.254 126.887 108.543 127.795 107.29C129.252 105.296 132.378 104.856 134.734 104.939C136.531 105.012 139.758 105.561 141.463 106.165C141.939 106.339 143.681 107.016 143.984 107.327C144.195 107.546 144.332 107.857 144.24 108.15C143.855 109.339 140.959 109.962 140.124 110.09C137.888 110.428 136.723 109.586 134.184 108.58C133.552 108.333 132.708 108.059 132.067 108.004C130.911 107.894 129.518 108.214 129.298 109.477C129.188 110.126 129.949 110.73 130.536 110.986C131.902 111.572 133.011 111.782 134.349 111.8C138.318 111.864 142.774 111.215 146.019 108.919C146.459 108.598 146.899 108.141 146.908 107.555C146.926 106.375 144.855 105.652 144.855 105.652C142.673 104.747 138.63 104.298 136.549 104.134C134.367 103.941 130.93 103.667 130.105 103.539C129.252 103.42 128.336 103.246 127.593 102.917C126.85 102.587 126.135 101.837 125.915 101.014C125.54 99.5226 126.016 97.7019 126.85 96.5126C129.023 93.4019 134.102 92.2217 137.888 91.7551C141.564 91.2977 147.495 91.3068 151.107 93.2189C151.666 93.5209 151.95 93.7953 151.831 94.39C151.592 95.5062 150.758 96.2198 149.741 96.54C148.668 96.8785 146.459 97.0158 145.496 97.0706C141.151 97.3177 135.889 97.1896 131.755 98.3149C131.434 98.4064 130.866 98.5619 130.691 98.7632C130.041 99.4677 131.892 99.6689 132.296 99.7421C132.415 99.7696 132.433 99.7787 132.562 99.7879L141.692 100.849ZM115.822 81.4992C115.822 81.4992 116.528 80.4379 117.124 79.6328C118.206 78.1689 120.158 76.1379 121.625 74.8845C122.074 74.5002 122.606 74.0702 122.606 74.0702C122.606 74.0702 121.772 74.1526 121.304 74.2532C120.186 74.4728 118.554 75.5523 117.738 76.2568C116.391 77.4096 114.906 79.2851 115.575 80.9502C115.667 81.1881 115.822 81.4992 115.822 81.4992ZM123.321 83.5028C125.448 83.3564 127.446 82.7434 129.307 81.7187C131.131 80.7032 133.808 78.7179 133.533 76.3849C133.451 75.6255 132.956 75.0583 132.332 74.793C131.517 74.4453 131.095 74.5002 130.059 74.8021C129.307 75.0217 128.968 75.1589 128.253 75.5615C126.163 76.7783 123.202 79.3675 121.589 81.4351C121.213 81.92 120.837 82.4689 120.544 82.8441C120.36 83.0728 120.213 83.2832 120.232 83.3472C120.287 83.5851 122.487 83.5577 123.321 83.5028ZM117.894 87.4826C117.674 87.7113 117.445 88.2785 117.198 88.6811C117.069 88.9006 116.831 89.1751 116.675 89.2849C116.116 89.6875 115.648 89.7149 115.117 89.2392C114.365 88.5804 113.934 87.5466 113.897 86.5494C113.879 86.1102 113.952 85.6345 113.87 85.2685C113.732 84.6464 113.109 84.0151 112.779 83.4204C112.385 82.7251 112.064 81.5083 112.027 80.7215C111.89 78.2696 113.182 76.0189 114.869 74.2349C116.565 72.4326 118.774 70.9413 121.185 69.9257C123.459 68.9651 126.795 68.3155 129.298 69.1847C130.114 69.4592 131.241 70.1545 131.819 70.8772C131.938 71.0236 132.039 71.1883 132.158 71.2706C132.268 71.3438 132.562 71.3713 132.791 71.4079C133.588 71.5451 134.734 72.1489 135.202 72.5515C136.146 73.3658 136.659 74.1343 136.898 75.2596C137.374 77.5194 136.073 80.0079 134.578 81.5175C132.03 84.1158 129.518 85.9455 126.255 87.2172C124.825 87.7753 122.597 88.2968 120.974 88.1504C120.47 88.1047 119.948 87.9766 119.462 87.94C119.214 87.9217 118.298 87.6838 118.197 87.6198C118.078 87.5283 117.922 87.446 117.894 87.4826ZM120.8 92.4962C120.901 92.5145 121.057 92.5602 121.185 92.606C122.331 93.036 122.799 94.0972 123.083 95.25C123.734 97.9398 124.009 103.896 124.119 106.229C124.201 107.985 124.238 109.705 124.311 111.434C124.375 112.898 124.495 114.847 124.183 116.219C124.073 116.713 123.743 117.29 123.266 117.583C122.725 117.93 121.488 117.958 120.809 117.811C119.141 117.464 118.591 116.393 118.353 114.746C117.784 110.803 118.059 103.072 118.389 99.8153C118.499 98.7358 118.903 95.2866 119.471 93.8411C119.682 93.347 120.085 92.3589 120.8 92.4962ZM69.9229 99.056C69.9229 99.056 67.4294 99.2298 65.7244 99.4219C63.5426 99.6598 59.4449 100.364 57.089 101.206C56.3831 101.462 54.9439 102.057 54.8155 102.789C54.6872 103.539 55.1547 104.134 55.6772 104.747C55.9798 105.103 57.6848 106.741 58.1615 107.134C60.1691 108.809 64.2393 111.389 67.2369 112.633C68.2636 113.054 69.9687 113.667 69.9687 113.667C69.9687 113.667 69.8404 108.827 69.8679 104.06C69.8679 101.544 69.9229 99.056 69.9229 99.056ZM115.566 100.977C115.712 102.276 115.373 104.737 115.318 105.058C115.208 105.808 114.649 107.528 114.557 107.738C114.099 108.79 113.65 109.641 113.173 110.501C112.357 111.965 110.414 114.289 109.268 115.286C104.987 118.982 98.35 121.087 92.6572 121.782C88.7979 122.249 84.361 122.175 80.2725 121.425C78.8608 121.169 76.7707 120.684 76.7707 120.684C76.7707 120.684 76.7799 121.517 76.7065 122.111C76.6699 122.377 76.4682 123.09 76.3582 123.319C76.0648 123.932 75.5698 124.252 74.8639 124.38C74.0022 124.536 73.0947 124.591 72.3063 124.252C71.0046 123.703 70.5371 122.496 70.3079 121.096C70.1246 119.98 69.9321 118.031 69.9321 118.031C69.9321 118.031 68.9603 117.573 68.1445 117.171C65.651 115.945 63.2859 114.463 61.2142 112.935C60.6366 112.505 58.1799 110.446 57.6298 109.934C56.1081 108.489 54.733 107.052 53.688 105.204C52.8721 103.759 52.6429 102.487 53.2571 100.959C54.1097 98.8272 57.1623 97.2262 59.2616 96.3113C60.8016 95.6343 65.5777 94.0789 67.5578 93.7862C68.4928 93.6489 69.9504 93.3928 70.0421 93.3379C70.0787 93.3104 70.1062 93.283 70.1337 93.2555C70.1704 93.1915 70.2529 91.0872 70.2346 90.3187C70.2162 89.5594 70.7938 84.5824 70.9863 83.5302C71.0871 82.963 71.518 80.7672 71.958 80.1909C72.2422 79.8066 72.7555 79.834 73.168 80.0902C75.4415 81.4992 76.1382 86.403 76.3032 88.8915C76.404 90.4102 76.459 92.6975 76.459 92.6975C76.459 92.6975 79.0716 92.6243 80.6759 92.67C82.2343 92.7066 83.9577 92.9536 85.5711 93.2098C87.6429 93.5392 91.6855 94.4174 94.0048 95.5977C95.9116 96.5675 97.6991 98.1868 98.2767 99.916C98.8175 101.499 98.735 102.587 97.9192 104.015C97.0024 105.625 95.2607 106.823 93.4915 106.915C92.9689 106.942 90.9888 106.686 90.3746 106.21C90.1363 106.027 90.1455 105.689 90.3196 105.451C90.3838 105.36 91.3097 104.875 91.8597 104.582C92.1347 104.436 92.3639 104.271 92.5747 104.079C93.0239 103.676 93.4365 103.237 93.3906 102.725C93.3264 102.057 92.6206 101.645 91.9422 101.38C88.7796 100.126 82.4543 99.0834 79.4016 98.9004C78.2099 98.8272 76.5049 98.7723 76.5049 98.7723L76.8624 115.597C76.8624 115.597 78.2649 115.863 79.3741 116.046C80.0067 116.146 82.7018 116.384 83.4168 116.402C88.8621 116.549 94.949 116.055 99.9451 113.703C102.154 112.679 104.162 111.398 105.693 109.66C107.7 107.363 108.755 104.216 108.48 100.922C108.177 97.336 105.647 93.0726 103.621 90.4743C98.2767 83.6217 89.1188 77.9768 81.0701 74.674C72.8472 71.2981 64.716 69.3585 55.9889 69.0383C53.743 68.956 48.8294 69.0657 46.3543 69.7519C45.9968 69.8526 45.6393 69.9715 45.3184 70.0447C45.0618 70.1087 44.6492 70.2826 44.5392 70.374C44.4751 70.4198 44.4109 70.493 44.4109 70.493C44.4109 70.493 44.5667 70.5753 44.7134 70.6394C44.9793 70.7583 46.0793 70.8223 46.6568 70.923C47.1702 71.0236 47.7019 71.2889 47.9127 71.6641C48.1144 72.0209 48.1419 72.3045 47.8944 72.5972C47.3352 73.2834 45.2176 73.1645 44.2826 73.0181C43.3109 72.8626 42.11 72.5698 41.89 71.7281C41.6333 70.74 42.1008 69.7702 42.6142 68.8645C43.6409 67.0713 45.1076 66.1381 47.2527 65.5526C50.3053 64.7109 54.1463 64.1345 57.034 64.0247C63.5518 63.7777 69.7212 64.9121 76.0282 66.8334C79.64 67.9221 84.3702 69.7519 87.8354 71.417C90.3196 72.6155 94.234 74.8113 96.4341 76.2477C97.1308 76.7051 101.183 79.6785 101.815 80.2092C103.126 81.2796 104.849 82.8258 106.096 84.0609C108.507 86.4487 111.505 90.0992 112.962 92.9994C113.311 93.6947 113.586 94.3809 114.035 95.186C114.191 95.4604 114.86 97.1072 114.97 97.5921C115.08 98.0679 115.236 98.7541 115.263 98.7815C115.282 99.0194 115.584 100.428 115.566 100.977ZM197.483 97.2536C194.43 97.9581 186.409 98.3423 186.409 98.3423L185.401 101.508C185.401 101.508 189.407 101.169 192.331 101.471C192.331 101.471 193.275 101.362 193.385 102.542C193.422 103.64 193.293 104.82 193.293 104.82C193.293 104.82 193.229 105.533 192.221 105.716C191.121 105.899 183.576 106.192 183.576 106.192L182.357 110.318C182.357 110.318 181.899 111.27 182.916 110.995C183.861 110.739 191.763 109.266 192.798 109.477C193.898 109.751 195.127 111.215 194.769 112.56C194.348 114.216 186.464 119.239 181.66 118.891C181.66 118.891 179.139 119.056 177.004 115.652C175.014 112.413 177.755 106.274 177.755 106.274C177.755 106.274 176.499 103.411 177.407 102.441C177.407 102.441 177.948 101.947 179.525 101.837L181.459 97.8483C181.459 97.8483 179.259 98.0038 177.948 96.3845C176.729 94.8475 176.628 94.143 177.563 93.7221C178.562 93.2281 187.738 91.563 194.045 91.7734C194.045 91.7734 196.236 91.563 198.143 95.3598C198.125 95.3507 199.041 96.8877 197.483 97.2536ZM173.74 112.606C172.933 114.509 170.797 116.53 168.139 115.268C165.517 114.005 161.346 105.479 161.346 105.479C161.346 105.479 159.76 102.304 159.458 102.386C159.458 102.386 159.119 101.764 158.908 105.241C158.688 108.699 158.954 115.442 157.569 116.503C156.258 117.564 154.673 117.143 153.848 115.899C153.096 114.673 152.793 111.764 153.197 106.65C153.673 101.526 154.865 96.0734 156.396 94.3809C157.918 92.6975 159.137 93.9234 159.614 94.3626C159.614 94.3626 161.649 96.2015 165.004 101.609L165.6 102.606C165.6 102.606 168.652 107.711 168.964 107.702C168.964 107.702 169.212 107.94 169.432 107.766C169.752 107.674 169.624 106.037 169.624 106.037C169.624 106.037 168.992 100.474 166.205 91.0506C166.205 91.0506 165.783 89.8796 166.067 88.7726C166.351 87.6564 167.47 88.1779 167.47 88.1779C167.47 88.1779 171.778 90.3462 173.878 97.3451C175.959 104.372 174.565 110.693 173.74 112.606ZM220.153 108.415C218.191 111.837 212.645 118.992 205.284 117.299C202.855 123.182 200.81 129.138 199.637 138.049C199.637 138.049 199.38 139.778 197.941 139.183C196.511 138.68 194.155 136.31 193.678 133.035C193.165 128.726 195.09 121.443 199.014 113.09C197.868 111.233 197.089 108.58 197.758 104.792C197.758 104.792 198.748 97.7751 205.807 91.4441C205.807 91.4441 206.65 90.7121 207.145 90.9409C207.686 91.1696 207.438 93.4477 207.007 94.5638C206.558 95.6709 203.414 101.105 203.414 101.105C203.414 101.105 201.452 104.774 202.002 107.674C205.706 101.984 214.13 90.52 219.355 94.1338C221.106 95.3872 221.922 98.1136 221.922 101.05C221.922 103.612 221.308 106.357 220.153 108.415ZM218.631 99.4036C218.631 99.4036 218.338 97.1438 216.129 99.6324C214.222 101.737 210.784 105.671 208.025 111.023C210.931 110.693 213.727 109.129 214.57 108.324C215.936 107.107 219.145 103.804 218.631 99.4036ZM260.717 98.8913H247.223C246.958 94.3168 246.398 89.8521 245.527 85.2594C245.436 84.7836 245.023 84.436 244.537 84.436H241.43C241.155 84.436 240.898 84.5549 240.724 84.7653C240.55 84.9849 240.476 85.2502 240.531 85.5247C241.411 89.9711 241.98 94.3443 242.255 98.8913H229.274C228.669 98.8913 228.174 99.3762 228.174 99.98V102.78C228.174 103.383 228.669 103.877 229.274 103.877H242.447C242.457 104.573 242.466 105.186 242.466 105.771C242.466 109.806 242.292 113.136 241.879 116.887C241.842 117.18 241.943 117.464 242.136 117.683C242.328 117.894 242.603 118.022 242.887 118.022H245.775C246.334 118.022 246.802 117.601 246.866 117.043C247.26 113.264 247.425 109.897 247.425 105.78C247.425 105.204 247.416 104.582 247.407 103.887H260.717C261.322 103.887 261.817 103.393 261.817 102.789V99.9892C261.817 99.3853 261.322 98.8913 260.717 98.8913ZM80.245 61.3623C80.0525 61.646 80.0067 61.9936 80.1167 62.3138C80.2359 62.6432 80.4834 62.8902 80.8042 63L83.2243 63.8143C83.371 63.86 83.5177 63.8875 83.6552 63.8875C84.1044 63.8875 84.526 63.6679 84.7736 63.2928C92.7031 51.6736 103.429 41.994 115.795 35.3153C128.565 28.417 143.03 24.7666 157.643 24.7666C175.289 24.7666 192.303 29.9632 206.87 39.7892C221.079 49.3772 232.116 62.7438 238.781 78.4526C238.982 78.9192 239.441 79.2302 239.954 79.2302H242.842C243.172 79.2302 243.483 79.0655 243.676 78.7819C243.868 78.5075 243.905 78.1506 243.777 77.8396C236.901 60.9415 225.268 46.5411 210.143 36.1936C194.659 25.5991 176.499 20 157.643 20C126.456 20 97.525 35.4617 80.245 61.3623Z" fill="white"/>
  </g>
  <g filter="url(#filter1_d_1374_9338)">
    <path d="M68.316 33.9006C66.0666 34.8365 64.3635 36.7418 63.6883 39.0836C62.5117 35.8851 59.4428 33.7778 56.0361 33.8244C52.6256 33.8751 49.6195 36.069 48.5342 39.3009C47.5916 42.477 48.245 45.9091 50.288 48.5179C52.3703 51.3521 55.8981 53.7245 61.0747 55.761L64.3291 57.0409L67.4846 55.5335C72.5043 53.1352 75.8551 50.5187 77.7307 47.544L77.7268 47.5442C79.5798 44.797 79.9844 41.3274 78.8189 38.2262C77.1141 34.1318 72.4096 32.1958 68.3149 33.9007L68.316 33.9006Z" fill="#FF6F61"/>
  </g>
  <g filter="url(#filter2_d_1374_9338)">
    <path d="M272.945 73.2423C274.378 71.1199 274.693 68.4351 273.791 66.0359C272.775 63.6056 270.336 62.0778 267.707 62.2259C265.074 62.374 262.823 64.1698 262.089 66.7013C261.18 64.2281 258.808 62.5963 256.171 62.6352C253.534 62.6741 251.21 64.3709 250.372 66.867C249.643 69.3241 250.147 71.9798 251.728 73.9953C253.338 76.1896 256.064 78.0198 260.068 79.5975L262.585 80.5869L265.026 79.4215C268.904 77.568 271.494 75.5452 272.945 73.2423Z" fill="#FF6F61"/>
  </g>
  <g filter="url(#filter3_d_1374_9338)">
    <path d="M42.3944 99.0349C43.5455 97.3289 43.7973 95.1702 43.0723 93.2455C42.2603 91.2926 40.2975 90.0647 38.1872 90.1825C36.073 90.3044 34.2635 91.7445 33.6752 93.7784C32.9441 91.7913 31.0371 90.4832 28.9196 90.5114C26.8022 90.5435 24.9354 91.9075 24.2639 93.913C23.6772 95.8843 24.0813 98.0198 25.3505 99.6398C26.6442 101.4 28.8346 102.874 32.0495 104.139L34.0712 104.935L36.0314 103.998C39.1484 102.504 41.2286 100.882 42.3944 99.0349Z" fill="#FF6F61"/>
  </g>
  <g filter="url(#filter4_d_1374_9338)">
    <path d="M240.394 135.035C241.545 133.329 241.797 131.17 241.072 129.246C240.26 127.293 238.298 126.065 236.187 126.182C234.073 126.304 232.263 127.745 231.675 129.778C230.944 127.791 229.037 126.483 226.92 126.511C224.802 126.544 222.935 127.907 222.264 129.913C221.677 131.884 222.081 134.02 223.351 135.64C224.644 137.4 226.835 138.874 230.05 140.139L232.071 140.935L234.031 139.998C237.148 138.504 239.229 136.882 240.394 135.035Z" fill="#FF6F61"/>
  </g>
  <g filter="url(#filter5_d_1374_9338)">
    <path d="M65.2766 129.372C64.3482 129.757 63.6452 130.544 63.3667 131.507C62.8821 130.188 61.6161 129.318 60.2098 129.341C58.8033 129.359 57.5611 130.263 57.112 131.597C56.7247 132.908 56.9939 134.325 57.8373 135.401C59.0124 136.794 60.554 137.83 62.29 138.394L63.6337 138.921L64.9328 138.3C66.6244 137.614 68.0888 136.472 69.1622 134.999C69.9272 133.866 70.0952 132.433 69.612 131.153C68.9072 129.466 66.9674 128.667 65.2766 129.372Z" fill="#FF6F61"/>
  </g>
  <g filter="url(#filter6_d_1374_9338)">
    <path d="M270.277 108.372C269.348 108.757 268.645 109.544 268.367 110.507C267.882 109.188 266.616 108.318 265.21 108.341C263.803 108.359 262.561 109.263 262.112 110.597C261.725 111.908 261.994 113.325 262.837 114.401C264.012 115.794 265.554 116.83 267.29 117.394L268.634 117.921L269.933 117.3C271.624 116.614 273.089 115.472 274.162 113.999C274.927 112.866 275.095 111.433 274.612 110.153C273.907 108.466 271.967 107.667 270.277 108.372Z" fill="#FF6F61"/>
  </g>
  <defs>
    <filter id="filter0_d_1374_9338" x="17.8174" y="0" width="268" height="167.308" filterUnits="userSpaceOnUse" color-interpolation-filters="sRGB">
      <feFlood flood-opacity="0" result="BackgroundImageFix"/>
      <feColorMatrix in="SourceAlpha" type="matrix" values="0 0 0 0 0 0 0 0 0 0 0 0 0 0 0 0 0 0 127 0" result="hardAlpha"/>
      <feOffset dy="4"/>
      <feGaussianBlur stdDeviation="12"/>
      <feComposite in2="hardAlpha" operator="out"/>
      <feColorMatrix type="matrix" values="0 0 0 0 1 0 0 0 0 1 0 0 0 0 1 0 0 0 0.4 0"/>
      <feBlend mode="normal" in2="BackgroundImageFix" result="effect1_dropShadow_1374_9338"/>
      <feBlend mode="normal" in="SourceGraphic" in2="effect1_dropShadow_1374_9338" result="shape"/>
    </filter>
    <filter id="filter1_d_1374_9338" x="24.1111" y="13.2812" width="79.363" height="71.7598" filterUnits="userSpaceOnUse" color-interpolation-filters="sRGB">
      <feFlood flood-opacity="0" result="BackgroundImageFix"/>
      <feColorMatrix in="SourceAlpha" type="matrix" values="0 0 0 0 0 0 0 0 0 0 0 0 0 0 0 0 0 0 127 0" result="hardAlpha"/>
      <feOffset dy="4"/>
      <feGaussianBlur stdDeviation="12"/>
      <feComposite in2="hardAlpha" operator="out"/>
      <feColorMatrix type="matrix" values="0 0 0 0 1 0 0 0 0 1 0 0 0 0 1 0 0 0 0.4 0"/>
      <feBlend mode="normal" in2="BackgroundImageFix" result="effect1_dropShadow_1374_9338"/>
      <feBlend mode="normal" in="SourceGraphic" in2="effect1_dropShadow_1374_9338" result="shape"/>
    </filter>
    <filter id="filter2_d_1374_9338" x="226.044" y="42.2158" width="72.2532" height="66.3711" filterUnits="userSpaceOnUse" color-interpolation-filters="sRGB">
      <feFlood flood-opacity="0" result="BackgroundImageFix"/>
      <feColorMatrix in="SourceAlpha" type="matrix" values="0 0 0 0 0 0 0 0 0 0 0 0 0 0 0 0 0 0 127 0" result="hardAlpha"/>
      <feOffset dy="4"/>
      <feGaussianBlur stdDeviation="12"/>
      <feComposite in2="hardAlpha" operator="out"/>
      <feColorMatrix type="matrix" values="0 0 0 0 1 0 0 0 0 1 0 0 0 0 1 0 0 0 0.4 0"/>
      <feBlend mode="normal" in2="BackgroundImageFix" result="effect1_dropShadow_1374_9338"/>
      <feBlend mode="normal" in="SourceGraphic" in2="effect1_dropShadow_1374_9338" result="shape"/>
    </filter>
    <filter id="filter3_d_1374_9338" x="0" y="70.1748" width="67.48" height="62.7607" filterUnits="userSpaceOnUse" color-interpolation-filters="sRGB">
      <feFlood flood-opacity="0" result="BackgroundImageFix"/>
      <feColorMatrix in="SourceAlpha" type="matrix" values="0 0 0 0 0 0 0 0 0 0 0 0 0 0 0 0 0 0 127 0" result="hardAlpha"/>
      <feOffset dy="4"/>
      <feGaussianBlur stdDeviation="12"/>
      <feComposite in2="hardAlpha" operator="out"/>
      <feColorMatrix type="matrix" values="0 0 0 0 1 0 0 0 0 1 0 0 0 0 1 0 0 0 0.4 0"/>
      <feBlend mode="normal" in2="BackgroundImageFix" result="effect1_dropShadow_1374_9338"/>
      <feBlend mode="normal" in="SourceGraphic" in2="effect1_dropShadow_1374_9338" result="shape"/>
    </filter>
    <filter id="filter4_d_1374_9338" x="198" y="106.175" width="67.48" height="62.7607" filterUnits="userSpaceOnUse" color-interpolation-filters="sRGB">
      <feFlood flood-opacity="0" result="BackgroundImageFix"/>
      <feColorMatrix in="SourceAlpha" type="matrix" values="0 0 0 0 0 0 0 0 0 0 0 0 0 0 0 0 0 0 127 0" result="hardAlpha"/>
      <feOffset dy="4"/>
      <feGaussianBlur stdDeviation="12"/>
      <feComposite in2="hardAlpha" operator="out"/>
      <feColorMatrix type="matrix" values="0 0 0 0 1 0 0 0 0 1 0 0 0 0 1 0 0 0 0.4 0"/>
      <feBlend mode="normal" in2="BackgroundImageFix" result="effect1_dropShadow_1374_9338"/>
      <feBlend mode="normal" in="SourceGraphic" in2="effect1_dropShadow_1374_9338" result="shape"/>
    </filter>
    <filter id="filter5_d_1374_9338" x="32.9385" y="109.115" width="60.9453" height="57.8057" filterUnits="userSpaceOnUse" color-interpolation-filters="sRGB">
      <feFlood flood-opacity="0" result="BackgroundImageFix"/>
      <feColorMatrix in="SourceAlpha" type="matrix" values="0 0 0 0 0 0 0 0 0 0 0 0 0 0 0 0 0 0 127 0" result="hardAlpha"/>
      <feOffset dy="4"/>
      <feGaussianBlur stdDeviation="12"/>
      <feComposite in2="hardAlpha" operator="out"/>
      <feColorMatrix type="matrix" values="0 0 0 0 1 0 0 0 0 1 0 0 0 0 1 0 0 0 0.4 0"/>
      <feBlend mode="normal" in2="BackgroundImageFix" result="effect1_dropShadow_1374_9338"/>
      <feBlend mode="normal" in="SourceGraphic" in2="effect1_dropShadow_1374_9338" result="shape"/>
    </filter>
    <filter id="filter6_d_1374_9338" x="237.938" y="88.1152" width="60.9453" height="57.8057" filterUnits="userSpaceOnUse" color-interpolation-filters="sRGB">
      <feFlood flood-opacity="0" result="BackgroundImageFix"/>
      <feColorMatrix in="SourceAlpha" type="matrix" values="0 0 0 0 0 0 0 0 0 0 0 0 0 0 0 0 0 0 127 0" result="hardAlpha"/>
      <feOffset dy="4"/>
      <feGaussianBlur stdDeviation="12"/>
      <feComposite in2="hardAlpha" operator="out"/>
      <feColorMatrix type="matrix" values="0 0 0 0 1 0 0 0 0 1 0 0 0 0 1 0 0 0 0.4 0"/>
      <feBlend mode="normal" in2="BackgroundImageFix" result="effect1_dropShadow_1374_9338"/>
      <feBlend mode="normal" in="SourceGraphic" in2="effect1_dropShadow_1374_9338" result="shape"/>
    </filter>
  </defs>
</svg>