<svg width="377" height="168" viewBox="0 0 377 168" fill="none" xmlns="http://www.w3.org/2000/svg">
<g filter="url(#filter0_d_1394_9998)">
<path d="M123.875 100.849C123.994 100.867 124.021 100.867 124.14 100.886C126.121 101.151 128.073 101.508 129.558 102.176C130.942 102.789 131.749 103.557 132.492 104.93C133.619 107.016 133.693 109.925 132.675 112.139C131.914 113.786 130.255 115.158 128.733 115.89C127.156 116.659 125.598 117.015 123.81 117.226C120.694 117.564 117.32 116.924 114.506 115.57C112.847 114.756 110.811 113.365 109.794 111.572C109.042 110.254 109.07 108.543 109.977 107.29C111.435 105.296 114.561 104.856 116.917 104.939C118.714 105.012 121.94 105.561 123.645 106.165C124.122 106.339 125.864 107.016 126.166 107.327C126.377 107.546 126.515 107.857 126.423 108.15C126.038 109.339 123.141 109.962 122.307 110.09C120.07 110.428 118.906 109.586 116.367 108.58C115.734 108.333 114.891 108.059 114.249 108.004C113.094 107.894 111.701 108.214 111.481 109.477C111.371 110.126 112.132 110.73 112.718 110.986C114.084 111.572 115.193 111.782 116.532 111.8C120.501 111.864 124.956 111.215 128.201 108.919C128.641 108.598 129.081 108.141 129.091 107.555C129.109 106.375 127.037 105.652 127.037 105.652C124.855 104.747 120.813 104.298 118.732 104.134C116.55 103.941 113.112 103.667 112.287 103.539C111.435 103.42 110.518 103.246 109.776 102.917C109.033 102.587 108.318 101.837 108.098 101.014C107.722 99.5226 108.199 97.7019 109.033 96.5126C111.206 93.4019 116.284 92.2217 120.07 91.7551C123.746 91.2977 129.677 91.3068 133.289 93.2189C133.848 93.5209 134.133 93.7953 134.013 94.39C133.775 95.5062 132.941 96.2198 131.923 96.54C130.851 96.8785 128.641 97.0158 127.679 97.0706C123.334 97.3177 118.072 97.1896 113.937 98.3149C113.617 98.4064 113.048 98.5619 112.874 98.7632C112.223 99.4677 114.075 99.6689 114.478 99.7421C114.597 99.7696 114.616 99.7787 114.744 99.7879L123.875 100.849ZM98.0051 81.4992C98.0051 81.4992 98.7109 80.4379 99.3068 79.6328C100.389 78.1689 102.341 76.1379 103.808 74.8845C104.257 74.5002 104.789 74.0702 104.789 74.0702C104.789 74.0702 103.955 74.1526 103.487 74.2532C102.369 74.4728 100.737 75.5523 99.921 76.2568C98.5734 77.4096 97.0884 79.2851 97.7576 80.9502C97.8492 81.1881 98.0051 81.4992 98.0051 81.4992ZM105.504 83.5028C107.631 83.3564 109.629 82.7434 111.49 81.7187C113.314 80.7032 115.991 78.7179 115.716 76.3849C115.633 75.6255 115.138 75.0583 114.515 74.793C113.699 74.4453 113.277 74.5002 112.242 74.8021C111.49 75.0217 111.151 75.1589 110.436 75.5615C108.346 76.7783 105.385 79.3675 103.771 81.4351C103.395 81.92 103.019 82.4689 102.726 82.8441C102.543 83.0728 102.396 83.2832 102.414 83.3472C102.469 83.5851 104.67 83.5577 105.504 83.5028ZM100.077 87.4826C99.8568 87.7113 99.6277 88.2785 99.3801 88.6811C99.2518 88.9006 99.0135 89.1751 98.8576 89.2849C98.2984 89.6875 97.8309 89.7149 97.2992 89.2392C96.5475 88.5804 96.1167 87.5466 96.08 86.5494C96.0617 86.1102 96.135 85.6345 96.0525 85.2685C95.915 84.6464 95.2916 84.0151 94.9616 83.4204C94.5674 82.7251 94.2466 81.5083 94.2099 80.7215C94.0724 78.2696 95.365 76.0189 97.0517 74.2349C98.7476 72.4326 100.957 70.9413 103.368 69.9257C105.641 68.9651 108.978 68.3155 111.481 69.1847C112.297 69.4592 113.424 70.1545 114.002 70.8772C114.121 71.0236 114.222 71.1883 114.341 71.2706C114.451 71.3438 114.744 71.3713 114.973 71.4079C115.771 71.5451 116.917 72.1489 117.384 72.5515C118.328 73.3658 118.842 74.1343 119.08 75.2596C119.557 77.5194 118.255 80.0079 116.761 81.5175C114.212 84.1158 111.701 85.9455 108.437 87.2172C107.007 87.7753 104.78 88.2968 103.157 88.1504C102.653 88.1047 102.13 87.9766 101.644 87.94C101.397 87.9217 100.48 87.6838 100.379 87.6198C100.26 87.5283 100.104 87.446 100.077 87.4826ZM102.983 92.4962C103.084 92.5145 103.239 92.5602 103.368 92.606C104.514 93.036 104.981 94.0972 105.265 95.25C105.916 97.9398 106.191 103.896 106.301 106.229C106.384 107.985 106.42 109.705 106.494 111.434C106.558 112.898 106.677 114.847 106.365 116.219C106.255 116.713 105.925 117.29 105.449 117.583C104.908 117.93 103.67 117.958 102.992 117.811C101.324 117.464 100.774 116.393 100.535 114.746C99.9668 110.803 100.242 103.072 100.572 99.8153C100.682 98.7358 101.085 95.2866 101.654 93.8411C101.864 93.347 102.268 92.3589 102.983 92.4962ZM52.1055 99.056C52.1055 99.056 49.6121 99.2298 47.907 99.4219C45.7252 99.6598 41.6275 100.364 39.2716 101.206C38.5657 101.462 37.1265 102.057 36.9982 102.789C36.8698 103.539 37.3373 104.134 37.8599 104.747C38.1624 105.103 39.8675 106.741 40.3441 107.134C42.3517 108.809 46.4219 111.389 49.4196 112.633C50.4463 113.054 52.1513 113.667 52.1513 113.667C52.1513 113.667 52.023 108.827 52.0505 104.06C52.0505 101.544 52.1055 99.056 52.1055 99.056ZM97.7484 100.977C97.8951 102.276 97.5559 104.737 97.5009 105.058C97.3909 105.808 96.8317 107.528 96.74 107.738C96.2817 108.79 95.8325 109.641 95.3558 110.501C94.5399 111.965 92.5965 114.289 91.4506 115.286C87.1696 118.982 80.5326 121.087 74.8399 121.782C70.9805 122.249 66.5437 122.175 62.4551 121.425C61.0434 121.169 58.9533 120.684 58.9533 120.684C58.9533 120.684 58.9625 121.517 58.8891 122.111C58.8525 122.377 58.6508 123.09 58.5408 123.319C58.2475 123.932 57.7524 124.252 57.0466 124.38C56.1849 124.536 55.2773 124.591 54.4889 124.252C53.1872 123.703 52.7197 122.496 52.4905 121.096C52.3072 119.98 52.1147 118.031 52.1147 118.031C52.1147 118.031 51.143 117.573 50.3271 117.171C47.8336 115.945 45.4685 114.463 43.3968 112.935C42.8193 112.505 40.3625 110.446 39.8125 109.934C38.2907 108.489 36.9157 107.052 35.8706 105.204C35.0547 103.759 34.8256 102.487 35.4398 100.959C36.2923 98.8272 39.3449 97.2262 41.4442 96.3113C42.9843 95.6343 47.7603 94.0789 49.7404 93.7862C50.6754 93.6489 52.133 93.3928 52.2247 93.3379C52.2613 93.3104 52.2888 93.283 52.3163 93.2555C52.353 93.1915 52.4355 91.0872 52.4172 90.3187C52.3989 89.5594 52.9764 84.5824 53.1689 83.5302C53.2697 82.963 53.7006 80.7672 54.1406 80.1909C54.4248 79.8066 54.9381 79.834 55.3507 80.0902C57.6241 81.4992 58.3208 86.403 58.4858 88.8915C58.5866 90.4102 58.6416 92.6975 58.6416 92.6975C58.6416 92.6975 61.2542 92.6243 62.8585 92.67C64.4169 92.7066 66.1403 92.9536 67.7537 93.2098C69.8255 93.5392 73.8682 94.4174 76.1874 95.5977C78.0942 96.5675 79.8818 98.1868 80.4593 99.916C81.0001 101.499 80.9176 102.587 80.1018 104.015C79.1851 105.625 77.4433 106.823 75.6741 106.915C75.1515 106.942 73.1715 106.686 72.5573 106.21C72.3189 106.027 72.3281 105.689 72.5023 105.451C72.5664 105.36 73.4923 104.875 74.0423 104.582C74.3173 104.436 74.5465 104.271 74.7574 104.079C75.2066 103.676 75.6191 103.237 75.5732 102.725C75.5091 102.057 74.8032 101.645 74.1248 101.38C70.9622 100.126 64.6369 99.0834 61.5843 98.9004C60.3925 98.8272 58.6875 98.7723 58.6875 98.7723L59.045 115.597C59.045 115.597 60.4475 115.863 61.5568 116.046C62.1893 116.146 64.8844 116.384 65.5994 116.402C71.0447 116.549 77.1316 116.055 82.1277 113.703C84.337 112.679 86.3446 111.398 87.8755 109.66C89.883 107.363 90.9373 104.216 90.6622 100.922C90.3597 97.336 87.8296 93.0726 85.8037 90.4743C80.4593 83.6217 71.3014 77.9768 63.2527 74.674C55.0298 71.2981 46.8986 69.3585 38.1715 69.0383C35.9256 68.956 31.0121 69.0657 28.5369 69.7519C28.1794 69.8526 27.8219 69.9715 27.5011 70.0447C27.2444 70.1087 26.8319 70.2826 26.7219 70.374C26.6577 70.4198 26.5935 70.493 26.5935 70.493C26.5935 70.493 26.7494 70.5753 26.896 70.6394C27.1619 70.7583 28.2619 70.8223 28.8395 70.923C29.3528 71.0236 29.8845 71.2889 30.0953 71.6641C30.297 72.0209 30.3245 72.3045 30.077 72.5972C29.5178 73.2834 27.4002 73.1645 26.4652 73.0181C25.4935 72.8626 24.2926 72.5698 24.0726 71.7281C23.8159 70.74 24.2834 69.7702 24.7968 68.8645C25.8235 67.0713 27.2902 66.1381 29.4353 65.5526C32.488 64.7109 36.329 64.1345 39.2166 64.0247C45.7344 63.7777 51.9038 64.9121 58.2108 66.8334C61.8226 67.9221 66.5528 69.7519 70.018 71.417C72.5023 72.6155 76.4166 74.8113 78.6167 76.2477C79.3134 76.7051 83.3652 79.6785 83.9978 80.2092C85.3087 81.2796 87.0321 82.8258 88.2788 84.0609C90.6898 86.4487 93.6874 90.0992 95.145 92.9994C95.4933 93.6947 95.7683 94.3809 96.2175 95.186C96.3733 95.4604 97.0425 97.1072 97.1525 97.5921C97.2625 98.0679 97.4184 98.7541 97.4459 98.7815C97.4642 99.0194 97.7667 100.428 97.7484 100.977ZM179.665 97.2536C176.613 97.9581 168.592 98.3423 168.592 98.3423L167.583 101.508C167.583 101.508 171.589 101.169 174.514 101.471C174.514 101.471 175.458 101.362 175.568 102.542C175.604 103.64 175.476 104.82 175.476 104.82C175.476 104.82 175.412 105.533 174.404 105.716C173.303 105.899 165.759 106.192 165.759 106.192L164.54 110.318C164.54 110.318 164.081 111.27 165.099 110.995C166.043 110.739 173.945 109.266 174.981 109.477C176.081 109.751 177.31 111.215 176.952 112.56C176.53 114.216 168.647 119.239 163.843 118.891C163.843 118.891 161.322 119.056 159.186 115.652C157.197 112.413 159.938 106.274 159.938 106.274C159.938 106.274 158.682 103.411 159.59 102.441C159.59 102.441 160.13 101.947 161.707 101.837L163.641 97.8483C163.641 97.8483 161.441 98.0038 160.13 96.3845C158.911 94.8475 158.81 94.143 159.745 93.7221C160.745 93.2281 169.921 91.563 176.228 91.7734C176.228 91.7734 178.419 91.563 180.325 95.3598C180.307 95.3507 181.224 96.8877 179.665 97.2536ZM155.923 112.606C155.116 114.509 152.98 116.53 150.322 115.268C147.7 114.005 143.529 105.479 143.529 105.479C143.529 105.479 141.943 102.304 141.64 102.386C141.64 102.386 141.301 101.764 141.09 105.241C140.87 108.699 141.136 115.442 139.752 116.503C138.441 117.564 136.855 117.143 136.03 115.899C135.278 114.673 134.976 111.764 135.379 106.65C135.856 101.526 137.048 96.0734 138.579 94.3809C140.1 92.6975 141.32 93.9234 141.796 94.3626C141.796 94.3626 143.831 96.2015 147.186 101.609L147.782 102.606C147.782 102.606 150.835 107.711 151.147 107.702C151.147 107.702 151.394 107.94 151.614 107.766C151.935 107.674 151.807 106.037 151.807 106.037C151.807 106.037 151.174 100.474 148.387 91.0506C148.387 91.0506 147.966 89.8796 148.25 88.7726C148.534 87.6564 149.652 88.1779 149.652 88.1779C149.652 88.1779 153.961 90.3462 156.06 97.3451C158.141 104.372 156.748 110.693 155.923 112.606ZM202.336 108.415C200.374 111.837 194.828 118.992 187.467 117.299C185.037 123.182 182.993 129.138 181.82 138.049C181.82 138.049 181.563 139.778 180.124 139.183C178.694 138.68 176.338 136.31 175.861 133.035C175.348 128.726 177.273 121.443 181.196 113.09C180.05 111.233 179.271 108.58 179.94 104.792C179.94 104.792 180.93 97.7751 187.989 91.4441C187.989 91.4441 188.833 90.7121 189.328 90.9409C189.868 91.1696 189.621 93.4477 189.19 94.5638C188.741 95.6709 185.597 101.105 185.597 101.105C185.597 101.105 183.635 104.774 184.185 107.674C187.888 101.984 196.313 90.52 201.538 94.1338C203.289 95.3872 204.105 98.1136 204.105 101.05C204.105 103.612 203.491 106.357 202.336 108.415ZM200.814 99.4036C200.814 99.4036 200.521 97.1438 198.311 99.6324C196.405 101.737 192.967 105.671 190.208 111.023C193.114 110.693 195.91 109.129 196.753 108.324C198.119 107.107 201.327 103.804 200.814 99.4036ZM242.9 98.8913H229.406C229.14 94.3168 228.581 89.8521 227.71 85.2594C227.618 84.7836 227.206 84.436 226.72 84.436H223.612C223.337 84.436 223.081 84.5549 222.907 84.7653C222.732 84.9849 222.659 85.2502 222.714 85.5247C223.594 89.9711 224.162 94.3443 224.437 98.8913H211.457C210.852 98.8913 210.357 99.3762 210.357 99.98V102.78C210.357 103.383 210.852 103.877 211.457 103.877H224.63C224.639 104.573 224.648 105.186 224.648 105.771C224.648 109.806 224.474 113.136 224.062 116.887C224.025 117.18 224.126 117.464 224.318 117.683C224.511 117.894 224.786 118.022 225.07 118.022H227.958C228.517 118.022 228.984 117.601 229.048 117.043C229.443 113.264 229.608 109.897 229.608 105.78C229.608 105.204 229.599 104.582 229.589 103.887H242.9C243.505 103.887 244 103.393 244 102.789V99.9892C244 99.3853 243.505 98.8913 242.9 98.8913ZM62.4276 61.3623C62.2351 61.646 62.1893 61.9936 62.2993 62.3138C62.4185 62.6432 62.666 62.8902 62.9868 63L65.4069 63.8143C65.5536 63.86 65.7003 63.8875 65.8378 63.8875C66.287 63.8875 66.7087 63.6679 66.9562 63.2928C74.8857 51.6736 85.6112 41.994 97.9776 35.3153C110.747 28.417 125.213 24.7666 139.825 24.7666C157.472 24.7666 174.486 29.9632 189.053 39.7892C203.262 49.3772 214.299 62.7438 220.963 78.4526C221.165 78.9192 221.623 79.2302 222.137 79.2302H225.024C225.354 79.2302 225.666 79.0655 225.858 78.7819C226.051 78.5075 226.088 78.1506 225.959 77.8396C219.084 60.9415 207.451 46.5411 192.325 36.1936C176.842 25.5991 158.682 20 139.825 20C108.639 20 79.7076 35.4617 62.4276 61.3623Z" fill="white"/>
</g>
<g filter="url(#filter1_d_1394_9998)">
<path fill-rule="evenodd" clip-rule="evenodd" d="M343.617 94.1401C343.236 93.2065 342.815 92.1815 342.323 91.0247C341.425 93.0695 340.533 95.0636 339.665 96.8446C338.834 98.5545 338.027 100.056 337.261 101.208C337.606 101.193 338.007 101.142 338.412 101.036C338.935 100.899 339.467 100.67 339.888 100.315C340.036 100.178 340.269 100.163 340.431 100.295C340.649 100.467 340.903 100.812 341.187 101.198C341.425 101.523 341.684 101.878 341.927 102.142C342.445 101.695 343.124 101.071 343.256 100.584C343.266 100.513 343.297 100.447 343.348 100.391C343.495 100.214 343.758 100.188 343.941 100.341C344.413 100.736 345.042 101.01 345.701 101.147C346.152 101.244 346.614 101.274 347.04 101.239C345.767 99.407 344.905 97.2962 343.611 94.1403L343.617 94.1401ZM335.527 108.834C334.974 108.702 334.34 108.413 333.594 108.027C334.568 107.286 335.425 106.424 336.216 105.454C337.114 104.363 337.92 103.141 338.707 101.821C339.194 101.684 339.691 101.481 340.127 101.182C340.239 101.319 340.37 101.502 340.512 101.695C340.857 102.161 341.248 102.694 341.633 103.019C341.785 103.161 342.024 103.166 342.191 103.029L342.293 102.943C342.764 102.537 343.464 101.938 343.845 101.309C344.301 101.598 344.834 101.811 345.382 101.943C346.239 103.217 347.197 104.506 348.176 105.703C349.079 106.809 349.992 107.834 350.849 108.692C348.825 110.036 347.248 108.778 346.178 107.925L345.965 107.758C345.787 107.621 345.539 107.646 345.392 107.809C345.28 107.93 345.219 108.108 345.143 108.346C345.001 108.763 344.778 109.427 344.179 109.935C343.621 109.554 343.15 108.661 342.876 108.139C342.688 107.778 342.556 107.535 342.313 107.489C342.176 107.464 342.044 107.509 341.948 107.596C341.821 107.707 341.725 107.89 341.588 108.133C341.364 108.534 341.025 109.153 340.462 109.717C339.838 109.219 339.32 108.286 339.072 107.824C338.945 107.591 338.859 107.438 338.722 107.367C338.529 107.271 338.301 107.332 338.184 107.509C337.489 108.55 336.845 108.945 336.1 108.925C335.932 108.92 335.76 108.895 335.577 108.854C335.562 108.849 335.547 108.844 335.531 108.844L335.527 108.834ZM348.247 110.062C347.319 109.838 346.528 109.27 345.884 108.763C345.686 109.326 345.346 110.163 344.453 110.777C344.332 110.863 344.179 110.873 344.053 110.818C343.211 110.457 342.597 109.407 342.227 108.707C341.943 109.209 341.512 109.925 340.776 110.559C340.639 110.676 340.446 110.691 340.299 110.61C339.488 110.153 338.854 109.143 338.489 108.494C337.738 109.412 336.972 109.778 336.074 109.752H336.064C335.932 109.747 335.795 109.737 335.658 109.712C334.964 110.802 334.254 111.888 333.493 112.939C332.813 113.877 332.098 114.791 331.322 115.658L331.342 115.663C333.026 116.12 333.69 116.303 335.658 114.852L335.679 114.836C336.069 114.547 336.551 115.115 337.099 115.765C337.403 116.125 337.743 116.526 337.997 116.77C338.037 116.805 337.733 117.176 337.87 117.028C338.509 116.354 338.803 115.8 339.001 115.425C339.27 114.912 339.422 114.623 339.919 114.633C340.031 114.633 340.142 114.674 340.223 114.76C340.228 114.765 341.06 115.643 341.851 116.876C342.024 116.759 342.196 116.658 342.359 116.556C342.952 116.186 343.449 115.877 343.758 115.329C343.774 115.298 343.794 115.273 343.819 115.247C343.977 115.08 344.245 115.07 344.413 115.227C344.91 115.694 345.747 116.617 346.127 117.043C346.355 116.861 346.695 116.424 346.974 116.069C347.385 115.547 347.71 115.131 348.105 115.389C349.135 116.064 350.164 116.46 351.072 116.612C351.767 116.729 352.386 116.704 352.863 116.541C352.508 116.12 352.178 115.755 351.864 115.405C350.636 114.035 349.617 112.898 348.252 110.057L348.247 110.062ZM277.253 123.721C277.902 123.757 278.638 123.696 279.505 123.468C281.27 123.001 282.858 122.651 284.207 122.468V115.567C283.066 114.461 281.925 113.934 280.778 113.944C279.632 113.954 278.455 114.512 277.253 115.578L277.253 123.721ZM342.921 123.61C342.784 123.665 342.642 123.721 342.505 123.777C341.648 124.127 340.801 124.467 340.121 124.635C340.319 123.244 340.466 121.839 340.578 120.428C340.674 119.231 340.74 118.018 340.796 116.805C340.984 117.074 341.181 117.369 341.364 117.683C341.374 117.698 341.379 117.714 341.389 117.724C341.526 117.912 341.79 117.952 341.978 117.815C342.267 117.607 342.546 117.435 342.804 117.272L342.896 117.216C342.728 119.479 342.82 121.468 342.926 123.61L342.921 123.61ZM287.929 73.864C287.696 73.6306 287.371 73.4835 287.011 73.4835C286.651 73.4835 286.326 73.6306 286.093 73.864C285.86 74.0975 285.712 74.4222 285.712 74.7824C285.712 75.1427 285.86 75.4674 286.093 75.7008C286.326 75.9342 286.651 76.0814 287.011 76.0814C287.371 76.0814 287.696 75.9342 287.929 75.7008C288.162 75.4674 288.309 75.1427 288.309 74.7824C288.309 74.4222 288.162 74.0975 287.929 73.864ZM287.011 72.6412C287.604 72.6412 288.137 72.8797 288.522 73.2704C288.908 73.656 289.151 74.1939 289.151 74.7825C289.151 75.3761 288.913 75.9089 288.522 76.2946C288.137 76.6802 287.599 76.9238 287.011 76.9238C286.417 76.9238 285.885 76.6853 285.499 76.2946C285.114 75.909 284.87 75.3711 284.87 74.7825C284.87 74.1888 285.109 73.6561 285.499 73.2704C285.885 72.8848 286.423 72.6412 287.011 72.6412ZM270.557 123.452L270.572 108.874L281.041 92.0591L292.524 107.819L292.534 124.553C291.251 124.655 289.953 124.335 288.609 123.082C287.929 122.448 286.722 122.255 285.114 122.382L285.053 122.387V115.405C285.053 115.299 285.012 115.192 284.931 115.111C283.582 113.756 282.197 113.107 280.782 113.122C279.388 113.137 277.988 113.797 276.593 115.07C276.491 115.146 276.425 115.268 276.425 115.405V123.625C275.771 123.498 275.218 123.28 274.706 123.082C273.291 122.534 272.185 122.103 270.567 123.463L270.557 123.452ZM327.46 80.0647C327.476 77.137 327.47 74.2854 327.465 71.4237C327.46 68.1306 327.455 64.8225 327.476 61.362C326.923 61.7679 326.365 62.4783 325.842 63.3003C324.488 65.4313 323.453 68.2373 323.311 68.6533C322.906 69.8305 322.343 70.8656 321.724 71.8144C321.105 72.7531 320.435 73.5903 319.796 74.3769C319.137 75.1887 318.457 75.7469 317.879 76.2188C316.844 77.0661 316.185 77.5989 316.936 79.1262C317.625 79.182 318.087 79.3342 318.594 79.5017C319.33 79.7452 320.156 80.0192 321.982 79.9938C325.061 79.9532 325.097 79.9685 325.208 80.0192C325.213 80.0192 325.193 80.0141 325.629 80.0243C326.294 80.0446 326.902 80.0598 327.465 80.0649L327.46 80.0647ZM327.881 104.933V104.877C327.126 103.456 324.696 98.6158 322.525 94.2218C320.552 90.2336 318.797 86.6057 318.686 86.22C318.66 86.1287 318.63 86.0374 318.599 85.9562C317.94 84.0991 316.15 83.3075 314.293 83.0386C312.371 82.7646 310.388 83.0437 309.449 83.3126C309.358 83.338 309.282 83.3634 309.221 83.3836C306.868 84.2209 305.326 84.023 303.698 83.8149C302.775 83.6982 301.821 83.5714 300.67 83.6576C297.454 83.886 296.485 83.8099 295.05 83.6982C294.294 83.6374 293.412 83.5663 292.042 83.5308C288.689 83.4344 287.67 83.6018 286.625 83.7693C285.783 83.9063 284.931 84.0433 282.927 84.0534C282.841 84.0534 282.75 84.0534 282.664 84.0585C284.272 84.6268 284.576 85.7684 284.84 86.7528C284.997 87.3312 285.129 87.8386 285.626 87.9705C285.702 87.9908 285.763 88.0263 285.814 88.0821C287.837 90.0154 288.492 91.7456 289.034 93.1613C289.435 94.2116 289.765 95.0742 290.566 95.6476C291.961 96.637 293.143 97.7938 293.929 99.0674C294.659 100.24 295.055 101.513 294.989 102.842C294.958 103.467 295.126 103.923 295.43 104.299C295.76 104.7 296.252 105.029 296.82 105.359C296.926 105.42 296.997 105.527 297.023 105.638C297.53 105.212 297.875 104.948 298.671 105.324C302.394 107.084 303.018 106.465 303.535 105.958C304.053 105.445 304.504 105.004 306.005 105.648C308.567 106.744 309.769 106.567 310.748 106.425C311.088 106.374 311.397 106.328 311.737 106.328C312.68 106.328 313.35 106.059 313.938 105.826C314.958 105.42 315.749 105.105 317.062 106.019C317.392 106.247 318.341 106.369 319.563 106.399C320.907 106.43 322.545 106.328 324.047 106.11C325.137 105.953 326.146 105.73 326.902 105.456C327.349 105.293 327.693 105.121 327.886 104.943L327.881 104.933ZM341.19 78.8631C341.196 78.8631 341.206 78.8631 341.216 78.8682C342.027 79.0204 342.54 78.9849 342.844 78.8479C342.991 78.782 343.077 78.6957 343.123 78.5993C343.169 78.4877 343.174 78.3557 343.153 78.2238C343.113 77.9701 342.986 77.7367 342.864 77.6251C339.567 74.6162 338.132 72.5816 336.697 70.5418C335.566 68.9384 334.439 67.3299 332.375 65.2446C332.025 64.8894 331.65 64.3871 331.244 63.8493C330.367 62.6772 329.327 61.2971 328.312 61.0992C328.287 64.6561 328.292 68.0506 328.297 71.4298C328.302 74.2965 328.307 77.1481 328.292 80.0758C331.609 80.086 333.085 79.8627 334.987 79.5684C336.443 79.3451 338.147 79.0864 341.104 78.8631H341.185L341.19 78.8631ZM340.739 79.7308L341.19 91.5126C340.414 93.2683 339.649 94.9629 338.913 96.4851C337.944 98.4792 337.016 100.179 336.159 101.326C336.113 101.382 336.083 101.448 336.068 101.524C336.032 101.752 336.184 101.97 336.413 102.006C336.702 102.051 337.128 102.072 337.605 102.026C336.96 103.076 336.291 104.05 335.566 104.928C334.678 106.009 333.699 106.958 332.568 107.734C332.512 107.77 332.461 107.821 332.431 107.886C332.319 108.089 332.395 108.343 332.603 108.455C333.43 108.901 334.145 109.267 334.8 109.495C334.155 110.5 333.501 111.494 332.811 112.453C332.015 113.554 331.173 114.61 330.25 115.589C330.194 115.64 330.154 115.706 330.138 115.787C330.083 116.01 330.214 116.238 330.443 116.294C330.554 116.325 330.854 116.406 331.122 116.477C333.08 117.01 333.856 117.218 336.154 115.528L336.179 115.513C336.418 115.335 336.184 115.98 336.463 116.309C336.783 116.69 337.133 117.101 337.422 117.38C337.823 117.76 338.193 117.913 338.482 117.608C339.202 116.847 339.527 116.233 339.745 115.817C339.791 115.726 339.826 115.655 339.851 115.599C339.897 115.65 339.943 115.706 339.999 115.771C339.943 117.284 339.862 118.816 339.74 120.363C339.623 121.82 339.471 123.276 339.263 124.712C338.213 124.651 337.219 124.078 336.539 123.687C335.936 123.337 335.515 123.093 335.175 123.352C333.983 124.255 332.887 124.56 331.878 124.367C330.874 124.174 329.915 123.494 328.992 122.429C329.017 122.378 329.027 122.317 329.027 122.256L328.733 105.223C328.743 105.203 328.759 105.183 328.769 105.162C328.84 105.035 328.85 104.878 328.774 104.741C328.759 104.716 328.743 104.685 328.723 104.655L328.312 80.9088C331.695 80.919 333.192 80.6907 335.129 80.3964C336.504 80.1883 338.096 79.9448 340.749 79.7317L340.739 79.7308ZM319.107 85.0179L318.995 80.502C319.67 80.6897 320.537 80.847 321.988 80.8267C324.879 80.7912 324.838 80.7709 324.859 80.7811C324.914 80.8064 324.995 80.8419 325.604 80.8622C326.279 80.8825 326.897 80.8978 327.466 80.9028L327.851 102.99C326.761 100.849 324.945 97.2159 323.281 93.8517C321.328 89.8991 319.594 86.327 319.497 85.9921C319.467 85.8855 319.436 85.7841 319.396 85.6775C319.315 85.4441 319.218 85.2259 319.107 85.0179ZM303.155 111.987C304.033 111.19 304.915 110.769 305.808 110.754H305.833C306.751 110.743 307.644 111.159 308.511 112.027C308.593 112.108 308.633 112.215 308.633 112.321V118.157C308.633 118.39 308.446 118.578 308.212 118.578H303.404C303.171 118.578 302.983 118.39 302.983 118.157V112.326C302.983 112.189 303.049 112.068 303.15 111.992L303.155 111.987ZM314.593 111.799C315.47 111.002 316.353 110.581 317.246 110.566H317.271C318.189 110.556 319.082 110.972 319.949 111.839C320.03 111.921 320.071 112.027 320.071 112.134V117.969C320.071 118.202 319.883 118.39 319.65 118.39H314.841C314.608 118.39 314.42 118.202 314.42 117.969V112.139C314.42 112.002 314.486 111.88 314.588 111.804L314.593 111.799ZM298.631 77.3508C298.398 77.1174 298.073 76.9703 297.713 76.9703C297.353 76.9703 297.028 77.1174 296.795 77.3508C296.562 77.5842 296.414 77.909 296.414 78.2692C296.414 78.6295 296.562 78.9542 296.795 79.1876C297.028 79.421 297.353 79.5682 297.713 79.5682C298.073 79.5682 298.398 79.421 298.631 79.1876C298.864 78.9542 299.011 78.6295 299.011 78.2692C299.011 77.909 298.864 77.5842 298.631 77.3508ZM297.713 76.128C298.306 76.128 298.839 76.3665 299.224 76.7572C299.61 77.1428 299.853 77.6807 299.853 78.2693C299.853 78.8629 299.615 79.3957 299.224 79.7814C298.839 80.167 298.301 80.4106 297.713 80.4106C297.12 80.4106 296.587 80.1721 296.201 79.7814C295.816 79.3958 295.572 78.8579 295.572 78.2693C295.572 77.6756 295.811 77.1429 296.201 76.7572C296.587 76.3716 297.125 76.128 297.713 76.128ZM307.538 72.9973C307.375 72.8349 307.152 72.7334 306.904 72.7334C306.665 72.7334 306.447 72.8248 306.29 72.977L306.275 72.9973C306.112 73.1597 306.011 73.3829 306.011 73.6315C306.011 73.8802 306.112 74.1034 306.275 74.2658C306.437 74.4282 306.66 74.5246 306.909 74.5246C307.157 74.5246 307.38 74.4231 307.543 74.2607C307.705 74.0983 307.806 73.8751 307.806 73.6265C307.806 73.3778 307.705 73.1546 307.543 72.9922L307.538 72.9973ZM306.904 71.8962C307.38 71.8962 307.817 72.089 308.131 72.4036C308.445 72.7182 308.638 73.1495 308.638 73.6315C308.638 74.1085 308.445 74.5448 308.131 74.8594C307.817 75.174 307.385 75.3668 306.904 75.3668C306.427 75.3668 305.991 75.174 305.676 74.8594C305.362 74.5448 305.169 74.1136 305.169 73.6315C305.169 73.1546 305.362 72.7182 305.676 72.4036L305.701 72.3783C306.016 72.0789 306.437 71.8962 306.904 71.8962ZM269.051 73.9512C268.818 73.7178 268.493 73.5706 268.133 73.5706C267.773 73.5706 267.448 73.7178 267.215 73.9512C266.982 74.1846 266.835 74.5093 266.835 74.8695C266.835 75.2298 266.982 75.5545 267.215 75.7879C267.448 76.0213 267.773 76.1685 268.133 76.1685C268.493 76.1685 268.818 76.0213 269.051 75.7879C269.284 75.5545 269.431 75.2298 269.431 74.8695C269.431 74.5093 269.284 74.1846 269.051 73.9512ZM268.133 72.7283C268.726 72.7283 269.259 72.9668 269.645 73.3575C270.03 73.7431 270.273 74.281 270.273 74.8696C270.273 75.4633 270.035 75.996 269.645 76.3817C269.259 76.7673 268.721 77.0109 268.133 77.0109C267.54 77.0109 267.007 76.7724 266.621 76.3817C266.236 75.9961 265.993 75.4582 265.993 74.8696C265.993 74.2759 266.231 73.7432 266.621 73.3575C267.007 72.9719 267.545 72.7283 268.133 72.7283ZM279.545 76.9752C279.464 76.894 279.358 76.8484 279.231 76.8484C279.109 76.8484 278.997 76.8991 278.921 76.9752C278.84 77.0564 278.795 77.163 278.795 77.2847C278.795 77.4065 278.845 77.5181 278.921 77.5993C279.003 77.6805 279.109 77.7262 279.236 77.7262C279.358 77.7262 279.469 77.6754 279.55 77.5993C279.631 77.5181 279.677 77.4116 279.677 77.2847C279.677 77.163 279.626 77.0513 279.55 76.9701L279.545 76.9752ZM279.231 76.0061C279.581 76.0061 279.9 76.1482 280.134 76.3816C280.367 76.615 280.509 76.9346 280.509 77.2847C280.509 77.6348 280.367 77.9596 280.134 78.1879C279.9 78.4213 279.581 78.5634 279.231 78.5634C278.881 78.5634 278.556 78.4213 278.328 78.1879C278.095 77.9545 277.953 77.6348 277.953 77.2847C277.953 76.9346 278.095 76.615 278.328 76.3816C278.561 76.1482 278.881 76.0061 279.231 76.0061ZM318.123 65.2999C318.357 65.5333 318.504 65.8581 318.504 66.2183C318.504 66.5786 318.357 66.9033 318.123 67.1367C317.89 67.3701 317.565 67.5173 317.205 67.5173C316.845 67.5173 316.521 67.3701 316.287 67.1367C316.054 66.9033 315.907 66.5786 315.907 66.2183C315.907 65.8581 316.054 65.5333 316.287 65.2999C316.521 65.0665 316.845 64.9194 317.205 64.9194C317.565 64.9194 317.89 65.0665 318.123 65.2999ZM317.205 64.0771C317.799 64.0771 318.331 64.3156 318.717 64.7063C319.102 65.0919 319.346 65.6298 319.346 66.2184C319.346 66.812 319.107 67.3448 318.717 67.7305C318.331 68.1161 317.794 68.3597 317.205 68.3597C316.612 68.3597 316.079 68.1212 315.694 67.7305C315.308 67.3448 315.065 66.807 315.065 66.2184C315.065 65.6247 315.303 65.092 315.694 64.7063C316.079 64.3207 316.617 64.0771 317.205 64.0771ZM343.682 64.0517C343.915 64.2851 344.062 64.6099 344.062 64.9701C344.062 65.3304 343.915 65.6551 343.682 65.8885C343.449 66.1219 343.124 66.2691 342.764 66.2691C342.404 66.2691 342.079 66.1219 341.846 65.8885C341.613 65.6551 341.466 65.3304 341.466 64.9701C341.466 64.6099 341.613 64.2851 341.846 64.0517C342.079 63.8183 342.404 63.6712 342.764 63.6712C343.124 63.6712 343.449 63.8183 343.682 64.0517ZM342.764 62.8289C343.357 62.8289 343.89 63.0674 344.276 63.4581C344.661 63.8437 344.904 64.3815 344.904 64.9702C344.904 65.5638 344.666 66.0966 344.276 66.4823C343.89 66.8679 343.352 67.1115 342.764 67.1115C342.171 67.1115 341.638 66.873 341.252 66.4823C340.867 66.0966 340.624 65.5588 340.624 64.9702C340.624 64.3765 340.862 63.8437 341.252 63.4581C341.638 63.0724 342.176 62.8289 342.764 62.8289ZM321.552 56.8771C321.319 56.6437 320.995 56.4966 320.634 56.4966C320.274 56.4966 319.95 56.6437 319.716 56.8771C319.483 57.1105 319.336 57.4353 319.336 57.7955C319.336 58.1558 319.483 58.4805 319.716 58.7139C319.95 58.9473 320.274 59.0945 320.634 59.0945C320.995 59.0945 321.319 58.9473 321.552 58.7139C321.786 58.4805 321.933 58.1558 321.933 57.7955C321.933 57.4353 321.786 57.1105 321.552 56.8771ZM320.634 55.6543C321.228 55.6543 321.76 55.8928 322.146 56.2835C322.531 56.6691 322.775 57.2069 322.775 57.7956C322.775 58.3892 322.537 58.922 322.146 59.3077C321.76 59.6933 321.223 59.9369 320.634 59.9369C320.041 59.9369 319.508 59.6984 319.123 59.3077C318.737 58.922 318.494 58.3842 318.494 57.7956C318.494 57.2019 318.732 56.6691 319.123 56.2835C319.508 55.8978 320.046 55.6543 320.634 55.6543ZM336.282 59.1909C336.135 59.0438 335.927 58.9474 335.699 58.9474C335.471 58.9474 335.263 59.0387 335.116 59.1909C334.968 59.3381 334.872 59.5461 334.872 59.7744C334.872 60.0028 334.963 60.2108 335.116 60.358C335.263 60.5051 335.471 60.5964 335.699 60.5964C335.927 60.5964 336.135 60.5051 336.282 60.3529C336.429 60.2057 336.526 59.9977 336.526 59.7694C336.526 59.5512 336.439 59.3482 336.302 59.2011L336.282 59.1859L336.282 59.1909ZM335.699 58.1102C336.16 58.1102 336.576 58.2979 336.876 58.5973L336.901 58.6226C337.19 58.922 337.362 59.3279 337.362 59.7744C337.362 60.2362 337.175 60.6522 336.876 60.9516C336.576 61.251 336.155 61.4387 335.699 61.4387C335.242 61.4387 334.821 61.251 334.522 60.9516C334.218 60.6522 334.035 60.2311 334.035 59.7744C334.035 59.3127 334.223 58.8966 334.522 58.5973C334.821 58.2979 335.242 58.1102 335.699 58.1102ZM278.982 119.942C279.008 119.968 279.023 120.003 279.023 120.039C279.023 120.074 279.008 120.11 278.982 120.135L278.972 120.145C278.947 120.166 278.916 120.176 278.886 120.176C278.845 120.176 278.815 120.161 278.79 120.135C278.764 120.11 278.749 120.074 278.749 120.039C278.749 119.998 278.764 119.968 278.79 119.942C278.815 119.917 278.85 119.902 278.886 119.902C278.927 119.902 278.957 119.917 278.982 119.942ZM278.886 119.065C279.155 119.065 279.398 119.176 279.576 119.354C279.753 119.531 279.865 119.775 279.865 120.044C279.865 120.313 279.753 120.556 279.581 120.734C279.571 120.744 279.561 120.754 279.55 120.759C279.378 120.922 279.145 121.018 278.891 121.018C278.622 121.018 278.379 120.907 278.201 120.729C278.024 120.551 277.912 120.308 277.912 120.039C277.912 119.77 278.024 119.526 278.201 119.349C278.379 119.171 278.622 119.06 278.891 119.06L278.886 119.065ZM324.779 120.338C324.515 120.298 324.246 120.272 323.982 120.252C322.344 120.156 320.66 120.526 319.438 121.561C319.189 121.774 318.956 122.013 318.748 122.287C317.784 123.54 316.81 124.083 315.836 124.118C314.847 124.154 313.823 123.677 312.783 122.88C310.845 121.394 309.004 122.49 307.259 123.525C305.926 124.316 304.663 125.072 303.643 124.291C300.681 122.018 298.12 122.896 295.629 123.753C294.868 124.012 294.118 124.271 293.367 124.423L293.357 107.673C293.357 107.597 293.337 107.516 293.291 107.445C293.352 107.48 293.418 107.5 293.494 107.5C296.015 107.571 296.928 106.8 297.536 106.288C297.815 106.054 297.993 105.902 298.317 106.059C302.568 108.069 303.42 107.232 304.125 106.531C304.429 106.232 304.693 105.973 305.677 106.394C308.456 107.587 309.785 107.389 310.866 107.226C311.17 107.181 311.449 107.14 311.733 107.14C312.829 107.14 313.584 106.841 314.239 106.577C315.02 106.267 315.628 106.024 316.577 106.684C317.049 107.008 318.165 107.181 319.534 107.211C320.929 107.242 322.618 107.14 324.149 106.912C324.312 106.886 324.479 106.861 324.636 106.836L324.763 120.323L324.779 120.338ZM325.489 106.694C326.123 106.562 326.701 106.405 327.188 106.227C327.452 106.131 327.695 106.024 327.903 105.913L328.177 121.657C327.487 121.15 326.594 120.749 325.62 120.5L325.489 106.689L325.489 106.694ZM270.65 97.9009C270.822 97.4899 271.005 97.1703 271.198 96.9064C269.894 94.8058 268.885 92.3399 267.459 88.8642C266.957 87.6312 266.399 86.2713 265.745 84.7238C264.584 87.3674 263.432 89.95 262.316 92.2486C261.236 94.476 260.186 96.4244 259.192 97.8806C259.674 97.8756 260.267 97.8147 260.866 97.6574C261.54 97.4798 262.22 97.1906 262.763 96.7288C262.91 96.5919 263.143 96.5817 263.305 96.7086C263.564 96.9166 263.879 97.3428 264.234 97.8248C264.553 98.2612 264.913 98.7483 265.243 99.0933C265.913 98.52 266.846 97.6828 267.023 97.0129C267.033 96.9419 267.064 96.8759 267.115 96.8201C267.262 96.6425 267.525 96.6172 267.708 96.7694C268.109 97.1094 268.606 97.3783 269.133 97.5711L269.154 97.5762C269.635 97.7487 270.148 97.8654 270.65 97.911L270.65 97.9009ZM266.435 106.075V106.111C266.455 106.405 266.516 106.694 266.622 106.968C266.785 107.394 267.059 107.77 267.459 108.039C268.007 108.404 268.804 108.567 269.894 108.379L280.657 91.0912C280.779 90.8933 281.037 90.8324 281.235 90.9542C281.291 90.9897 281.337 91.0353 281.372 91.0912L293.099 107.186C293.094 107.156 293.089 107.12 293.089 107.09C293.094 106.857 293.286 106.674 293.515 106.679C295.046 106.72 295.883 106.42 296.426 106.085L296.411 106.08C295.762 105.705 295.194 105.324 294.788 104.822C294.357 104.289 294.113 103.65 294.159 102.792C294.22 101.64 293.865 100.534 293.226 99.4992C292.495 98.3271 291.394 97.2514 290.086 96.3178C289.071 95.5973 288.706 94.6282 288.255 93.4511C287.753 92.1319 287.139 90.5183 285.308 88.7424C284.436 88.4633 284.248 87.758 284.035 86.9614C283.736 85.8451 283.365 84.47 279.84 84.531C279.47 84.668 279.115 84.8405 278.79 85.0485C277.685 85.7589 276.873 86.936 276.559 88.788C276.346 90.0159 275.747 90.5639 275.164 91.0966C274.636 91.5736 274.129 92.0353 274.124 93.1617C274.104 95.379 273.465 95.9169 272.709 96.5613C272.131 97.0535 271.466 97.6116 271.04 99.4586C270.573 101.498 270.005 101.864 268.692 102.706C268.321 102.944 267.885 103.223 267.378 103.594C266.856 103.974 266.516 104.73 266.44 105.542C266.425 105.72 266.42 105.898 266.435 106.075ZM257.204 107.44C256.458 107.263 255.606 106.867 254.597 106.339C255.865 105.39 256.98 104.279 258.005 103.031C259.136 101.656 260.15 100.118 261.14 98.449C261.784 98.2765 262.443 98.0025 263.011 97.5915C263.163 97.7742 263.356 98.0329 263.559 98.312C263.985 98.8955 264.472 99.5551 264.949 99.956C265.101 100.098 265.339 100.103 265.507 99.9661L265.633 99.8545C266.247 99.3319 267.165 98.5454 267.617 97.7336C267.992 97.9771 268.408 98.1852 268.844 98.3424L268.864 98.3526C269.346 98.5251 269.853 98.6469 270.361 98.7128C270.31 98.8854 270.264 99.0731 270.218 99.271C269.828 100.976 269.346 101.285 268.235 102.001C267.855 102.244 267.414 102.529 266.876 102.919C266.156 103.442 265.694 104.431 265.603 105.471C265.588 105.634 265.583 105.796 265.588 105.964C265.486 106.08 265.37 106.243 265.228 106.441C264.832 106.983 264.218 107.826 263.412 108.577C262.575 107.958 261.89 106.714 261.566 106.111C261.413 105.832 261.317 105.654 261.175 105.578C260.982 105.482 260.754 105.542 260.637 105.715C259.745 107.049 258.903 107.567 257.929 107.536C257.711 107.531 257.483 107.501 257.239 107.445C257.224 107.44 257.214 107.44 257.199 107.435L257.204 107.44ZM269.732 116.923C269.635 116.822 269.539 116.715 269.448 116.614C269.042 116.178 268.616 115.731 268.296 115.432C268.129 115.274 267.86 115.279 267.703 115.452C267.677 115.477 267.657 115.503 267.642 115.533C267.241 116.244 266.607 116.644 265.851 117.111C265.618 117.253 265.38 117.405 265.126 117.573C264.127 115.985 263.041 114.848 263.041 114.843C262.955 114.757 262.844 114.711 262.732 114.711C262.174 114.701 261.997 115.036 261.677 115.645C261.429 116.122 261.058 116.822 260.242 117.679C260.12 117.806 260.343 117.446 260.247 117.36C259.922 117.05 259.496 116.548 259.111 116.091C258.456 115.315 257.883 114.64 257.472 114.944L257.452 114.96C254.931 116.817 254.084 116.583 251.939 116L251.746 115.949C252.76 114.828 253.694 113.641 254.581 112.418C255.545 111.083 256.448 109.708 257.33 108.318C257.528 108.353 257.721 108.374 257.909 108.379C259.04 108.409 259.998 107.932 260.952 106.72C261.388 107.506 262.2 108.876 263.255 109.47C263.407 109.551 263.594 109.541 263.731 109.419C264.634 108.638 265.324 107.734 265.785 107.105C265.806 107.161 265.821 107.217 265.841 107.268C266.064 107.851 266.44 108.369 266.998 108.739C267.657 109.175 268.555 109.399 269.732 109.246L269.727 116.924L269.732 116.923ZM263.275 126.051C263.32 126.026 263.366 125.996 263.407 125.96C264.883 124.666 265.907 125.392 266.744 125.991C267.687 126.66 268.469 127.219 269.387 125.996C271.771 122.83 272.861 123.251 274.408 123.855C275.681 124.347 277.218 124.945 279.734 124.281C281.621 123.783 283.294 123.418 284.674 123.261C284.684 123.261 284.699 123.261 284.71 123.256C284.872 123.235 285.034 123.22 285.186 123.21C286.561 123.104 287.555 123.23 288.047 123.687C290.847 126.295 293.347 125.433 295.919 124.55C298.201 123.763 300.545 122.956 303.152 124.961C304.617 126.087 306.119 125.194 307.701 124.25C309.208 123.357 310.795 122.408 312.286 123.55C313.468 124.458 314.67 125.001 315.877 124.956C317.1 124.91 318.292 124.271 319.418 122.799C319.59 122.576 319.778 122.378 319.986 122.205C321.031 121.317 322.496 121.008 323.942 121.089C325.403 121.175 326.823 121.668 327.756 122.388C327.964 122.55 328.147 122.718 328.299 122.9C329.359 124.154 330.495 124.955 331.728 125.189C332.975 125.427 334.289 125.077 335.684 124.022C335.785 123.946 335.806 124.225 336.13 124.413C337.094 124.971 338.626 125.854 340.274 125.463C341.03 125.285 341.923 124.925 342.831 124.555C343.835 124.149 344.859 123.733 345.666 123.58C346.406 123.443 346.954 123.535 347.071 124.139C347.553 126.691 348.861 126.574 350.236 126.452C351.331 126.356 352.488 126.249 353 128.654L251 128.649C251.101 126.361 253.536 125.884 256.077 125.387L256.508 125.3C258.192 124.966 259.917 125.458 261.17 125.818C261.727 125.98 262.204 126.117 262.595 126.148C262.656 126.209 262.732 126.254 262.823 126.27C263.011 126.3 263.188 126.204 263.269 126.046L263.275 126.051ZM263.488 124.849C264.756 124.037 265.735 124.352 266.556 124.854C266.501 123.677 266.46 122.52 266.455 121.333C266.45 120.14 266.485 118.923 266.587 117.639C266.491 117.7 266.394 117.761 266.298 117.821C265.968 118.029 265.613 118.248 265.253 118.512C265.065 118.649 264.801 118.608 264.665 118.42C264.654 118.405 264.644 118.395 264.639 118.38C264.35 117.887 264.041 117.436 263.752 117.04C263.736 118.009 263.747 118.816 263.762 119.562C263.787 121.272 263.807 122.657 263.493 124.854L263.488 124.849ZM273.52 82.8775C273.373 82.7304 273.165 82.639 272.937 82.639C272.709 82.639 272.501 82.7304 272.354 82.8826C272.207 83.0297 272.11 83.2378 272.11 83.4661C272.11 83.6843 272.197 83.8873 272.334 84.0344L272.354 84.0496C272.501 84.1968 272.709 84.2932 272.937 84.2932C273.165 84.2932 273.373 84.2018 273.52 84.0496C273.668 83.9025 273.764 83.6944 273.764 83.4661C273.764 83.2378 273.673 83.0297 273.52 82.8826L273.52 82.8775ZM272.937 81.7968C273.394 81.7968 273.815 81.9845 274.114 82.2839C274.418 82.5832 274.601 83.0044 274.601 83.461C274.601 83.9228 274.413 84.3388 274.114 84.6382C273.815 84.9376 273.394 85.1253 272.937 85.1253C272.476 85.1253 272.06 84.9376 271.76 84.6382L271.735 84.6128C271.446 84.3135 271.273 83.9075 271.273 83.461C271.273 82.9993 271.461 82.5832 271.76 82.2839C272.06 81.9845 272.481 81.7968 272.937 81.7968ZM294.915 69.6953C294.803 69.5837 294.651 69.5126 294.479 69.5126C294.306 69.5126 294.154 69.5837 294.042 69.6953C293.931 69.8069 293.86 69.9591 293.86 70.1317C293.86 70.3042 293.931 70.4564 294.042 70.568C294.154 70.6796 294.306 70.7507 294.479 70.7507C294.651 70.7507 294.803 70.6797 294.915 70.568C295.026 70.4564 295.097 70.3042 295.097 70.1317C295.097 69.9591 295.026 69.8069 294.915 69.6953ZM294.479 68.6754C294.879 68.6754 295.244 68.8378 295.508 69.1016C295.772 69.3655 295.934 69.7308 295.934 70.1316C295.934 70.5325 295.772 70.8978 295.508 71.1617C295.244 71.4255 294.879 71.5879 294.479 71.5879C294.078 71.5879 293.713 71.4255 293.449 71.1617C293.185 70.8978 293.023 70.5325 293.023 70.1316C293.023 69.7308 293.185 69.3655 293.449 69.1016C293.713 68.8378 294.078 68.6754 294.479 68.6754ZM260.019 86.0436C260.1 86.1248 260.146 86.2313 260.146 86.3582C260.146 86.4799 260.095 86.5916 260.019 86.6728C259.938 86.7539 259.831 86.7996 259.704 86.7996C259.583 86.7996 259.471 86.7489 259.39 86.6728C259.309 86.5916 259.263 86.485 259.263 86.3582C259.263 86.2364 259.314 86.1248 259.39 86.0436C259.471 85.9624 259.578 85.9167 259.704 85.9167C259.826 85.9167 259.938 85.9675 260.019 86.0436ZM259.704 85.0744C260.054 85.0744 260.374 85.2165 260.607 85.4499C260.841 85.6833 260.983 86.003 260.983 86.3531C260.983 86.7032 260.841 87.0228 260.607 87.2563C260.374 87.4897 260.054 87.6317 259.704 87.6317C259.354 87.6317 259.03 87.4896 258.802 87.2563C258.568 87.0228 258.426 86.7032 258.426 86.3531C258.426 86.003 258.568 85.6782 258.802 85.4499C259.035 85.2165 259.354 85.0744 259.704 85.0744ZM254.572 98.4393C254.49 98.3581 254.384 98.3124 254.262 98.3124C254.14 98.3124 254.029 98.3632 253.948 98.4393C253.866 98.5205 253.821 98.627 253.821 98.7539C253.821 98.8756 253.872 98.9873 253.948 99.0685C254.029 99.1496 254.135 99.1953 254.262 99.1953C254.384 99.1953 254.495 99.1446 254.577 99.0685C254.658 98.9873 254.703 98.8807 254.703 98.7589C254.703 98.6372 254.653 98.5255 254.577 98.4494L254.572 98.4393ZM254.262 97.4701C253.912 97.4701 253.593 97.6122 253.359 97.8456C253.126 98.079 252.984 98.3987 252.984 98.7488C252.984 99.0989 253.126 99.4185 253.359 99.652C253.593 99.8854 253.912 100.027 254.262 100.027C254.617 100.027 254.937 99.8853 255.165 99.652C255.398 99.4185 255.54 99.0989 255.54 98.7488C255.54 98.3936 255.398 98.0739 255.165 97.8405C254.932 97.6071 254.612 97.4651 254.262 97.4651V97.4701ZM317.679 114.63H319.241V112.312C318.718 111.819 318.201 111.53 317.684 111.439L317.679 114.63ZM315.274 114.63H316.842L316.847 111.454C316.334 111.566 315.812 111.855 315.274 112.322L315.274 114.63ZM316.842 115.473H315.274V117.548H316.842L316.847 115.473H316.842ZM319.241 115.473H317.679L317.674 117.548H319.236V115.473H319.241ZM306.241 114.823H307.803V112.504C307.28 112.012 306.763 111.723 306.246 111.632L306.241 114.823ZM303.836 114.823H305.404L305.409 111.647C304.896 111.759 304.374 112.048 303.836 112.515L303.836 114.823ZM305.404 115.666H303.836V117.741H305.404L305.409 115.666H305.404ZM307.803 115.666H306.241L306.236 117.741H307.798V115.666H307.803ZM334.913 87.8448C334.928 87.8448 334.944 87.8397 334.964 87.8397H334.999C335.912 87.8347 336.8 88.2507 337.657 89.1133C337.738 89.1945 337.779 89.3011 337.779 89.4076V95.2427C337.779 95.4761 337.591 95.6639 337.358 95.6639H332.55C332.316 95.6639 332.129 95.4761 332.129 95.2427V89.4127C332.129 89.2757 332.195 89.1539 332.296 89.0778C333.163 88.2913 334.036 87.8753 334.908 87.8448L334.913 87.8448ZM335.385 91.9091H336.942V89.5902C336.42 89.098 335.902 88.8088 335.385 88.7175V91.9091ZM332.971 91.9091H334.543V88.7328C334.031 88.8444 333.508 89.1336 332.971 89.6004V91.9091ZM334.543 92.7514H332.971V94.8267H334.543V92.7514ZM336.937 92.7514H335.38V94.8267H336.937V92.7514Z" fill="white"/>
</g>
<defs>
<filter id="filter0_d_1394_9998" x="0" y="0" width="268" height="167.308" filterUnits="userSpaceOnUse" color-interpolation-filters="sRGB">
<feFlood flood-opacity="0" result="BackgroundImageFix"/>
<feColorMatrix in="SourceAlpha" type="matrix" values="0 0 0 0 0 0 0 0 0 0 0 0 0 0 0 0 0 0 127 0" result="hardAlpha"/>
<feOffset dy="4"/>
<feGaussianBlur stdDeviation="12"/>
<feComposite in2="hardAlpha" operator="out"/>
<feColorMatrix type="matrix" values="0 0 0 0 1 0 0 0 0 1 0 0 0 0 1 0 0 0 0.4 0"/>
<feBlend mode="normal" in2="BackgroundImageFix" result="effect1_dropShadow_1394_9998"/>
<feBlend mode="normal" in="SourceGraphic" in2="effect1_dropShadow_1394_9998" result="shape"/>
</filter>
<filter id="filter1_d_1394_9998" x="227" y="35.6543" width="150" height="121" filterUnits="userSpaceOnUse" color-interpolation-filters="sRGB">
<feFlood flood-opacity="0" result="BackgroundImageFix"/>
<feColorMatrix in="SourceAlpha" type="matrix" values="0 0 0 0 0 0 0 0 0 0 0 0 0 0 0 0 0 0 127 0" result="hardAlpha"/>
<feOffset dy="4"/>
<feGaussianBlur stdDeviation="12"/>
<feComposite in2="hardAlpha" operator="out"/>
<feColorMatrix type="matrix" values="0 0 0 0 1 0 0 0 0 1 0 0 0 0 1 0 0 0 0.4 0"/>
<feBlend mode="normal" in2="BackgroundImageFix" result="effect1_dropShadow_1394_9998"/>
<feBlend mode="normal" in="SourceGraphic" in2="effect1_dropShadow_1394_9998" result="shape"/>
</filter>
</defs>
</svg>
