<svg width="190" height="190" viewBox="0 0 190 190" fill="none" xmlns="http://www.w3.org/2000/svg">
<g filter="url(#filter0_di_862_6889)">
<rect x="6" y="4" width="178" height="178" rx="89" fill="#00D6E8" shape-rendering="crispEdges"/>
<path d="M46.2061 79.4932V92.042L60.4395 77.1982C61.123 76.4821 61.7008 75.9531 62.1729 75.6113C62.6611 75.2695 63.304 75.0986 64.1016 75.0986C65.1432 75.0986 65.9814 75.4079 66.6162 76.0264C67.2673 76.6286 67.5928 77.3691 67.5928 78.248C67.5928 79.306 67.0475 80.3558 65.957 81.3975L57.1436 89.7471L67.2998 104.298C68.016 105.307 68.5531 106.194 68.9111 106.959C69.2692 107.708 69.4482 108.44 69.4482 109.156C69.4482 109.954 69.1309 110.646 68.4961 111.231C67.8776 111.817 67.0312 112.11 65.957 112.11C64.9479 112.11 64.126 111.899 63.4912 111.476C62.8564 111.036 62.3193 110.458 61.8799 109.742C61.4404 109.026 61.0498 108.375 60.708 107.789L52.1387 94.6055L46.2061 100.294V107.691C46.2061 109.189 45.8643 110.304 45.1807 111.036C44.4971 111.752 43.6182 112.11 42.5439 112.11C41.9255 112.11 41.3314 111.948 40.7617 111.622C40.1921 111.297 39.7526 110.857 39.4434 110.304C39.2155 109.848 39.0771 109.319 39.0283 108.717C38.9795 108.115 38.9551 107.244 38.9551 106.104V79.4932C38.9551 78.0283 39.2725 76.9297 39.9072 76.1973C40.5583 75.4648 41.4372 75.0986 42.5439 75.0986C43.6344 75.0986 44.5133 75.4648 45.1807 76.1973C45.8643 76.9134 46.2061 78.012 46.2061 79.4932ZM74.9609 107.691V79.4932C74.9609 78.0283 75.2946 76.9297 75.9619 76.1973C76.6292 75.4648 77.4919 75.0986 78.5498 75.0986C79.6403 75.0986 80.5192 75.4648 81.1865 76.1973C81.8701 76.9134 82.2119 78.012 82.2119 79.4932V107.691C82.2119 109.173 81.8701 110.279 81.1865 111.012C80.5192 111.744 79.6403 112.11 78.5498 112.11C77.5081 112.11 76.6455 111.744 75.9619 111.012C75.2946 110.263 74.9609 109.156 74.9609 107.691ZM93.584 75.709H103.032C105.49 75.709 107.598 75.9368 109.355 76.3926C111.113 76.8483 112.708 77.7028 114.141 78.9561C117.868 82.1462 119.731 86.9964 119.731 93.5068C119.731 95.6553 119.544 97.6165 119.17 99.3906C118.796 101.165 118.218 102.768 117.437 104.2C116.655 105.616 115.654 106.886 114.434 108.009C113.473 108.871 112.424 109.563 111.284 110.084C110.145 110.605 108.916 110.971 107.598 111.183C106.296 111.394 104.823 111.5 103.179 111.5H93.7305C92.4121 111.5 91.4193 111.305 90.752 110.914C90.0846 110.507 89.6452 109.946 89.4336 109.229C89.2383 108.497 89.1406 107.553 89.1406 106.397V80.1523C89.1406 78.5898 89.4906 77.4587 90.1904 76.7588C90.8903 76.0589 92.0215 75.709 93.584 75.709ZM96.3916 81.4463V105.738H101.885C103.089 105.738 104.033 105.706 104.717 105.641C105.4 105.576 106.108 105.413 106.841 105.152C107.573 104.892 108.208 104.526 108.745 104.054C111.17 102.003 112.383 98.471 112.383 93.458C112.383 89.9261 111.846 87.2812 110.771 85.5234C109.714 83.7656 108.403 82.6507 106.841 82.1787C105.278 81.6904 103.39 81.4463 101.177 81.4463H96.3916ZM152.051 100.758C152.051 102.923 151.489 104.868 150.366 106.593C149.259 108.318 147.632 109.669 145.483 110.646C143.335 111.622 140.788 112.11 137.842 112.11C134.31 112.11 131.396 111.443 129.102 110.108C127.474 109.148 126.147 107.87 125.122 106.275C124.113 104.664 123.608 103.102 123.608 101.588C123.608 100.709 123.91 99.9603 124.512 99.3418C125.13 98.707 125.911 98.3896 126.855 98.3896C127.62 98.3896 128.263 98.6338 128.784 99.1221C129.321 99.6104 129.777 100.335 130.151 101.295C130.607 102.434 131.095 103.386 131.616 104.151C132.153 104.916 132.902 105.551 133.862 106.056C134.823 106.544 136.084 106.788 137.646 106.788C139.795 106.788 141.536 106.292 142.871 105.299C144.222 104.29 144.897 103.036 144.897 101.539C144.897 100.351 144.531 99.3906 143.799 98.6582C143.083 97.9095 142.147 97.3398 140.991 96.9492C139.852 96.5586 138.322 96.1436 136.401 95.7041C133.83 95.1019 131.673 94.402 129.932 93.6045C128.206 92.7907 126.831 91.6921 125.806 90.3086C124.797 88.9089 124.292 87.1755 124.292 85.1084C124.292 83.139 124.829 81.3893 125.903 79.8594C126.978 78.3294 128.532 77.1576 130.566 76.3438C132.601 75.5137 134.993 75.0986 137.744 75.0986C139.941 75.0986 141.838 75.3753 143.433 75.9287C145.044 76.4658 146.379 77.1901 147.437 78.1016C148.494 78.9967 149.268 79.9408 149.756 80.9336C150.244 81.9264 150.488 82.8949 150.488 83.8389C150.488 84.7015 150.179 85.4827 149.561 86.1826C148.958 86.8662 148.201 87.208 147.29 87.208C146.46 87.208 145.825 87.0046 145.386 86.5977C144.963 86.1745 144.499 85.4909 143.994 84.5469C143.343 83.196 142.562 82.1462 141.65 81.3975C140.739 80.6325 139.274 80.25 137.256 80.25C135.384 80.25 133.87 80.665 132.715 81.4951C131.576 82.3089 131.006 83.2936 131.006 84.4492C131.006 85.1654 131.201 85.7839 131.592 86.3047C131.982 86.8255 132.52 87.2731 133.203 87.6475C133.887 88.0218 134.578 88.3148 135.278 88.5264C135.978 88.738 137.134 89.0472 138.745 89.4541C140.763 89.9261 142.586 90.4469 144.214 91.0166C145.858 91.5863 147.249 92.278 148.389 93.0918C149.544 93.9056 150.439 94.9391 151.074 96.1924C151.725 97.4294 152.051 98.9512 152.051 100.758Z" fill="white"/>
</g>
<defs>
<filter id="filter0_di_862_6889" x="0" y="-8" width="190" height="198" filterUnits="userSpaceOnUse" color-interpolation-filters="sRGB">
<feFlood flood-opacity="0" result="BackgroundImageFix"/>
<feColorMatrix in="SourceAlpha" type="matrix" values="0 0 0 0 0 0 0 0 0 0 0 0 0 0 0 0 0 0 127 0" result="hardAlpha"/>
<feOffset dy="2"/>
<feGaussianBlur stdDeviation="3"/>
<feComposite in2="hardAlpha" operator="out"/>
<feColorMatrix type="matrix" values="0 0 0 0 0 0 0 0 0 0 0 0 0 0 0 0 0 0 0.15 0"/>
<feBlend mode="normal" in2="BackgroundImageFix" result="effect1_dropShadow_862_6889"/>
<feBlend mode="normal" in="SourceGraphic" in2="effect1_dropShadow_862_6889" result="shape"/>
<feColorMatrix in="SourceAlpha" type="matrix" values="0 0 0 0 0 0 0 0 0 0 0 0 0 0 0 0 0 0 127 0" result="hardAlpha"/>
<feOffset dx="-5" dy="-12"/>
<feGaussianBlur stdDeviation="10"/>
<feComposite in2="hardAlpha" operator="arithmetic" k2="-1" k3="1"/>
<feColorMatrix type="matrix" values="0 0 0 0 0 0 0 0 0 0 0 0 0 0 0 0 0 0 0.2 0"/>
<feBlend mode="normal" in2="shape" result="effect2_innerShadow_862_6889"/>
</filter>
</defs>
</svg>
